G04 #@! TF.FileFunction,Copper,L2,Bot,Signal*
%FSLAX46Y46*%
G04 Gerber Fmt 4.6, Leading zero omitted, Abs format (unit mm)*
G04 Created by KiCad (PCBNEW (2015-06-25 BZR 5821)-product) date Tue 19 Apr 2016 11:43:48 CEST*
%MOMM*%
G01*
G04 APERTURE LIST*
%ADD10C,0.100000*%
%ADD11R,1.727200X2.032000*%
%ADD12O,1.727200X2.032000*%
%ADD13R,2.032000X1.727200*%
%ADD14O,2.032000X1.727200*%
%ADD15C,1.500000*%
%ADD16C,0.600000*%
%ADD17C,0.500000*%
%ADD18C,0.250000*%
%ADD19C,0.254000*%
G04 APERTURE END LIST*
D10*
D11*
X135359000Y-137850000D03*
D12*
X132819000Y-137850000D03*
X130279000Y-137850000D03*
X127739000Y-137850000D03*
X125199000Y-137850000D03*
X122659000Y-137850000D03*
D13*
X112395000Y-105410000D03*
D14*
X112395000Y-107950000D03*
X112395000Y-110490000D03*
X112395000Y-113030000D03*
X112395000Y-115570000D03*
X112395000Y-118110000D03*
X112395000Y-120650000D03*
X112395000Y-123190000D03*
X112395000Y-125730000D03*
X112395000Y-128270000D03*
X112395000Y-130810000D03*
X112395000Y-133350000D03*
X112395000Y-135890000D03*
X112395000Y-138430000D03*
D15*
X117359000Y-114600000D03*
D16*
X116859000Y-137350000D03*
X128905000Y-126111000D03*
X136779000Y-131445000D03*
X123571000Y-125349000D03*
X118359000Y-131350000D03*
X121018011Y-131600000D03*
X131699000Y-115189000D03*
X129859000Y-130350000D03*
X129109000Y-131100000D03*
X124390696Y-123513306D03*
X123571000Y-124079000D03*
X121793000Y-126111000D03*
X119327895Y-126457122D03*
X132521259Y-124437741D03*
X125859000Y-116600000D03*
D17*
X117359000Y-114600000D02*
X118108999Y-115349999D01*
X122090001Y-115349999D02*
X137729001Y-130988999D01*
X118108999Y-115349999D02*
X122090001Y-115349999D01*
X137729001Y-138529601D02*
X136742592Y-139516010D01*
X136742592Y-139516010D02*
X131792610Y-139516010D01*
X137729001Y-130988999D02*
X137729001Y-138529601D01*
X131792610Y-139516010D02*
X130279000Y-138002400D01*
X130279000Y-138002400D02*
X130279000Y-137850000D01*
D18*
X122659000Y-137850000D02*
X117359000Y-137850000D01*
X117359000Y-137850000D02*
X116859000Y-137350000D01*
X129329264Y-126111000D02*
X128905000Y-126111000D01*
X136779000Y-131445000D02*
X133477000Y-131445000D01*
X133477000Y-131445000D02*
X129329264Y-127297264D01*
X129329264Y-127297264D02*
X129329264Y-126111000D01*
X112395000Y-120650000D02*
X118872000Y-120650000D01*
X118872000Y-120650000D02*
X123571000Y-125349000D01*
X121018011Y-131600000D02*
X118609000Y-131600000D01*
X118609000Y-131600000D02*
X118359000Y-131350000D01*
X112395000Y-113030000D02*
X129540000Y-113030000D01*
X129540000Y-113030000D02*
X131699000Y-115189000D01*
X129859000Y-130774264D02*
X129859000Y-130350000D01*
X129859000Y-135577600D02*
X129859000Y-130774264D01*
X127739000Y-137697600D02*
X129859000Y-135577600D01*
X127739000Y-137850000D02*
X127739000Y-137697600D01*
X128809001Y-131399999D02*
X129109000Y-131100000D01*
X125199000Y-137850000D02*
X125199000Y-135010000D01*
X125199000Y-135010000D02*
X128809001Y-131399999D01*
X116447390Y-115570000D02*
X124090697Y-123213307D01*
X124090697Y-123213307D02*
X124390696Y-123513306D01*
X112395000Y-115570000D02*
X116447390Y-115570000D01*
X117602000Y-118110000D02*
X123271001Y-123779001D01*
X112395000Y-118110000D02*
X117602000Y-118110000D01*
X123271001Y-123779001D02*
X123571000Y-124079000D01*
X113661000Y-123190000D02*
X112395000Y-123190000D01*
X116985775Y-123190000D02*
X113661000Y-123190000D01*
X119906775Y-126111000D02*
X116985775Y-123190000D01*
X121793000Y-126111000D02*
X119906775Y-126111000D01*
X119327895Y-126457122D02*
X113122122Y-126457122D01*
X113122122Y-126457122D02*
X112395000Y-125730000D01*
X125859000Y-116600000D02*
X125859000Y-117775482D01*
X125859000Y-117775482D02*
X132521259Y-124437741D01*
D19*
G36*
X133483623Y-127995201D02*
X133477001Y-129412407D01*
X133477058Y-129412704D01*
X133477000Y-129413000D01*
X133481764Y-129436951D01*
X133486441Y-129461052D01*
X133486608Y-129461304D01*
X133486667Y-129461601D01*
X133500262Y-129481948D01*
X133513778Y-129502382D01*
X133514028Y-129502551D01*
X133514197Y-129502803D01*
X133534526Y-129516386D01*
X133554851Y-129530105D01*
X133555148Y-129530165D01*
X133555399Y-129530333D01*
X133579339Y-129535094D01*
X133603407Y-129539999D01*
X133603704Y-129539941D01*
X133604000Y-129540000D01*
X135028423Y-129540000D01*
X136173423Y-130685000D01*
X133791803Y-130685000D01*
X130089264Y-126982462D01*
X130089264Y-126111000D01*
X130031412Y-125820161D01*
X129866665Y-125573599D01*
X129620103Y-125408852D01*
X129501704Y-125385301D01*
X129435327Y-125318808D01*
X129091799Y-125176162D01*
X128719833Y-125175838D01*
X128376057Y-125317883D01*
X128112808Y-125580673D01*
X127970162Y-125924201D01*
X127969838Y-126296167D01*
X128111883Y-126639943D01*
X128374673Y-126903192D01*
X128569264Y-126983994D01*
X128569264Y-127297264D01*
X128627116Y-127588103D01*
X128791863Y-127834665D01*
X132939599Y-131982402D01*
X133186161Y-132147148D01*
X133477000Y-132205000D01*
X136216537Y-132205000D01*
X136248673Y-132237192D01*
X136592201Y-132379838D01*
X136844001Y-132380057D01*
X136844001Y-136674860D01*
X136760927Y-136474302D01*
X136582299Y-136295673D01*
X136348910Y-136199000D01*
X135644750Y-136199000D01*
X135486000Y-136357750D01*
X135486000Y-137723000D01*
X135506000Y-137723000D01*
X135506000Y-137977000D01*
X135486000Y-137977000D01*
X135486000Y-137997000D01*
X135232000Y-137997000D01*
X135232000Y-137977000D01*
X135212000Y-137977000D01*
X135212000Y-137723000D01*
X135232000Y-137723000D01*
X135232000Y-136357750D01*
X135073250Y-136199000D01*
X134369090Y-136199000D01*
X134135701Y-136295673D01*
X133957073Y-136474302D01*
X133893500Y-136627780D01*
X133878670Y-136605585D01*
X133392489Y-136280729D01*
X132819000Y-136166655D01*
X132245511Y-136280729D01*
X131759330Y-136605585D01*
X131549000Y-136920366D01*
X131338670Y-136605585D01*
X130852489Y-136280729D01*
X130333839Y-136177563D01*
X130396401Y-136115001D01*
X130561148Y-135868439D01*
X130619000Y-135577600D01*
X130619000Y-130912463D01*
X130651192Y-130880327D01*
X130793838Y-130536799D01*
X130794162Y-130164833D01*
X130652117Y-129821057D01*
X130389327Y-129557808D01*
X130045799Y-129415162D01*
X129673833Y-129414838D01*
X129330057Y-129556883D01*
X129066808Y-129819673D01*
X128924162Y-130163201D01*
X128924161Y-130164838D01*
X128923833Y-130164838D01*
X128580057Y-130306883D01*
X128316808Y-130569673D01*
X128174162Y-130913201D01*
X128174121Y-130960077D01*
X124661599Y-134472599D01*
X124496852Y-134719161D01*
X124439000Y-135010000D01*
X124439000Y-136405352D01*
X124139330Y-136605585D01*
X123929000Y-136920366D01*
X123718670Y-136605585D01*
X123232489Y-136280729D01*
X122659000Y-136166655D01*
X122085511Y-136280729D01*
X121599330Y-136605585D01*
X121275654Y-137090000D01*
X117763242Y-137090000D01*
X117652117Y-136821057D01*
X117389327Y-136557808D01*
X117045799Y-136415162D01*
X116673833Y-136414838D01*
X116330057Y-136556883D01*
X116066808Y-136819673D01*
X115924162Y-137163201D01*
X115923838Y-137535167D01*
X116065883Y-137878943D01*
X116328673Y-138142192D01*
X116672201Y-138284838D01*
X116719077Y-138284879D01*
X116821599Y-138387401D01*
X117068161Y-138552148D01*
X117359000Y-138610000D01*
X121275654Y-138610000D01*
X121599330Y-139094415D01*
X122085511Y-139419271D01*
X122659000Y-139533345D01*
X123232489Y-139419271D01*
X123718670Y-139094415D01*
X123929000Y-138779634D01*
X124139330Y-139094415D01*
X124625511Y-139419271D01*
X125199000Y-139533345D01*
X125772489Y-139419271D01*
X126258670Y-139094415D01*
X126469000Y-138779634D01*
X126679330Y-139094415D01*
X127165511Y-139419271D01*
X127739000Y-139533345D01*
X128312489Y-139419271D01*
X128798670Y-139094415D01*
X129009000Y-138779634D01*
X129219330Y-139094415D01*
X129705511Y-139419271D01*
X130279000Y-139533345D01*
X130512016Y-139486995D01*
X131166818Y-140141797D01*
X131166820Y-140141800D01*
X131381135Y-140285000D01*
X110889801Y-140285000D01*
X110885260Y-139092583D01*
X111150585Y-139489670D01*
X111636766Y-139814526D01*
X112210255Y-139928600D01*
X112579745Y-139928600D01*
X113153234Y-139814526D01*
X113639415Y-139489670D01*
X113964271Y-139003489D01*
X114078345Y-138430000D01*
X113964271Y-137856511D01*
X113639415Y-137370330D01*
X113324634Y-137160000D01*
X113639415Y-136949670D01*
X113964271Y-136463489D01*
X114078345Y-135890000D01*
X113964271Y-135316511D01*
X113639415Y-134830330D01*
X113324634Y-134620000D01*
X113639415Y-134409670D01*
X113964271Y-133923489D01*
X114078345Y-133350000D01*
X113964271Y-132776511D01*
X113639415Y-132290330D01*
X113324634Y-132080000D01*
X113639415Y-131869670D01*
X113964271Y-131383489D01*
X114078345Y-130810000D01*
X114027997Y-130556883D01*
X117830057Y-130556883D01*
X117566808Y-130819673D01*
X117424162Y-131163201D01*
X117423838Y-131535167D01*
X117565883Y-131878943D01*
X117828673Y-132142192D01*
X118172201Y-132284838D01*
X118292410Y-132284943D01*
X118318160Y-132302148D01*
X118609000Y-132360000D01*
X120455548Y-132360000D01*
X120487684Y-132392192D01*
X120831212Y-132534838D01*
X121203178Y-132535162D01*
X121546954Y-132393117D01*
X121810203Y-132130327D01*
X121952849Y-131786799D01*
X121953173Y-131414833D01*
X121811128Y-131071057D01*
X121548338Y-130807808D01*
X121204810Y-130665162D01*
X120832844Y-130664838D01*
X120489068Y-130806883D01*
X120455893Y-130840000D01*
X119159944Y-130840000D01*
X119152117Y-130821057D01*
X118889327Y-130557808D01*
X118545799Y-130415162D01*
X118173833Y-130414838D01*
X117830057Y-130556883D01*
X114027997Y-130556883D01*
X113964271Y-130236511D01*
X113639415Y-129750330D01*
X113324634Y-129540000D01*
X113639415Y-129329670D01*
X113964271Y-128843489D01*
X114078345Y-128270000D01*
X113964271Y-127696511D01*
X113643953Y-127217122D01*
X118765432Y-127217122D01*
X118797568Y-127249314D01*
X119141096Y-127391960D01*
X119513062Y-127392284D01*
X119856838Y-127250239D01*
X120120087Y-126987449D01*
X120168441Y-126871000D01*
X121230537Y-126871000D01*
X121262673Y-126903192D01*
X121606201Y-127045838D01*
X121978167Y-127046162D01*
X122321943Y-126904117D01*
X122585192Y-126641327D01*
X122727838Y-126297799D01*
X122728162Y-125925833D01*
X122586117Y-125582057D01*
X122323327Y-125318808D01*
X121979799Y-125176162D01*
X121607833Y-125175838D01*
X121264057Y-125317883D01*
X121230882Y-125351000D01*
X120221577Y-125351000D01*
X117523176Y-122652599D01*
X117276614Y-122487852D01*
X116985775Y-122430000D01*
X113839648Y-122430000D01*
X113639415Y-122130330D01*
X113324634Y-121920000D01*
X113639415Y-121709670D01*
X113839648Y-121410000D01*
X118557198Y-121410000D01*
X122635878Y-125488680D01*
X122635838Y-125534167D01*
X122777883Y-125877943D01*
X123040673Y-126141192D01*
X123384201Y-126283838D01*
X123756167Y-126284162D01*
X124099943Y-126142117D01*
X124363192Y-125879327D01*
X124505838Y-125535799D01*
X124506162Y-125163833D01*
X124364117Y-124820057D01*
X124258290Y-124714046D01*
X124363192Y-124609327D01*
X124430040Y-124448341D01*
X124575863Y-124448468D01*
X124919639Y-124306423D01*
X125182888Y-124043633D01*
X125325534Y-123700105D01*
X125325858Y-123328139D01*
X125183813Y-122984363D01*
X124921023Y-122721114D01*
X124577495Y-122578468D01*
X124530619Y-122578427D01*
X118187191Y-116234999D01*
X121723421Y-116234999D01*
X133483623Y-127995201D01*
X133483623Y-127995201D01*
G37*
X133483623Y-127995201D02*
X133477001Y-129412407D01*
X133477058Y-129412704D01*
X133477000Y-129413000D01*
X133481764Y-129436951D01*
X133486441Y-129461052D01*
X133486608Y-129461304D01*
X133486667Y-129461601D01*
X133500262Y-129481948D01*
X133513778Y-129502382D01*
X133514028Y-129502551D01*
X133514197Y-129502803D01*
X133534526Y-129516386D01*
X133554851Y-129530105D01*
X133555148Y-129530165D01*
X133555399Y-129530333D01*
X133579339Y-129535094D01*
X133603407Y-129539999D01*
X133603704Y-129539941D01*
X133604000Y-129540000D01*
X135028423Y-129540000D01*
X136173423Y-130685000D01*
X133791803Y-130685000D01*
X130089264Y-126982462D01*
X130089264Y-126111000D01*
X130031412Y-125820161D01*
X129866665Y-125573599D01*
X129620103Y-125408852D01*
X129501704Y-125385301D01*
X129435327Y-125318808D01*
X129091799Y-125176162D01*
X128719833Y-125175838D01*
X128376057Y-125317883D01*
X128112808Y-125580673D01*
X127970162Y-125924201D01*
X127969838Y-126296167D01*
X128111883Y-126639943D01*
X128374673Y-126903192D01*
X128569264Y-126983994D01*
X128569264Y-127297264D01*
X128627116Y-127588103D01*
X128791863Y-127834665D01*
X132939599Y-131982402D01*
X133186161Y-132147148D01*
X133477000Y-132205000D01*
X136216537Y-132205000D01*
X136248673Y-132237192D01*
X136592201Y-132379838D01*
X136844001Y-132380057D01*
X136844001Y-136674860D01*
X136760927Y-136474302D01*
X136582299Y-136295673D01*
X136348910Y-136199000D01*
X135644750Y-136199000D01*
X135486000Y-136357750D01*
X135486000Y-137723000D01*
X135506000Y-137723000D01*
X135506000Y-137977000D01*
X135486000Y-137977000D01*
X135486000Y-137997000D01*
X135232000Y-137997000D01*
X135232000Y-137977000D01*
X135212000Y-137977000D01*
X135212000Y-137723000D01*
X135232000Y-137723000D01*
X135232000Y-136357750D01*
X135073250Y-136199000D01*
X134369090Y-136199000D01*
X134135701Y-136295673D01*
X133957073Y-136474302D01*
X133893500Y-136627780D01*
X133878670Y-136605585D01*
X133392489Y-136280729D01*
X132819000Y-136166655D01*
X132245511Y-136280729D01*
X131759330Y-136605585D01*
X131549000Y-136920366D01*
X131338670Y-136605585D01*
X130852489Y-136280729D01*
X130333839Y-136177563D01*
X130396401Y-136115001D01*
X130561148Y-135868439D01*
X130619000Y-135577600D01*
X130619000Y-130912463D01*
X130651192Y-130880327D01*
X130793838Y-130536799D01*
X130794162Y-130164833D01*
X130652117Y-129821057D01*
X130389327Y-129557808D01*
X130045799Y-129415162D01*
X129673833Y-129414838D01*
X129330057Y-129556883D01*
X129066808Y-129819673D01*
X128924162Y-130163201D01*
X128924161Y-130164838D01*
X128923833Y-130164838D01*
X128580057Y-130306883D01*
X128316808Y-130569673D01*
X128174162Y-130913201D01*
X128174121Y-130960077D01*
X124661599Y-134472599D01*
X124496852Y-134719161D01*
X124439000Y-135010000D01*
X124439000Y-136405352D01*
X124139330Y-136605585D01*
X123929000Y-136920366D01*
X123718670Y-136605585D01*
X123232489Y-136280729D01*
X122659000Y-136166655D01*
X122085511Y-136280729D01*
X121599330Y-136605585D01*
X121275654Y-137090000D01*
X117763242Y-137090000D01*
X117652117Y-136821057D01*
X117389327Y-136557808D01*
X117045799Y-136415162D01*
X116673833Y-136414838D01*
X116330057Y-136556883D01*
X116066808Y-136819673D01*
X115924162Y-137163201D01*
X115923838Y-137535167D01*
X116065883Y-137878943D01*
X116328673Y-138142192D01*
X116672201Y-138284838D01*
X116719077Y-138284879D01*
X116821599Y-138387401D01*
X117068161Y-138552148D01*
X117359000Y-138610000D01*
X121275654Y-138610000D01*
X121599330Y-139094415D01*
X122085511Y-139419271D01*
X122659000Y-139533345D01*
X123232489Y-139419271D01*
X123718670Y-139094415D01*
X123929000Y-138779634D01*
X124139330Y-139094415D01*
X124625511Y-139419271D01*
X125199000Y-139533345D01*
X125772489Y-139419271D01*
X126258670Y-139094415D01*
X126469000Y-138779634D01*
X126679330Y-139094415D01*
X127165511Y-139419271D01*
X127739000Y-139533345D01*
X128312489Y-139419271D01*
X128798670Y-139094415D01*
X129009000Y-138779634D01*
X129219330Y-139094415D01*
X129705511Y-139419271D01*
X130279000Y-139533345D01*
X130512016Y-139486995D01*
X131166818Y-140141797D01*
X131166820Y-140141800D01*
X131381135Y-140285000D01*
X110889801Y-140285000D01*
X110885260Y-139092583D01*
X111150585Y-139489670D01*
X111636766Y-139814526D01*
X112210255Y-139928600D01*
X112579745Y-139928600D01*
X113153234Y-139814526D01*
X113639415Y-139489670D01*
X113964271Y-139003489D01*
X114078345Y-138430000D01*
X113964271Y-137856511D01*
X113639415Y-137370330D01*
X113324634Y-137160000D01*
X113639415Y-136949670D01*
X113964271Y-136463489D01*
X114078345Y-135890000D01*
X113964271Y-135316511D01*
X113639415Y-134830330D01*
X113324634Y-134620000D01*
X113639415Y-134409670D01*
X113964271Y-133923489D01*
X114078345Y-133350000D01*
X113964271Y-132776511D01*
X113639415Y-132290330D01*
X113324634Y-132080000D01*
X113639415Y-131869670D01*
X113964271Y-131383489D01*
X114078345Y-130810000D01*
X114027997Y-130556883D01*
X117830057Y-130556883D01*
X117566808Y-130819673D01*
X117424162Y-131163201D01*
X117423838Y-131535167D01*
X117565883Y-131878943D01*
X117828673Y-132142192D01*
X118172201Y-132284838D01*
X118292410Y-132284943D01*
X118318160Y-132302148D01*
X118609000Y-132360000D01*
X120455548Y-132360000D01*
X120487684Y-132392192D01*
X120831212Y-132534838D01*
X121203178Y-132535162D01*
X121546954Y-132393117D01*
X121810203Y-132130327D01*
X121952849Y-131786799D01*
X121953173Y-131414833D01*
X121811128Y-131071057D01*
X121548338Y-130807808D01*
X121204810Y-130665162D01*
X120832844Y-130664838D01*
X120489068Y-130806883D01*
X120455893Y-130840000D01*
X119159944Y-130840000D01*
X119152117Y-130821057D01*
X118889327Y-130557808D01*
X118545799Y-130415162D01*
X118173833Y-130414838D01*
X117830057Y-130556883D01*
X114027997Y-130556883D01*
X113964271Y-130236511D01*
X113639415Y-129750330D01*
X113324634Y-129540000D01*
X113639415Y-129329670D01*
X113964271Y-128843489D01*
X114078345Y-128270000D01*
X113964271Y-127696511D01*
X113643953Y-127217122D01*
X118765432Y-127217122D01*
X118797568Y-127249314D01*
X119141096Y-127391960D01*
X119513062Y-127392284D01*
X119856838Y-127250239D01*
X120120087Y-126987449D01*
X120168441Y-126871000D01*
X121230537Y-126871000D01*
X121262673Y-126903192D01*
X121606201Y-127045838D01*
X121978167Y-127046162D01*
X122321943Y-126904117D01*
X122585192Y-126641327D01*
X122727838Y-126297799D01*
X122728162Y-125925833D01*
X122586117Y-125582057D01*
X122323327Y-125318808D01*
X121979799Y-125176162D01*
X121607833Y-125175838D01*
X121264057Y-125317883D01*
X121230882Y-125351000D01*
X120221577Y-125351000D01*
X117523176Y-122652599D01*
X117276614Y-122487852D01*
X116985775Y-122430000D01*
X113839648Y-122430000D01*
X113639415Y-122130330D01*
X113324634Y-121920000D01*
X113639415Y-121709670D01*
X113839648Y-121410000D01*
X118557198Y-121410000D01*
X122635878Y-125488680D01*
X122635838Y-125534167D01*
X122777883Y-125877943D01*
X123040673Y-126141192D01*
X123384201Y-126283838D01*
X123756167Y-126284162D01*
X124099943Y-126142117D01*
X124363192Y-125879327D01*
X124505838Y-125535799D01*
X124506162Y-125163833D01*
X124364117Y-124820057D01*
X124258290Y-124714046D01*
X124363192Y-124609327D01*
X124430040Y-124448341D01*
X124575863Y-124448468D01*
X124919639Y-124306423D01*
X125182888Y-124043633D01*
X125325534Y-123700105D01*
X125325858Y-123328139D01*
X125183813Y-122984363D01*
X124921023Y-122721114D01*
X124577495Y-122578468D01*
X124530619Y-122578427D01*
X118187191Y-116234999D01*
X121723421Y-116234999D01*
X133483623Y-127995201D01*
G36*
X133495266Y-125503685D02*
X133136396Y-125144814D01*
X133313451Y-124968068D01*
X133456097Y-124624540D01*
X133456421Y-124252574D01*
X133314376Y-123908798D01*
X133051586Y-123645549D01*
X132708058Y-123502903D01*
X132661182Y-123502862D01*
X126619000Y-117460680D01*
X126619000Y-117162463D01*
X126651192Y-117130327D01*
X126793838Y-116786799D01*
X126794162Y-116414833D01*
X126652117Y-116071057D01*
X126389327Y-115807808D01*
X126045799Y-115665162D01*
X125673833Y-115664838D01*
X125330057Y-115806883D01*
X125066808Y-116069673D01*
X124924162Y-116413201D01*
X124923838Y-116785167D01*
X125027408Y-117035826D01*
X122715791Y-114724209D01*
X122617709Y-114658673D01*
X122428676Y-114532366D01*
X122372485Y-114521189D01*
X122090001Y-114464998D01*
X122089996Y-114464999D01*
X118744118Y-114464999D01*
X118744240Y-114325715D01*
X118533831Y-113816485D01*
X118507392Y-113790000D01*
X129225198Y-113790000D01*
X130763878Y-115328680D01*
X130763838Y-115374167D01*
X130905883Y-115717943D01*
X131168673Y-115981192D01*
X131512201Y-116123838D01*
X131884167Y-116124162D01*
X132227943Y-115982117D01*
X132491192Y-115719327D01*
X132633838Y-115375799D01*
X132634162Y-115003833D01*
X132492117Y-114660057D01*
X132229327Y-114396808D01*
X131885799Y-114254162D01*
X131838923Y-114254121D01*
X130077401Y-112492599D01*
X129830839Y-112327852D01*
X129540000Y-112270000D01*
X113839648Y-112270000D01*
X113639415Y-111970330D01*
X113324634Y-111760000D01*
X113639415Y-111549670D01*
X113964271Y-111063489D01*
X114078345Y-110490000D01*
X113964271Y-109916511D01*
X113639415Y-109430330D01*
X113324634Y-109220000D01*
X113639415Y-109009670D01*
X113964271Y-108523489D01*
X114078345Y-107950000D01*
X113964271Y-107376511D01*
X113639415Y-106890330D01*
X113617220Y-106875500D01*
X113770698Y-106811927D01*
X113949327Y-106633299D01*
X114046000Y-106399910D01*
X114046000Y-105695750D01*
X113887250Y-105537000D01*
X112522000Y-105537000D01*
X112522000Y-105557000D01*
X112268000Y-105557000D01*
X112268000Y-105537000D01*
X112248000Y-105537000D01*
X112248000Y-105283000D01*
X112268000Y-105283000D01*
X112268000Y-104070150D01*
X112109250Y-103911400D01*
X112680750Y-103911400D01*
X112522000Y-104070150D01*
X112522000Y-105283000D01*
X113887250Y-105283000D01*
X114046000Y-105124250D01*
X114046000Y-104420090D01*
X113949327Y-104186701D01*
X113770698Y-104008073D01*
X113537309Y-103911400D01*
X112680750Y-103911400D01*
X112109250Y-103911400D01*
X112109250Y-103911400D01*
X111252691Y-103911400D01*
X111019302Y-104008073D01*
X110840673Y-104186701D01*
X110753133Y-104398041D01*
X110745086Y-102285000D01*
X133603765Y-102285000D01*
X133495266Y-125503685D01*
X133495266Y-125503685D01*
G37*
X133495266Y-125503685D02*
X133136396Y-125144814D01*
X133313451Y-124968068D01*
X133456097Y-124624540D01*
X133456421Y-124252574D01*
X133314376Y-123908798D01*
X133051586Y-123645549D01*
X132708058Y-123502903D01*
X132661182Y-123502862D01*
X126619000Y-117460680D01*
X126619000Y-117162463D01*
X126651192Y-117130327D01*
X126793838Y-116786799D01*
X126794162Y-116414833D01*
X126652117Y-116071057D01*
X126389327Y-115807808D01*
X126045799Y-115665162D01*
X125673833Y-115664838D01*
X125330057Y-115806883D01*
X125066808Y-116069673D01*
X124924162Y-116413201D01*
X124923838Y-116785167D01*
X125027408Y-117035826D01*
X122715791Y-114724209D01*
X122617709Y-114658673D01*
X122428676Y-114532366D01*
X122372485Y-114521189D01*
X122090001Y-114464998D01*
X122089996Y-114464999D01*
X118744118Y-114464999D01*
X118744240Y-114325715D01*
X118533831Y-113816485D01*
X118507392Y-113790000D01*
X129225198Y-113790000D01*
X130763878Y-115328680D01*
X130763838Y-115374167D01*
X130905883Y-115717943D01*
X131168673Y-115981192D01*
X131512201Y-116123838D01*
X131884167Y-116124162D01*
X132227943Y-115982117D01*
X132491192Y-115719327D01*
X132633838Y-115375799D01*
X132634162Y-115003833D01*
X132492117Y-114660057D01*
X132229327Y-114396808D01*
X131885799Y-114254162D01*
X131838923Y-114254121D01*
X130077401Y-112492599D01*
X129830839Y-112327852D01*
X129540000Y-112270000D01*
X113839648Y-112270000D01*
X113639415Y-111970330D01*
X113324634Y-111760000D01*
X113639415Y-111549670D01*
X113964271Y-111063489D01*
X114078345Y-110490000D01*
X113964271Y-109916511D01*
X113639415Y-109430330D01*
X113324634Y-109220000D01*
X113639415Y-109009670D01*
X113964271Y-108523489D01*
X114078345Y-107950000D01*
X113964271Y-107376511D01*
X113639415Y-106890330D01*
X113617220Y-106875500D01*
X113770698Y-106811927D01*
X113949327Y-106633299D01*
X114046000Y-106399910D01*
X114046000Y-105695750D01*
X113887250Y-105537000D01*
X112522000Y-105537000D01*
X112522000Y-105557000D01*
X112268000Y-105557000D01*
X112268000Y-105537000D01*
X112248000Y-105537000D01*
X112248000Y-105283000D01*
X112268000Y-105283000D01*
X112268000Y-104070150D01*
X112109250Y-103911400D01*
X112680750Y-103911400D01*
X112522000Y-104070150D01*
X112522000Y-105283000D01*
X113887250Y-105283000D01*
X114046000Y-105124250D01*
X114046000Y-104420090D01*
X113949327Y-104186701D01*
X113770698Y-104008073D01*
X113537309Y-103911400D01*
X112680750Y-103911400D01*
X112109250Y-103911400D01*
X112109250Y-103911400D01*
X111252691Y-103911400D01*
X111019302Y-104008073D01*
X110840673Y-104186701D01*
X110753133Y-104398041D01*
X110745086Y-102285000D01*
X133603765Y-102285000D01*
X133495266Y-125503685D01*
M02*
