G04 #@! TF.FileFunction,Legend,Top*
%FSLAX46Y46*%
G04 Gerber Fmt 4.6, Leading zero omitted, Abs format (unit mm)*
G04 Created by KiCad (PCBNEW 4.0.3+e1-6302~38~ubuntu14.04.1-stable) date Sat Aug 13 21:19:10 2016*
%MOMM*%
%LPD*%
G01*
G04 APERTURE LIST*
%ADD10C,0.100000*%
%ADD11C,0.200000*%
%ADD12C,0.150000*%
G04 APERTURE END LIST*
D10*
D11*
X121504200Y-140452381D02*
X121504200Y-139452381D01*
X121504200Y-140404762D02*
X121418486Y-140452381D01*
X121247057Y-140452381D01*
X121161343Y-140404762D01*
X121118486Y-140357143D01*
X121075629Y-140261905D01*
X121075629Y-139976190D01*
X121118486Y-139880952D01*
X121161343Y-139833333D01*
X121247057Y-139785714D01*
X121418486Y-139785714D01*
X121504200Y-139833333D01*
X121804200Y-139785714D02*
X122147057Y-139785714D01*
X121932772Y-139452381D02*
X121932772Y-140309524D01*
X121975629Y-140404762D01*
X122061343Y-140452381D01*
X122147057Y-140452381D01*
X122447058Y-140452381D02*
X122447058Y-139785714D01*
X122447058Y-139976190D02*
X122489915Y-139880952D01*
X122532772Y-139833333D01*
X122618486Y-139785714D01*
X122704201Y-139785714D01*
X123689915Y-140452381D02*
X123689915Y-139785714D01*
X123689915Y-139976190D02*
X123732772Y-139880952D01*
X123775629Y-139833333D01*
X123861343Y-139785714D01*
X123947058Y-139785714D01*
X124161343Y-140452381D02*
X124632772Y-139785714D01*
X124161343Y-139785714D02*
X124632772Y-140452381D01*
X126218485Y-139785714D02*
X126561342Y-139785714D01*
X126347057Y-139452381D02*
X126347057Y-140309524D01*
X126389914Y-140404762D01*
X126475628Y-140452381D01*
X126561342Y-140452381D01*
X126775628Y-140452381D02*
X127247057Y-139785714D01*
X126775628Y-139785714D02*
X127247057Y-140452381D01*
X128875627Y-139785714D02*
X129089913Y-140452381D01*
X129304199Y-139785714D01*
X130032770Y-140404762D02*
X129947056Y-140452381D01*
X129775627Y-140452381D01*
X129689913Y-140404762D01*
X129647056Y-140357143D01*
X129604199Y-140261905D01*
X129604199Y-139976190D01*
X129647056Y-139880952D01*
X129689913Y-139833333D01*
X129775627Y-139785714D01*
X129947056Y-139785714D01*
X130032770Y-139833333D01*
X130804199Y-140404762D02*
X130718485Y-140452381D01*
X130547056Y-140452381D01*
X130461342Y-140404762D01*
X130418485Y-140357143D01*
X130375628Y-140261905D01*
X130375628Y-139976190D01*
X130418485Y-139880952D01*
X130461342Y-139833333D01*
X130547056Y-139785714D01*
X130718485Y-139785714D01*
X130804199Y-139833333D01*
X132261342Y-140404762D02*
X132175628Y-140452381D01*
X132004199Y-140452381D01*
X131918485Y-140404762D01*
X131875628Y-140357143D01*
X131832771Y-140261905D01*
X131832771Y-139976190D01*
X131875628Y-139880952D01*
X131918485Y-139833333D01*
X132004199Y-139785714D01*
X132175628Y-139785714D01*
X132261342Y-139833333D01*
X132518485Y-139785714D02*
X132861342Y-139785714D01*
X132647057Y-139452381D02*
X132647057Y-140309524D01*
X132689914Y-140404762D01*
X132775628Y-140452381D01*
X132861342Y-140452381D01*
X133118486Y-140404762D02*
X133204200Y-140452381D01*
X133375628Y-140452381D01*
X133461343Y-140404762D01*
X133504200Y-140309524D01*
X133504200Y-140261905D01*
X133461343Y-140166667D01*
X133375628Y-140119048D01*
X133247057Y-140119048D01*
X133161343Y-140071429D01*
X133118486Y-139976190D01*
X133118486Y-139928571D01*
X133161343Y-139833333D01*
X133247057Y-139785714D01*
X133375628Y-139785714D01*
X133461343Y-139833333D01*
X134961342Y-139785714D02*
X134961342Y-140595238D01*
X134918485Y-140690476D01*
X134875628Y-140738095D01*
X134789913Y-140785714D01*
X134661342Y-140785714D01*
X134575628Y-140738095D01*
X134961342Y-140404762D02*
X134875628Y-140452381D01*
X134704199Y-140452381D01*
X134618485Y-140404762D01*
X134575628Y-140357143D01*
X134532771Y-140261905D01*
X134532771Y-139976190D01*
X134575628Y-139880952D01*
X134618485Y-139833333D01*
X134704199Y-139785714D01*
X134875628Y-139785714D01*
X134961342Y-139833333D01*
X135389914Y-139785714D02*
X135389914Y-140452381D01*
X135389914Y-139880952D02*
X135432771Y-139833333D01*
X135518485Y-139785714D01*
X135647057Y-139785714D01*
X135732771Y-139833333D01*
X135775628Y-139928571D01*
X135775628Y-140452381D01*
X136589914Y-140452381D02*
X136589914Y-139452381D01*
X136589914Y-140404762D02*
X136504200Y-140452381D01*
X136332771Y-140452381D01*
X136247057Y-140404762D01*
X136204200Y-140357143D01*
X136161343Y-140261905D01*
X136161343Y-139976190D01*
X136204200Y-139880952D01*
X136247057Y-139833333D01*
X136332771Y-139785714D01*
X136504200Y-139785714D01*
X136589914Y-139833333D01*
X114690495Y-113558581D02*
X114690495Y-112891914D01*
X114690495Y-113082390D02*
X114738114Y-112987152D01*
X114785733Y-112939533D01*
X114880971Y-112891914D01*
X114976210Y-112891914D01*
X115261924Y-113510962D02*
X115357162Y-113558581D01*
X115547638Y-113558581D01*
X115642877Y-113510962D01*
X115690496Y-113415724D01*
X115690496Y-113368105D01*
X115642877Y-113272867D01*
X115547638Y-113225248D01*
X115404781Y-113225248D01*
X115309543Y-113177629D01*
X115261924Y-113082390D01*
X115261924Y-113034771D01*
X115309543Y-112939533D01*
X115404781Y-112891914D01*
X115547638Y-112891914D01*
X115642877Y-112939533D01*
X115976210Y-112891914D02*
X116357162Y-112891914D01*
X116119067Y-112558581D02*
X116119067Y-113415724D01*
X116166686Y-113510962D01*
X116261924Y-113558581D01*
X116357162Y-113558581D01*
X113509800Y-111480600D02*
X116509800Y-111480600D01*
X113538000Y-112014000D02*
X116538000Y-112014000D01*
X113705000Y-108915000D02*
X113205000Y-108915000D01*
X113205000Y-103915000D02*
X113705000Y-103915000D01*
X110705000Y-139415000D02*
X111205000Y-139415000D01*
X110693200Y-112191800D02*
X110705000Y-139415000D01*
X111252000Y-112141000D02*
X110752000Y-112141000D01*
X110705000Y-103915000D02*
X111205000Y-103915000D01*
X110693200Y-111506000D02*
X111193200Y-111506000D01*
X110705000Y-103915000D02*
X110667800Y-111480600D01*
X113705000Y-109000000D02*
X113705000Y-104000000D01*
X115022286Y-104806667D02*
X114212762Y-104806667D01*
X114117524Y-104759048D01*
X114069905Y-104711429D01*
X114022286Y-104616190D01*
X114022286Y-104473333D01*
X114069905Y-104378095D01*
X114403238Y-104806667D02*
X114355619Y-104711429D01*
X114355619Y-104520952D01*
X114403238Y-104425714D01*
X114450857Y-104378095D01*
X114546095Y-104330476D01*
X114831810Y-104330476D01*
X114927048Y-104378095D01*
X114974667Y-104425714D01*
X115022286Y-104520952D01*
X115022286Y-104711429D01*
X114974667Y-104806667D01*
X115022286Y-105282857D02*
X114355619Y-105282857D01*
X114927048Y-105282857D02*
X114974667Y-105330476D01*
X115022286Y-105425714D01*
X115022286Y-105568572D01*
X114974667Y-105663810D01*
X114879429Y-105711429D01*
X114355619Y-105711429D01*
X114355619Y-106616191D02*
X115355619Y-106616191D01*
X114403238Y-106616191D02*
X114355619Y-106520953D01*
X114355619Y-106330476D01*
X114403238Y-106235238D01*
X114450857Y-106187619D01*
X114546095Y-106140000D01*
X114831810Y-106140000D01*
X114927048Y-106187619D01*
X114974667Y-106235238D01*
X115022286Y-106330476D01*
X115022286Y-106520953D01*
X114974667Y-106616191D01*
X114760286Y-107656381D02*
X114284095Y-107656381D01*
X114236476Y-108132571D01*
X114284095Y-108084952D01*
X114379333Y-108037333D01*
X114617429Y-108037333D01*
X114712667Y-108084952D01*
X114760286Y-108132571D01*
X114807905Y-108227810D01*
X114807905Y-108465905D01*
X114760286Y-108561143D01*
X114712667Y-108608762D01*
X114617429Y-108656381D01*
X114379333Y-108656381D01*
X114284095Y-108608762D01*
X114236476Y-108561143D01*
X115141238Y-107989714D02*
X115379333Y-108656381D01*
X115617429Y-107989714D01*
X113884057Y-110018581D02*
X114503105Y-110018581D01*
X114169771Y-110399533D01*
X114312629Y-110399533D01*
X114407867Y-110447152D01*
X114455486Y-110494771D01*
X114503105Y-110590010D01*
X114503105Y-110828105D01*
X114455486Y-110923343D01*
X114407867Y-110970962D01*
X114312629Y-111018581D01*
X114026914Y-111018581D01*
X113931676Y-110970962D01*
X113884057Y-110923343D01*
X114931676Y-110923343D02*
X114979295Y-110970962D01*
X114931676Y-111018581D01*
X114884057Y-110970962D01*
X114931676Y-110923343D01*
X114931676Y-111018581D01*
X115312628Y-110018581D02*
X115931676Y-110018581D01*
X115598342Y-110399533D01*
X115741200Y-110399533D01*
X115836438Y-110447152D01*
X115884057Y-110494771D01*
X115931676Y-110590010D01*
X115931676Y-110828105D01*
X115884057Y-110923343D01*
X115836438Y-110970962D01*
X115741200Y-111018581D01*
X115455485Y-111018581D01*
X115360247Y-110970962D01*
X115312628Y-110923343D01*
X116265009Y-110351914D02*
X116503104Y-111018581D01*
X116741200Y-110351914D01*
X114728571Y-115047781D02*
X114823810Y-115047781D01*
X114919048Y-115095400D01*
X114966667Y-115143019D01*
X115014286Y-115238257D01*
X115061905Y-115428733D01*
X115061905Y-115666829D01*
X115014286Y-115857305D01*
X114966667Y-115952543D01*
X114919048Y-116000162D01*
X114823810Y-116047781D01*
X114728571Y-116047781D01*
X114633333Y-116000162D01*
X114585714Y-115952543D01*
X114538095Y-115857305D01*
X114490476Y-115666829D01*
X114490476Y-115428733D01*
X114538095Y-115238257D01*
X114585714Y-115143019D01*
X114633333Y-115095400D01*
X114728571Y-115047781D01*
X115966667Y-115047781D02*
X115490476Y-115047781D01*
X115442857Y-115523971D01*
X115490476Y-115476352D01*
X115585714Y-115428733D01*
X115823810Y-115428733D01*
X115919048Y-115476352D01*
X115966667Y-115523971D01*
X116014286Y-115619210D01*
X116014286Y-115857305D01*
X115966667Y-115952543D01*
X115919048Y-116000162D01*
X115823810Y-116047781D01*
X115585714Y-116047781D01*
X115490476Y-116000162D01*
X115442857Y-115952543D01*
X114728571Y-117562381D02*
X114823810Y-117562381D01*
X114919048Y-117610000D01*
X114966667Y-117657619D01*
X115014286Y-117752857D01*
X115061905Y-117943333D01*
X115061905Y-118181429D01*
X115014286Y-118371905D01*
X114966667Y-118467143D01*
X114919048Y-118514762D01*
X114823810Y-118562381D01*
X114728571Y-118562381D01*
X114633333Y-118514762D01*
X114585714Y-118467143D01*
X114538095Y-118371905D01*
X114490476Y-118181429D01*
X114490476Y-117943333D01*
X114538095Y-117752857D01*
X114585714Y-117657619D01*
X114633333Y-117610000D01*
X114728571Y-117562381D01*
X115919048Y-117895714D02*
X115919048Y-118562381D01*
X115680952Y-117514762D02*
X115442857Y-118229048D01*
X116061905Y-118229048D01*
X114728571Y-119952381D02*
X114823810Y-119952381D01*
X114919048Y-120000000D01*
X114966667Y-120047619D01*
X115014286Y-120142857D01*
X115061905Y-120333333D01*
X115061905Y-120571429D01*
X115014286Y-120761905D01*
X114966667Y-120857143D01*
X114919048Y-120904762D01*
X114823810Y-120952381D01*
X114728571Y-120952381D01*
X114633333Y-120904762D01*
X114585714Y-120857143D01*
X114538095Y-120761905D01*
X114490476Y-120571429D01*
X114490476Y-120333333D01*
X114538095Y-120142857D01*
X114585714Y-120047619D01*
X114633333Y-120000000D01*
X114728571Y-119952381D01*
X115680952Y-119952381D02*
X115776191Y-119952381D01*
X115871429Y-120000000D01*
X115919048Y-120047619D01*
X115966667Y-120142857D01*
X116014286Y-120333333D01*
X116014286Y-120571429D01*
X115966667Y-120761905D01*
X115919048Y-120857143D01*
X115871429Y-120904762D01*
X115776191Y-120952381D01*
X115680952Y-120952381D01*
X115585714Y-120904762D01*
X115538095Y-120857143D01*
X115490476Y-120761905D01*
X115442857Y-120571429D01*
X115442857Y-120333333D01*
X115490476Y-120142857D01*
X115538095Y-120047619D01*
X115585714Y-120000000D01*
X115680952Y-119952381D01*
X114728571Y-122452381D02*
X114823810Y-122452381D01*
X114919048Y-122500000D01*
X114966667Y-122547619D01*
X115014286Y-122642857D01*
X115061905Y-122833333D01*
X115061905Y-123071429D01*
X115014286Y-123261905D01*
X114966667Y-123357143D01*
X114919048Y-123404762D01*
X114823810Y-123452381D01*
X114728571Y-123452381D01*
X114633333Y-123404762D01*
X114585714Y-123357143D01*
X114538095Y-123261905D01*
X114490476Y-123071429D01*
X114490476Y-122833333D01*
X114538095Y-122642857D01*
X114585714Y-122547619D01*
X114633333Y-122500000D01*
X114728571Y-122452381D01*
X115442857Y-122547619D02*
X115490476Y-122500000D01*
X115585714Y-122452381D01*
X115823810Y-122452381D01*
X115919048Y-122500000D01*
X115966667Y-122547619D01*
X116014286Y-122642857D01*
X116014286Y-122738095D01*
X115966667Y-122880952D01*
X115395238Y-123452381D01*
X116014286Y-123452381D01*
X115061905Y-126182381D02*
X114490476Y-126182381D01*
X114776190Y-126182381D02*
X114776190Y-125182381D01*
X114680952Y-125325238D01*
X114585714Y-125420476D01*
X114490476Y-125468095D01*
X115966667Y-125182381D02*
X115490476Y-125182381D01*
X115442857Y-125658571D01*
X115490476Y-125610952D01*
X115585714Y-125563333D01*
X115823810Y-125563333D01*
X115919048Y-125610952D01*
X115966667Y-125658571D01*
X116014286Y-125753810D01*
X116014286Y-125991905D01*
X115966667Y-126087143D01*
X115919048Y-126134762D01*
X115823810Y-126182381D01*
X115585714Y-126182381D01*
X115490476Y-126134762D01*
X115442857Y-126087143D01*
X115061905Y-128722381D02*
X114490476Y-128722381D01*
X114776190Y-128722381D02*
X114776190Y-127722381D01*
X114680952Y-127865238D01*
X114585714Y-127960476D01*
X114490476Y-128008095D01*
X115395238Y-127722381D02*
X116014286Y-127722381D01*
X115680952Y-128103333D01*
X115823810Y-128103333D01*
X115919048Y-128150952D01*
X115966667Y-128198571D01*
X116014286Y-128293810D01*
X116014286Y-128531905D01*
X115966667Y-128627143D01*
X115919048Y-128674762D01*
X115823810Y-128722381D01*
X115538095Y-128722381D01*
X115442857Y-128674762D01*
X115395238Y-128627143D01*
X115061905Y-131262381D02*
X114490476Y-131262381D01*
X114776190Y-131262381D02*
X114776190Y-130262381D01*
X114680952Y-130405238D01*
X114585714Y-130500476D01*
X114490476Y-130548095D01*
X115442857Y-130357619D02*
X115490476Y-130310000D01*
X115585714Y-130262381D01*
X115823810Y-130262381D01*
X115919048Y-130310000D01*
X115966667Y-130357619D01*
X116014286Y-130452857D01*
X116014286Y-130548095D01*
X115966667Y-130690952D01*
X115395238Y-131262381D01*
X116014286Y-131262381D01*
X115061905Y-133802381D02*
X114490476Y-133802381D01*
X114776190Y-133802381D02*
X114776190Y-132802381D01*
X114680952Y-132945238D01*
X114585714Y-133040476D01*
X114490476Y-133088095D01*
X115919048Y-133135714D02*
X115919048Y-133802381D01*
X115680952Y-132754762D02*
X115442857Y-133469048D01*
X116061905Y-133469048D01*
X115061905Y-136342381D02*
X114490476Y-136342381D01*
X114776190Y-136342381D02*
X114776190Y-135342381D01*
X114680952Y-135485238D01*
X114585714Y-135580476D01*
X114490476Y-135628095D01*
X115919048Y-135342381D02*
X115728571Y-135342381D01*
X115633333Y-135390000D01*
X115585714Y-135437619D01*
X115490476Y-135580476D01*
X115442857Y-135770952D01*
X115442857Y-136151905D01*
X115490476Y-136247143D01*
X115538095Y-136294762D01*
X115633333Y-136342381D01*
X115823810Y-136342381D01*
X115919048Y-136294762D01*
X115966667Y-136247143D01*
X116014286Y-136151905D01*
X116014286Y-135913810D01*
X115966667Y-135818571D01*
X115919048Y-135770952D01*
X115823810Y-135723333D01*
X115633333Y-135723333D01*
X115538095Y-135770952D01*
X115490476Y-135818571D01*
X115442857Y-135913810D01*
X114966667Y-138628381D02*
X114966667Y-138104571D01*
X114919048Y-138009333D01*
X114823810Y-137961714D01*
X114633333Y-137961714D01*
X114538095Y-138009333D01*
X114966667Y-138580762D02*
X114871429Y-138628381D01*
X114633333Y-138628381D01*
X114538095Y-138580762D01*
X114490476Y-138485524D01*
X114490476Y-138390286D01*
X114538095Y-138295048D01*
X114633333Y-138247429D01*
X114871429Y-138247429D01*
X114966667Y-138199810D01*
X115871429Y-138628381D02*
X115871429Y-137628381D01*
X115871429Y-138580762D02*
X115776191Y-138628381D01*
X115585714Y-138628381D01*
X115490476Y-138580762D01*
X115442857Y-138533143D01*
X115395238Y-138437905D01*
X115395238Y-138152190D01*
X115442857Y-138056952D01*
X115490476Y-138009333D01*
X115585714Y-137961714D01*
X115776191Y-137961714D01*
X115871429Y-138009333D01*
X116776191Y-138580762D02*
X116680953Y-138628381D01*
X116490476Y-138628381D01*
X116395238Y-138580762D01*
X116347619Y-138533143D01*
X116300000Y-138437905D01*
X116300000Y-138152190D01*
X116347619Y-138056952D01*
X116395238Y-138009333D01*
X116490476Y-137961714D01*
X116680953Y-137961714D01*
X116776191Y-138009333D01*
D12*
X138330940Y-107088940D02*
X138529060Y-107088940D01*
X138529060Y-107088940D02*
X138529060Y-107287060D01*
X138330940Y-107287060D02*
X138529060Y-107287060D01*
X138330940Y-107088940D02*
X138330940Y-107287060D01*
X138879580Y-106489500D02*
X139227560Y-106489500D01*
X139227560Y-106489500D02*
X139227560Y-106738420D01*
X138879580Y-106738420D02*
X139227560Y-106738420D01*
X138879580Y-106489500D02*
X138879580Y-106738420D01*
X139227560Y-106489500D02*
X139329160Y-106489500D01*
X139329160Y-106489500D02*
X139329160Y-107685840D01*
X139227560Y-107685840D02*
X139329160Y-107685840D01*
X139227560Y-106489500D02*
X139227560Y-107685840D01*
X139227560Y-107736640D02*
X139329160Y-107736640D01*
X139329160Y-107736640D02*
X139329160Y-107886500D01*
X139227560Y-107886500D02*
X139329160Y-107886500D01*
X139227560Y-107736640D02*
X139227560Y-107886500D01*
X137530840Y-106489500D02*
X137632440Y-106489500D01*
X137632440Y-106489500D02*
X137632440Y-107685840D01*
X137530840Y-107685840D02*
X137632440Y-107685840D01*
X137530840Y-106489500D02*
X137530840Y-107685840D01*
X137530840Y-107736640D02*
X137632440Y-107736640D01*
X137632440Y-107736640D02*
X137632440Y-107886500D01*
X137530840Y-107886500D02*
X137632440Y-107886500D01*
X137530840Y-107736640D02*
X137530840Y-107886500D01*
X138879580Y-106489500D02*
X139029440Y-106489500D01*
X139029440Y-106489500D02*
X139029440Y-106738420D01*
X138879580Y-106738420D02*
X139029440Y-106738420D01*
X138879580Y-106489500D02*
X138879580Y-106738420D01*
X139979400Y-106438700D02*
X136880600Y-106438700D01*
X136880600Y-106438700D02*
X136880600Y-107937300D01*
X136880600Y-107937300D02*
X139979400Y-107937300D01*
X139979400Y-107937300D02*
X139979400Y-106438700D01*
X137882738Y-106688646D02*
G75*
G02X138978640Y-106690160I547262J-499354D01*
G01*
X137881867Y-107686398D02*
G75*
G02X137881360Y-106690160I548133J498398D01*
G01*
X138977262Y-107687354D02*
G75*
G02X137881360Y-107685840I-547262J499354D01*
G01*
X138978133Y-106689602D02*
G75*
G02X138978640Y-107685840I-548133J-498398D01*
G01*
X134089000Y-139120000D02*
X121389000Y-139120000D01*
X121389000Y-139120000D02*
X121389000Y-136580000D01*
X121389000Y-136580000D02*
X134089000Y-136580000D01*
X136909000Y-139400000D02*
X135359000Y-139400000D01*
X134089000Y-139120000D02*
X134089000Y-136580000D01*
X135359000Y-136300000D02*
X136909000Y-136300000D01*
X136909000Y-136300000D02*
X136909000Y-139400000D01*
X118292880Y-109059980D02*
X118292880Y-103858060D01*
X115895120Y-103858060D02*
X115895120Y-109059980D01*
X114795300Y-111058960D02*
X115895120Y-111058960D01*
X115295680Y-111658400D02*
X115295680Y-110459520D01*
X115895120Y-110454440D02*
X118292880Y-110454440D01*
X132008880Y-108772960D02*
X132008880Y-103571040D01*
X129611120Y-103571040D02*
X129611120Y-108772960D01*
X128511300Y-110771940D02*
X129611120Y-110771940D01*
X129011680Y-111371380D02*
X129011680Y-110172500D01*
X129611120Y-110167420D02*
X132008880Y-110167420D01*
X133087000Y-105172000D02*
X133087000Y-107172000D01*
X135137000Y-107172000D02*
X135137000Y-105172000D01*
X117593000Y-134382000D02*
X117593000Y-136382000D01*
X119643000Y-136382000D02*
X119643000Y-134382000D01*
X123934000Y-132600000D02*
X123934000Y-134600000D01*
X121784000Y-134600000D02*
X121784000Y-132600000D01*
X122047000Y-102743000D02*
X118999000Y-102743000D01*
X118999000Y-102743000D02*
X118999000Y-109855000D01*
X118999000Y-109855000D02*
X122047000Y-109855000D01*
X125095000Y-102743000D02*
X125857000Y-102743000D01*
X125857000Y-102743000D02*
X128143000Y-104267000D01*
X128143000Y-104267000D02*
X128143000Y-108331000D01*
X128143000Y-108331000D02*
X125857000Y-109855000D01*
X125857000Y-109855000D02*
X125095000Y-109855000D01*
X134914000Y-114522000D02*
X139914000Y-114522000D01*
X139914000Y-114522000D02*
X139914000Y-116522000D01*
X139914000Y-116522000D02*
X134914000Y-116522000D01*
X134914000Y-116522000D02*
X134914000Y-119522000D01*
X134914000Y-119522000D02*
X139914000Y-119522000D01*
X139914000Y-119522000D02*
X139914000Y-121522000D01*
X139914000Y-121522000D02*
X134914000Y-121522000D01*
X134914000Y-121522000D02*
X134914000Y-123522000D01*
X134914000Y-123522000D02*
X139914000Y-123522000D01*
X139914000Y-123522000D02*
X139914000Y-126522000D01*
X116914000Y-112522000D02*
X116914000Y-128522000D01*
X116914000Y-128522000D02*
X140914000Y-128522000D01*
X140914000Y-128522000D02*
X140914000Y-112522000D01*
X140914000Y-112522000D02*
X116914000Y-112522000D01*
X137430000Y-103573000D02*
X139430000Y-103573000D01*
X139430000Y-105723000D02*
X137430000Y-105723000D01*
X139742220Y-133126110D02*
X139742220Y-135626110D01*
X139742220Y-135626110D02*
X138642220Y-135626110D01*
X138642220Y-135626110D02*
X138642220Y-133126110D01*
X138642220Y-133126110D02*
X139742220Y-133126110D01*
X138392220Y-132876110D02*
X138392220Y-135876110D01*
X139992220Y-132876110D02*
X139992220Y-135876110D01*
X139992220Y-135876110D02*
X138392220Y-135876110D01*
X139992220Y-132876110D02*
X138392220Y-132876110D01*
X137442220Y-131376110D02*
X137442220Y-137376110D01*
X141092000Y-131066000D02*
X141092000Y-137066000D01*
X129934000Y-132600000D02*
X129934000Y-134600000D01*
X127784000Y-134600000D02*
X127784000Y-132600000D01*
X132934000Y-132600000D02*
X132934000Y-134600000D01*
X130784000Y-134600000D02*
X130784000Y-132600000D01*
X124784000Y-134600000D02*
X124784000Y-132600000D01*
X126934000Y-132600000D02*
X126934000Y-134600000D01*
X137542045Y-109418381D02*
X137542045Y-108418381D01*
X137780140Y-108418381D01*
X137922998Y-108466000D01*
X138018236Y-108561238D01*
X138065855Y-108656476D01*
X138113474Y-108846952D01*
X138113474Y-108989810D01*
X138065855Y-109180286D01*
X138018236Y-109275524D01*
X137922998Y-109370762D01*
X137780140Y-109418381D01*
X137542045Y-109418381D01*
X139065855Y-109418381D02*
X138494426Y-109418381D01*
X138780140Y-109418381D02*
X138780140Y-108418381D01*
X138684902Y-108561238D01*
X138589664Y-108656476D01*
X138494426Y-108704095D01*
X118514905Y-140152381D02*
X118514905Y-139152381D01*
X118895858Y-139152381D01*
X118991096Y-139200000D01*
X119038715Y-139247619D01*
X119086334Y-139342857D01*
X119086334Y-139485714D01*
X119038715Y-139580952D01*
X118991096Y-139628571D01*
X118895858Y-139676190D01*
X118514905Y-139676190D01*
X120038715Y-140152381D02*
X119467286Y-140152381D01*
X119753000Y-140152381D02*
X119753000Y-139152381D01*
X119657762Y-139295238D01*
X119562524Y-139390476D01*
X119467286Y-139438095D01*
X114895334Y-103227143D02*
X114847715Y-103274762D01*
X114704858Y-103322381D01*
X114609620Y-103322381D01*
X114466762Y-103274762D01*
X114371524Y-103179524D01*
X114323905Y-103084286D01*
X114276286Y-102893810D01*
X114276286Y-102750952D01*
X114323905Y-102560476D01*
X114371524Y-102465238D01*
X114466762Y-102370000D01*
X114609620Y-102322381D01*
X114704858Y-102322381D01*
X114847715Y-102370000D01*
X114895334Y-102417619D01*
X115847715Y-103322381D02*
X115276286Y-103322381D01*
X115562000Y-103322381D02*
X115562000Y-102322381D01*
X115466762Y-102465238D01*
X115371524Y-102560476D01*
X115276286Y-102608095D01*
X136520229Y-109042152D02*
X136520229Y-108280247D01*
X136901181Y-108661199D02*
X136139276Y-108661199D01*
X132421334Y-102719143D02*
X132373715Y-102766762D01*
X132230858Y-102814381D01*
X132135620Y-102814381D01*
X131992762Y-102766762D01*
X131897524Y-102671524D01*
X131849905Y-102576286D01*
X131802286Y-102385810D01*
X131802286Y-102242952D01*
X131849905Y-102052476D01*
X131897524Y-101957238D01*
X131992762Y-101862000D01*
X132135620Y-101814381D01*
X132230858Y-101814381D01*
X132373715Y-101862000D01*
X132421334Y-101909619D01*
X132802286Y-101909619D02*
X132849905Y-101862000D01*
X132945143Y-101814381D01*
X133183239Y-101814381D01*
X133278477Y-101862000D01*
X133326096Y-101909619D01*
X133373715Y-102004857D01*
X133373715Y-102100095D01*
X133326096Y-102242952D01*
X132754667Y-102814381D01*
X133373715Y-102814381D01*
X118435429Y-110083552D02*
X118435429Y-109321647D01*
X118816381Y-109702599D02*
X118054476Y-109702599D01*
X134199334Y-110593143D02*
X134151715Y-110640762D01*
X134008858Y-110688381D01*
X133913620Y-110688381D01*
X133770762Y-110640762D01*
X133675524Y-110545524D01*
X133627905Y-110450286D01*
X133580286Y-110259810D01*
X133580286Y-110116952D01*
X133627905Y-109926476D01*
X133675524Y-109831238D01*
X133770762Y-109736000D01*
X133913620Y-109688381D01*
X134008858Y-109688381D01*
X134151715Y-109736000D01*
X134199334Y-109783619D01*
X134532667Y-109688381D02*
X135151715Y-109688381D01*
X134818381Y-110069333D01*
X134961239Y-110069333D01*
X135056477Y-110116952D01*
X135104096Y-110164571D01*
X135151715Y-110259810D01*
X135151715Y-110497905D01*
X135104096Y-110593143D01*
X135056477Y-110640762D01*
X134961239Y-110688381D01*
X134675524Y-110688381D01*
X134580286Y-110640762D01*
X134532667Y-110593143D01*
X117959143Y-131230666D02*
X118006762Y-131278285D01*
X118054381Y-131421142D01*
X118054381Y-131516380D01*
X118006762Y-131659238D01*
X117911524Y-131754476D01*
X117816286Y-131802095D01*
X117625810Y-131849714D01*
X117482952Y-131849714D01*
X117292476Y-131802095D01*
X117197238Y-131754476D01*
X117102000Y-131659238D01*
X117054381Y-131516380D01*
X117054381Y-131421142D01*
X117102000Y-131278285D01*
X117149619Y-131230666D01*
X117387714Y-130373523D02*
X118054381Y-130373523D01*
X117006762Y-130611619D02*
X117721048Y-130849714D01*
X117721048Y-130230666D01*
X123202381Y-133666666D02*
X122726190Y-134000000D01*
X123202381Y-134238095D02*
X122202381Y-134238095D01*
X122202381Y-133857142D01*
X122250000Y-133761904D01*
X122297619Y-133714285D01*
X122392857Y-133666666D01*
X122535714Y-133666666D01*
X122630952Y-133714285D01*
X122678571Y-133761904D01*
X122726190Y-133857142D01*
X122726190Y-134238095D01*
X123202381Y-132714285D02*
X123202381Y-133285714D01*
X123202381Y-133000000D02*
X122202381Y-133000000D01*
X122345238Y-133095238D01*
X122440476Y-133190476D01*
X122488095Y-133285714D01*
X127762095Y-102322381D02*
X127762095Y-103131905D01*
X127809714Y-103227143D01*
X127857333Y-103274762D01*
X127952571Y-103322381D01*
X128143048Y-103322381D01*
X128238286Y-103274762D01*
X128285905Y-103227143D01*
X128333524Y-103131905D01*
X128333524Y-102322381D01*
X129333524Y-103322381D02*
X128762095Y-103322381D01*
X129047809Y-103322381D02*
X129047809Y-102322381D01*
X128952571Y-102465238D01*
X128857333Y-102560476D01*
X128762095Y-102608095D01*
X135096572Y-111910762D02*
X135001334Y-111958381D01*
X134810857Y-111958381D01*
X134715619Y-111910762D01*
X134668000Y-111815524D01*
X134668000Y-111434571D01*
X134715619Y-111339333D01*
X134810857Y-111291714D01*
X135001334Y-111291714D01*
X135096572Y-111339333D01*
X135144191Y-111434571D01*
X135144191Y-111529810D01*
X134668000Y-111625048D01*
X135525143Y-111910762D02*
X135620381Y-111958381D01*
X135810857Y-111958381D01*
X135906096Y-111910762D01*
X135953715Y-111815524D01*
X135953715Y-111767905D01*
X135906096Y-111672667D01*
X135810857Y-111625048D01*
X135668000Y-111625048D01*
X135572762Y-111577429D01*
X135525143Y-111482190D01*
X135525143Y-111434571D01*
X135572762Y-111339333D01*
X135668000Y-111291714D01*
X135810857Y-111291714D01*
X135906096Y-111339333D01*
X136382286Y-111291714D02*
X136382286Y-112291714D01*
X136382286Y-111339333D02*
X136477524Y-111291714D01*
X136668001Y-111291714D01*
X136763239Y-111339333D01*
X136810858Y-111386952D01*
X136858477Y-111482190D01*
X136858477Y-111767905D01*
X136810858Y-111863143D01*
X136763239Y-111910762D01*
X136668001Y-111958381D01*
X136477524Y-111958381D01*
X136382286Y-111910762D01*
X137429905Y-111386952D02*
X137334667Y-111339333D01*
X137287048Y-111291714D01*
X137239429Y-111196476D01*
X137239429Y-111148857D01*
X137287048Y-111053619D01*
X137334667Y-111006000D01*
X137429905Y-110958381D01*
X137620382Y-110958381D01*
X137715620Y-111006000D01*
X137763239Y-111053619D01*
X137810858Y-111148857D01*
X137810858Y-111196476D01*
X137763239Y-111291714D01*
X137715620Y-111339333D01*
X137620382Y-111386952D01*
X137429905Y-111386952D01*
X137334667Y-111434571D01*
X137287048Y-111482190D01*
X137239429Y-111577429D01*
X137239429Y-111767905D01*
X137287048Y-111863143D01*
X137334667Y-111910762D01*
X137429905Y-111958381D01*
X137620382Y-111958381D01*
X137715620Y-111910762D01*
X137763239Y-111863143D01*
X137810858Y-111767905D01*
X137810858Y-111577429D01*
X137763239Y-111482190D01*
X137715620Y-111434571D01*
X137620382Y-111386952D01*
X138191810Y-111053619D02*
X138239429Y-111006000D01*
X138334667Y-110958381D01*
X138572763Y-110958381D01*
X138668001Y-111006000D01*
X138715620Y-111053619D01*
X138763239Y-111148857D01*
X138763239Y-111244095D01*
X138715620Y-111386952D01*
X138144191Y-111958381D01*
X138763239Y-111958381D01*
X139620382Y-110958381D02*
X139429905Y-110958381D01*
X139334667Y-111006000D01*
X139287048Y-111053619D01*
X139191810Y-111196476D01*
X139144191Y-111386952D01*
X139144191Y-111767905D01*
X139191810Y-111863143D01*
X139239429Y-111910762D01*
X139334667Y-111958381D01*
X139525144Y-111958381D01*
X139620382Y-111910762D01*
X139668001Y-111863143D01*
X139715620Y-111767905D01*
X139715620Y-111529810D01*
X139668001Y-111434571D01*
X139620382Y-111386952D01*
X139525144Y-111339333D01*
X139334667Y-111339333D01*
X139239429Y-111386952D01*
X139191810Y-111434571D01*
X139144191Y-111529810D01*
X140572763Y-110958381D02*
X140382286Y-110958381D01*
X140287048Y-111006000D01*
X140239429Y-111053619D01*
X140144191Y-111196476D01*
X140096572Y-111386952D01*
X140096572Y-111767905D01*
X140144191Y-111863143D01*
X140191810Y-111910762D01*
X140287048Y-111958381D01*
X140477525Y-111958381D01*
X140572763Y-111910762D01*
X140620382Y-111863143D01*
X140668001Y-111767905D01*
X140668001Y-111529810D01*
X140620382Y-111434571D01*
X140572763Y-111386952D01*
X140477525Y-111339333D01*
X140287048Y-111339333D01*
X140191810Y-111386952D01*
X140144191Y-111434571D01*
X140096572Y-111529810D01*
X138263334Y-103068381D02*
X137930000Y-102592190D01*
X137691905Y-103068381D02*
X137691905Y-102068381D01*
X138072858Y-102068381D01*
X138168096Y-102116000D01*
X138215715Y-102163619D01*
X138263334Y-102258857D01*
X138263334Y-102401714D01*
X138215715Y-102496952D01*
X138168096Y-102544571D01*
X138072858Y-102592190D01*
X137691905Y-102592190D01*
X138596667Y-102068381D02*
X139215715Y-102068381D01*
X138882381Y-102449333D01*
X139025239Y-102449333D01*
X139120477Y-102496952D01*
X139168096Y-102544571D01*
X139215715Y-102639810D01*
X139215715Y-102877905D01*
X139168096Y-102973143D01*
X139120477Y-103020762D01*
X139025239Y-103068381D01*
X138739524Y-103068381D01*
X138644286Y-103020762D01*
X138596667Y-102973143D01*
X136654762Y-134333333D02*
X136702381Y-134190476D01*
X136702381Y-133952380D01*
X136654762Y-133857142D01*
X136607143Y-133809523D01*
X136511905Y-133761904D01*
X136416667Y-133761904D01*
X136321429Y-133809523D01*
X136273810Y-133857142D01*
X136226190Y-133952380D01*
X136178571Y-134142857D01*
X136130952Y-134238095D01*
X136083333Y-134285714D01*
X135988095Y-134333333D01*
X135892857Y-134333333D01*
X135797619Y-134285714D01*
X135750000Y-134238095D01*
X135702381Y-134142857D01*
X135702381Y-133904761D01*
X135750000Y-133761904D01*
X135702381Y-133428571D02*
X136702381Y-133190476D01*
X135988095Y-132999999D01*
X136702381Y-132809523D01*
X135702381Y-132571428D01*
X136702381Y-131666666D02*
X136702381Y-132238095D01*
X136702381Y-131952381D02*
X135702381Y-131952381D01*
X135845238Y-132047619D01*
X135940476Y-132142857D01*
X135988095Y-132238095D01*
X126436381Y-133643666D02*
X125960190Y-133977000D01*
X126436381Y-134215095D02*
X125436381Y-134215095D01*
X125436381Y-133834142D01*
X125484000Y-133738904D01*
X125531619Y-133691285D01*
X125626857Y-133643666D01*
X125769714Y-133643666D01*
X125864952Y-133691285D01*
X125912571Y-133738904D01*
X125960190Y-133834142D01*
X125960190Y-134215095D01*
X125769714Y-132786523D02*
X126436381Y-132786523D01*
X125388762Y-133024619D02*
X126103048Y-133262714D01*
X126103048Y-132643666D01*
X132405381Y-133770666D02*
X131929190Y-134104000D01*
X132405381Y-134342095D02*
X131405381Y-134342095D01*
X131405381Y-133961142D01*
X131453000Y-133865904D01*
X131500619Y-133818285D01*
X131595857Y-133770666D01*
X131738714Y-133770666D01*
X131833952Y-133818285D01*
X131881571Y-133865904D01*
X131929190Y-133961142D01*
X131929190Y-134342095D01*
X131405381Y-132865904D02*
X131405381Y-133342095D01*
X131881571Y-133389714D01*
X131833952Y-133342095D01*
X131786333Y-133246857D01*
X131786333Y-133008761D01*
X131833952Y-132913523D01*
X131881571Y-132865904D01*
X131976810Y-132818285D01*
X132214905Y-132818285D01*
X132310143Y-132865904D01*
X132357762Y-132913523D01*
X132405381Y-133008761D01*
X132405381Y-133246857D01*
X132357762Y-133342095D01*
X132310143Y-133389714D01*
X129357381Y-133770666D02*
X128881190Y-134104000D01*
X129357381Y-134342095D02*
X128357381Y-134342095D01*
X128357381Y-133961142D01*
X128405000Y-133865904D01*
X128452619Y-133818285D01*
X128547857Y-133770666D01*
X128690714Y-133770666D01*
X128785952Y-133818285D01*
X128833571Y-133865904D01*
X128881190Y-133961142D01*
X128881190Y-134342095D01*
X128357381Y-132913523D02*
X128357381Y-133104000D01*
X128405000Y-133199238D01*
X128452619Y-133246857D01*
X128595476Y-133342095D01*
X128785952Y-133389714D01*
X129166905Y-133389714D01*
X129262143Y-133342095D01*
X129309762Y-133294476D01*
X129357381Y-133199238D01*
X129357381Y-133008761D01*
X129309762Y-132913523D01*
X129262143Y-132865904D01*
X129166905Y-132818285D01*
X128928810Y-132818285D01*
X128833571Y-132865904D01*
X128785952Y-132913523D01*
X128738333Y-133008761D01*
X128738333Y-133199238D01*
X128785952Y-133294476D01*
X128833571Y-133342095D01*
X128928810Y-133389714D01*
M02*
