G04 #@! TF.FileFunction,Soldermask,Top*
%FSLAX46Y46*%
G04 Gerber Fmt 4.6, Leading zero omitted, Abs format (unit mm)*
G04 Created by KiCad (PCBNEW 4.1.0-alpha+201607250104+6992~46~ubuntu14.04.1-product) date Sat Aug 13 20:54:48 2016*
%MOMM*%
%LPD*%
G01*
G04 APERTURE LIST*
%ADD10C,0.100000*%
%ADD11R,1.597660X1.800860*%
%ADD12R,1.727200X2.032000*%
%ADD13O,1.727200X2.032000*%
%ADD14R,2.032000X1.727200*%
%ADD15O,2.032000X1.727200*%
%ADD16R,1.501140X2.999740*%
%ADD17R,1.600000X2.000000*%
%ADD18R,1.700000X0.900000*%
%ADD19R,2.032000X3.657600*%
%ADD20R,2.032000X1.016000*%
%ADD21O,1.524000X3.000000*%
%ADD22R,0.900000X1.700000*%
%ADD23R,1.600000X2.180000*%
G04 APERTURE END LIST*
D10*
D11*
X137010140Y-107188000D03*
X139849860Y-107188000D03*
D12*
X135359000Y-137850000D03*
D13*
X132819000Y-137850000D03*
X130279000Y-137850000D03*
X127739000Y-137850000D03*
X125199000Y-137850000D03*
X122659000Y-137850000D03*
D14*
X112395000Y-105410000D03*
D15*
X112395000Y-107950000D03*
X112395000Y-110490000D03*
X112395000Y-113030000D03*
X112395000Y-115570000D03*
X112395000Y-118110000D03*
X112395000Y-120650000D03*
X112395000Y-123190000D03*
X112395000Y-125730000D03*
X112395000Y-128270000D03*
X112395000Y-130810000D03*
X112395000Y-133350000D03*
X112395000Y-135890000D03*
X112395000Y-138430000D03*
D16*
X117094000Y-104460040D03*
X117094000Y-108458000D03*
X130810000Y-104173020D03*
X130810000Y-108170980D03*
D17*
X134112000Y-108172000D03*
X134112000Y-104172000D03*
X118618000Y-137382000D03*
X118618000Y-133382000D03*
D18*
X122859000Y-135050000D03*
X122859000Y-132150000D03*
D19*
X126873000Y-106299000D03*
D20*
X120269000Y-106299000D03*
X120269000Y-108585000D03*
X120269000Y-104013000D03*
D21*
X118714000Y-112522000D03*
X120714000Y-112522000D03*
X122714000Y-112522000D03*
X124714000Y-112522000D03*
X126714000Y-112522000D03*
X128714000Y-112522000D03*
X130714000Y-112522000D03*
X132714000Y-112522000D03*
X118714000Y-128522000D03*
X120714000Y-128522000D03*
X122714000Y-128522000D03*
X124714000Y-128522000D03*
X126714000Y-128522000D03*
X128714000Y-128522000D03*
X130714000Y-128522000D03*
X132714000Y-128522000D03*
D22*
X139880000Y-104648000D03*
X136980000Y-104648000D03*
D23*
X139194320Y-131466000D03*
X139189680Y-137266000D03*
D18*
X128859000Y-135050000D03*
X128859000Y-132150000D03*
X131859000Y-135050000D03*
X131859000Y-132150000D03*
X125859000Y-132150000D03*
X125859000Y-135050000D03*
M02*
