M48
;DRILL file {KiCad (2015-06-25 BZR 5821)-product} date Tue 19 Apr 2016 11:41:26 CEST
;FORMAT={-:-/ absolute / metric / decimal}
FMAT,2
METRIC,TZ
T1C0.400
T2C0.800
T3C1.016
%
G90
G05
M71
T1
X116.859Y-137.35
X118.359Y-131.35
X119.328Y-126.457
X121.018Y-131.6
X121.793Y-126.111
X123.571Y-124.079
X123.571Y-125.349
X124.391Y-123.513
X125.859Y-116.6
X128.905Y-126.111
X129.109Y-131.1
X129.859Y-130.35
X131.699Y-115.189
X132.521Y-124.438
X136.779Y-131.445
T2
X117.359Y-114.6
T3
X112.395Y-105.41
X112.395Y-107.95
X112.395Y-110.49
X112.395Y-113.03
X112.395Y-115.57
X112.395Y-118.11
X112.395Y-120.65
X112.395Y-123.19
X112.395Y-125.73
X112.395Y-128.27
X112.395Y-130.81
X112.395Y-133.35
X112.395Y-135.89
X112.395Y-138.43
X122.659Y-137.85
X125.199Y-137.85
X127.739Y-137.85
X130.279Y-137.85
X132.819Y-137.85
X135.359Y-137.85
T0
M30
