G04 #@! TF.FileFunction,Legend,Bot*
%FSLAX46Y46*%
G04 Gerber Fmt 4.6, Leading zero omitted, Abs format (unit mm)*
G04 Created by KiCad (PCBNEW (2015-06-25 BZR 5821)-product) date Tue 19 Apr 2016 11:43:48 CEST*
%MOMM*%
G01*
G04 APERTURE LIST*
%ADD10C,0.100000*%
%ADD11C,0.200000*%
%ADD12C,0.150000*%
G04 APERTURE END LIST*
D10*
X139195500Y-103457907D02*
X139406230Y-103585675D01*
X139494450Y-105165430D02*
X139417030Y-105062230D01*
X139417030Y-105062230D02*
X139334780Y-104974830D01*
X138771460Y-104809530D02*
X138737450Y-104809900D01*
X139132030Y-104852600D02*
X138999600Y-104820480D01*
X138838520Y-104809530D02*
X138771460Y-104809530D01*
X138999600Y-104820480D02*
X138838520Y-104809530D01*
X139241780Y-104904530D02*
X139132030Y-104852600D01*
X139334780Y-104974830D02*
X139241780Y-104904530D01*
X138544310Y-104826180D02*
X138535130Y-104825210D01*
X138360660Y-104955960D02*
X138309340Y-105010210D01*
X138396090Y-104889440D02*
X138360660Y-104955960D01*
X138412360Y-104813710D02*
X138396090Y-104889440D01*
X138508880Y-104822600D02*
X138467320Y-104818690D01*
X138467320Y-104818690D02*
X138412360Y-104813710D01*
X138535130Y-104825210D02*
X138508880Y-104822600D01*
X137467210Y-106679320D02*
X138544310Y-106679320D01*
X138544310Y-104826180D02*
X138544310Y-104826180D01*
X138244990Y-105292870D02*
X137578320Y-105959540D01*
X138544310Y-106492850D02*
X138544310Y-104826180D01*
X138309340Y-105010210D02*
X138244990Y-105049110D01*
X138244990Y-105049110D02*
X138244990Y-105292870D01*
X137467210Y-106492850D02*
X138544310Y-106492850D01*
X139499270Y-105665100D02*
X139510930Y-105585190D01*
X139521140Y-105773230D02*
X139499270Y-105665100D01*
X137980670Y-104829050D02*
X137996610Y-104858460D01*
X138283720Y-104858460D02*
X138299610Y-104829050D01*
X138072890Y-104921070D02*
X138105390Y-104931170D01*
X138175160Y-104931170D02*
X138207660Y-104921070D01*
X138207660Y-104921070D02*
X138237020Y-104905180D01*
X138262610Y-104884070D02*
X138283720Y-104858460D01*
X138237020Y-104905180D02*
X138262610Y-104884070D01*
X135076475Y-108158110D02*
X135113150Y-108216260D01*
X134983539Y-108900350D02*
X134855771Y-108689620D01*
X135130403Y-109097010D02*
X134983539Y-108900350D01*
X135295171Y-109278330D02*
X135130403Y-109097010D01*
X135169519Y-108255540D02*
X135234243Y-108269710D01*
X135673150Y-109589960D02*
X135476486Y-109443100D01*
X136107450Y-109825100D02*
X135883870Y-109717720D01*
X138244990Y-107879290D02*
X137578320Y-107212620D01*
X135065299Y-108092680D02*
X135076475Y-108158110D01*
X134548100Y-107469300D02*
X134548100Y-105706390D01*
X134599858Y-107985680D02*
X134561284Y-107731350D01*
X134662683Y-108231030D02*
X134599858Y-107985680D01*
X134855771Y-108689620D02*
X134748404Y-108466040D01*
X134561284Y-107731350D02*
X134548100Y-107469300D01*
X134748404Y-108466040D02*
X134662683Y-108231030D01*
X137200560Y-107879290D02*
X137000520Y-107679320D01*
X135299565Y-108258530D02*
X135357617Y-108221790D01*
X135113150Y-108216260D02*
X135169519Y-108255540D01*
X135411110Y-108102000D02*
X135838190Y-107694010D01*
X135396679Y-108166080D02*
X135411110Y-108102000D01*
X135357617Y-108221790D02*
X135396679Y-108166080D01*
X135118737Y-107971470D02*
X135079458Y-108027850D01*
X135079458Y-108027850D02*
X135065299Y-108092680D01*
X135883870Y-109717720D02*
X135673150Y-109589960D01*
X134548100Y-105706390D02*
X134561284Y-105444290D01*
X135476486Y-109443100D02*
X135295171Y-109278330D01*
X135234243Y-108269710D02*
X135299565Y-108258530D01*
X138971930Y-103350540D02*
X139195500Y-103457907D01*
X137975130Y-103150290D02*
X138237230Y-103163419D01*
X138247920Y-104036032D02*
X138284490Y-103981344D01*
X138491570Y-103201994D02*
X138736910Y-103264819D01*
X138237230Y-103163419D02*
X138491570Y-103201994D01*
X138736910Y-103264819D02*
X138971930Y-103350540D01*
X138297880Y-103914504D02*
X138294410Y-103879565D01*
X138284490Y-103981344D02*
X138297880Y-103914504D01*
X138294410Y-103879565D02*
X138284270Y-103847068D01*
X138284270Y-103847068D02*
X138268310Y-103817662D01*
X134855771Y-104486010D02*
X134983539Y-104275290D01*
X134983539Y-104275290D02*
X135130403Y-104078621D01*
X134748404Y-104709600D02*
X134855771Y-104486010D01*
X136587810Y-103201994D02*
X136842160Y-103163419D01*
X134599858Y-105189940D02*
X134662683Y-104944610D01*
X134662683Y-104944610D02*
X134748404Y-104709600D01*
X136342480Y-103264819D02*
X136587810Y-103201994D01*
X138295500Y-104685330D02*
X138274930Y-104653110D01*
X138308630Y-104721850D02*
X138295500Y-104685330D01*
X138247920Y-104626300D02*
X138247920Y-104036032D01*
X138274930Y-104653110D02*
X138247920Y-104626300D01*
X138313180Y-104761720D02*
X138308630Y-104721850D01*
X138299610Y-104829050D02*
X138309710Y-104796610D01*
X138313180Y-104761720D02*
X138313180Y-104761720D01*
X134561284Y-105444290D02*
X134599858Y-105189940D01*
X137104200Y-103150290D02*
X137975130Y-103150290D01*
X136842160Y-103163419D02*
X137104200Y-103150290D01*
X136575340Y-103807246D02*
X136540450Y-103810718D01*
X136402040Y-103980476D02*
X136407360Y-104022957D01*
X136407360Y-104022957D02*
X136422280Y-104061586D01*
X136107450Y-103350540D02*
X136342480Y-103264819D01*
X136610230Y-103810718D02*
X136575340Y-103807246D01*
X135295171Y-103897307D02*
X135476486Y-103732539D01*
X135883870Y-103457907D02*
X136107450Y-103350540D01*
X135130403Y-104078621D02*
X135295171Y-103897307D01*
X135673150Y-103585675D02*
X135883870Y-103457907D01*
X135476486Y-103732539D02*
X135673150Y-103585675D01*
X135065299Y-105079390D02*
X135079458Y-105144220D01*
X135231639Y-105248330D02*
X135272221Y-105245070D01*
X135076475Y-105013960D02*
X135065299Y-105079390D01*
X135113150Y-104955850D02*
X135076475Y-105013960D01*
X135153135Y-105226190D02*
X135191329Y-105242080D01*
X135118737Y-105200640D02*
X135153135Y-105226190D01*
X135191329Y-105242080D02*
X135231639Y-105248330D01*
X135079458Y-105144220D02*
X135118737Y-105200640D01*
X139512950Y-107734930D02*
X139486420Y-107670210D01*
X139486420Y-107670210D02*
X139477030Y-107598430D01*
X139477030Y-107598430D02*
X139498890Y-107490250D01*
X138544310Y-106679320D02*
X138544310Y-108345980D01*
X138737450Y-104809900D02*
X138737450Y-108365790D01*
X138309710Y-104796610D02*
X138313180Y-104761720D01*
X136217860Y-105017320D02*
X136123890Y-105123000D01*
X136323430Y-104936640D02*
X136322090Y-104937290D01*
X136123890Y-105123000D02*
X136039790Y-105249080D01*
X136419910Y-105069010D02*
X136379320Y-105031800D01*
X136379320Y-105031800D02*
X136346770Y-104987260D01*
X136346770Y-104987260D02*
X136323430Y-104936640D01*
X136322090Y-104937290D02*
X136217860Y-105017320D01*
X137133880Y-105959540D02*
X136833850Y-105659510D01*
X137244990Y-106181760D02*
X136800540Y-106181760D01*
X136800540Y-106181760D02*
X136800540Y-105959540D01*
X136800540Y-105959540D02*
X137133880Y-105959540D01*
X137244990Y-106181760D02*
X137244990Y-106181760D01*
X137911660Y-105959540D02*
X137911660Y-106181760D01*
X137244990Y-106492850D02*
X137244990Y-106181760D01*
X137467210Y-106181760D02*
X137467210Y-106492850D01*
X137911660Y-106181760D02*
X137467210Y-106181760D01*
X137578320Y-105959540D02*
X137911660Y-105959540D01*
X137902160Y-104947760D02*
X137867710Y-104875330D01*
X137356100Y-105848430D02*
X138022770Y-105181760D01*
X138022770Y-105048780D02*
X138022770Y-105048780D01*
X137000520Y-105492850D02*
X137356100Y-105848430D01*
X138022770Y-105181760D02*
X138022770Y-105048780D01*
X138022770Y-105048780D02*
X137955060Y-105006730D01*
X137955060Y-105006730D02*
X137902160Y-104947760D01*
X136760610Y-105064510D02*
X136689430Y-105105690D01*
X136852790Y-104930830D02*
X136816380Y-105004890D01*
X136816380Y-105004890D02*
X136760610Y-105064510D01*
X136467210Y-105097720D02*
X136419910Y-105069010D01*
X136689430Y-105105690D02*
X136689430Y-105181760D01*
X136467210Y-105292870D02*
X136467210Y-105097720D01*
X136689430Y-105181760D02*
X136800540Y-105292870D01*
X136800540Y-105292870D02*
X137200560Y-105292870D01*
X137200560Y-105292870D02*
X137000520Y-105492850D01*
X136645000Y-105848430D02*
X136645000Y-105470650D01*
X136645000Y-105470650D02*
X136467210Y-105292870D01*
X136833850Y-105659510D02*
X136645000Y-105848430D01*
X137357840Y-104768890D02*
X137104030Y-104776910D01*
X137104030Y-104776910D02*
X136861310Y-104796350D01*
X137855770Y-104777250D02*
X137612020Y-104769800D01*
X137855390Y-104793190D02*
X137855770Y-104777250D01*
X137612020Y-104769800D02*
X137357840Y-104768890D01*
X136417350Y-104827690D02*
X136420880Y-104862580D01*
X136861310Y-104796350D02*
X136865810Y-104846360D01*
X136865810Y-104846360D02*
X136852790Y-104930830D01*
X138002310Y-103792000D02*
X137981210Y-103817662D01*
X138089770Y-103744746D02*
X138057320Y-103754891D01*
X138027920Y-103770841D02*
X138002310Y-103792000D01*
X138057320Y-103754891D02*
X138027920Y-103770841D01*
X137965310Y-103847068D02*
X137955230Y-103879565D01*
X137981210Y-103817662D02*
X137965310Y-103847068D01*
X138268310Y-103817662D02*
X138247160Y-103792000D01*
X138247160Y-103792000D02*
X138221490Y-103770841D01*
X138159590Y-103744746D02*
X138124660Y-103741273D01*
X138221490Y-103770841D02*
X138192090Y-103754891D01*
X138192090Y-103754891D02*
X138159590Y-103744746D01*
X138124660Y-103741273D02*
X138089770Y-103744746D01*
X138043430Y-104905180D02*
X138072890Y-104921070D01*
X138105390Y-104931170D02*
X138140280Y-104934690D01*
X138140280Y-104934690D02*
X138175160Y-104931170D01*
X138017770Y-104884070D02*
X138043430Y-104905180D01*
X137971170Y-104724180D02*
X137966990Y-104761720D01*
X137996610Y-104858460D02*
X138017770Y-104884070D01*
X137970520Y-104796610D02*
X137980670Y-104829050D01*
X137867710Y-104875330D02*
X137855390Y-104793190D01*
X137966990Y-104761720D02*
X137970520Y-104796610D01*
X138001450Y-104658600D02*
X137982950Y-104689510D01*
X138025700Y-104632220D02*
X138001450Y-104658600D01*
X138025700Y-104056215D02*
X138025700Y-104632220D01*
X137982950Y-104689510D02*
X137971170Y-104724180D01*
X137995310Y-104029087D02*
X138025700Y-104056215D01*
X137957000Y-103956984D02*
X137971930Y-103995614D01*
X137951700Y-103914504D02*
X137957000Y-103956984D01*
X137971930Y-103995614D02*
X137995310Y-104029087D01*
X137955230Y-103879565D02*
X137951700Y-103914504D01*
X135688510Y-105643030D02*
X135700390Y-105713550D01*
X136034380Y-105645790D02*
X136034380Y-105645790D01*
X136023200Y-105711220D02*
X136034380Y-105645790D01*
X135986420Y-105769370D02*
X136023200Y-105711220D01*
X135700390Y-105713550D02*
X135741620Y-105774970D01*
X136034380Y-105645790D02*
X136020210Y-105580960D01*
X136132460Y-105646330D02*
X136110600Y-105754830D01*
X135741620Y-105774970D02*
X135799780Y-105811640D01*
X135962210Y-105903220D02*
X135853660Y-105925140D01*
X135799780Y-105811640D02*
X135865210Y-105822820D01*
X135776940Y-105914400D02*
X135746990Y-106029530D01*
X135865210Y-105822820D02*
X135930040Y-105808650D01*
X135746990Y-106029530D02*
X135721660Y-106137430D01*
X135980880Y-105524580D02*
X135913440Y-105484500D01*
X136085810Y-105491540D02*
X136120200Y-105564080D01*
X135965140Y-105390420D02*
X136032910Y-105432420D01*
X135913440Y-105484500D02*
X135837810Y-105478100D01*
X136032910Y-105432420D02*
X136085810Y-105491540D01*
X136020210Y-105580960D02*
X135980880Y-105524580D01*
X136110600Y-105754830D02*
X136050810Y-105843430D01*
X135853660Y-105925140D02*
X135776940Y-105914400D01*
X135930040Y-105808650D02*
X135986420Y-105769370D01*
X136050810Y-105843430D02*
X135962210Y-105903220D01*
X135683900Y-106321510D02*
X135671200Y-106392690D01*
X135657150Y-106480860D02*
X135655410Y-106492850D01*
X135721660Y-106137430D02*
X135700660Y-106235640D01*
X135662300Y-106446680D02*
X135657150Y-106480860D01*
X135671200Y-106392690D02*
X135662300Y-106446680D01*
X135700660Y-106235640D02*
X135683900Y-106321510D01*
X136672070Y-103836814D02*
X136642730Y-103820864D01*
X136718780Y-103883634D02*
X136697680Y-103857972D01*
X136734680Y-103913040D02*
X136718780Y-103883634D01*
X136697680Y-103857972D02*
X136672070Y-103836814D01*
X136642730Y-103820864D02*
X136610230Y-103810718D01*
X136748240Y-103980476D02*
X136744770Y-103945537D01*
X136744770Y-103945537D02*
X136734680Y-103913040D01*
X136734840Y-104047316D02*
X136748240Y-103980476D01*
X136725240Y-104719080D02*
X136698230Y-104692280D01*
X136433290Y-104755480D02*
X136421530Y-104790150D01*
X136745850Y-104751300D02*
X136725240Y-104719080D01*
X136421530Y-104790150D02*
X136417350Y-104827690D01*
X136758990Y-104787820D02*
X136745850Y-104751300D01*
X136476000Y-104698190D02*
X136451790Y-104724570D01*
X136431730Y-103883634D02*
X136415720Y-103913040D01*
X136540450Y-103810718D02*
X136507950Y-103820864D01*
X136405570Y-103945537D02*
X136402040Y-103980476D01*
X136507950Y-103820864D02*
X136478540Y-103836814D01*
X136478540Y-103836814D02*
X136452890Y-103857972D01*
X136452890Y-103857972D02*
X136431730Y-103883634D01*
X136415720Y-103913040D02*
X136405570Y-103945537D01*
X136476000Y-104122187D02*
X136476000Y-104698190D01*
X136451790Y-104724570D02*
X136433290Y-104755480D01*
X136422280Y-104061586D02*
X136445610Y-104095059D01*
X136445610Y-104095059D02*
X136476000Y-104122187D01*
X136698230Y-104692280D02*
X136698230Y-104102004D01*
X136698230Y-104102004D02*
X136734840Y-104047316D01*
X136110600Y-107417280D02*
X136050810Y-107328680D01*
X136645000Y-107323730D02*
X136645000Y-107701550D01*
X136800540Y-107212620D02*
X137133880Y-107212620D01*
X136833850Y-107512650D02*
X136645000Y-107323730D01*
X136645000Y-107701550D02*
X136467210Y-107879290D01*
X135272547Y-107927040D02*
X135231911Y-107923680D01*
X135688510Y-107529080D02*
X135272547Y-107927040D01*
X135191492Y-107929910D02*
X135153189Y-107945800D01*
X135700440Y-107458550D02*
X135688510Y-107529080D01*
X135231911Y-107923680D02*
X135191492Y-107929910D01*
X135741620Y-107397140D02*
X135700440Y-107458550D01*
X135153189Y-107945800D02*
X135118737Y-107971470D01*
X136034380Y-107526320D02*
X136034380Y-107526320D01*
X136132460Y-107525830D02*
X136110600Y-107417280D01*
X136034380Y-107526320D02*
X136023200Y-107460830D01*
X136120200Y-107608030D02*
X136132460Y-107525830D01*
X136020210Y-107591150D02*
X136034380Y-107526320D01*
X136085810Y-107680570D02*
X136120200Y-107608030D01*
X135913610Y-107687510D02*
X135980880Y-107647530D01*
X135980880Y-107647530D02*
X136020210Y-107591150D01*
X136032910Y-107739710D02*
X136085810Y-107680570D01*
X135838190Y-107694010D02*
X135913610Y-107687510D01*
X137356100Y-107323730D02*
X138022770Y-107990400D01*
X137578320Y-107212620D02*
X137911660Y-107212620D01*
X137911660Y-107212620D02*
X137911660Y-106990400D01*
X137911660Y-106990400D02*
X137467210Y-106990400D01*
X135930040Y-107363400D02*
X135865210Y-107349230D01*
X136023200Y-107460830D02*
X135986420Y-107402730D01*
X135986420Y-107402730D02*
X135930040Y-107363400D01*
X135799780Y-107360420D02*
X135741620Y-107397140D01*
X135865210Y-107349230D02*
X135799780Y-107360420D01*
X137133880Y-107212620D02*
X136833850Y-107512650D01*
X137244990Y-106990400D02*
X136800540Y-106990400D01*
X137244990Y-106990400D02*
X137244990Y-106990400D01*
X137467210Y-106990400D02*
X137467210Y-106679320D01*
X137000520Y-107679320D02*
X137356100Y-107323730D01*
X137244990Y-106679320D02*
X137244990Y-106990460D01*
X136800540Y-106990400D02*
X136800540Y-107212620D01*
X135655410Y-106679320D02*
X137244990Y-106679320D01*
X137244990Y-106990460D02*
X137244990Y-106990400D01*
X135655410Y-106492850D02*
X137244990Y-106492850D01*
X136446970Y-104924430D02*
X136468130Y-104950040D01*
X136493790Y-104971150D02*
X136523200Y-104987040D01*
X136420880Y-104862580D02*
X136431020Y-104895030D01*
X136555700Y-104997140D02*
X136590590Y-105000670D01*
X136523200Y-104987040D02*
X136555700Y-104997140D01*
X136468130Y-104950040D02*
X136493790Y-104971150D01*
X136431020Y-104895030D02*
X136446970Y-104924430D01*
X136763540Y-104827690D02*
X136763540Y-104827690D01*
X136760070Y-104862580D02*
X136763540Y-104827690D01*
X136749980Y-104895030D02*
X136760070Y-104862580D01*
X136763540Y-104827690D02*
X136758990Y-104787820D01*
X136625520Y-104997140D02*
X136657960Y-104987040D01*
X136590590Y-105000670D02*
X136625520Y-104997140D01*
X136712980Y-104950040D02*
X136734090Y-104924430D01*
X136687360Y-104971150D02*
X136712980Y-104950040D01*
X136734090Y-104924430D02*
X136749980Y-104895030D01*
X136657960Y-104987040D02*
X136687360Y-104971150D01*
X135234243Y-104902350D02*
X135169519Y-104916510D01*
X135169519Y-104916510D02*
X135113150Y-104955850D01*
X135396679Y-105005970D02*
X135357617Y-104950320D01*
X135357617Y-104950320D02*
X135299565Y-104913530D01*
X135299565Y-104913530D02*
X135234243Y-104902350D01*
X135411110Y-105070110D02*
X135396679Y-105005970D01*
X135272221Y-105245070D02*
X135688510Y-105643030D01*
X135837810Y-105478100D02*
X135411110Y-105070110D01*
X136039790Y-105249080D02*
X135965140Y-105390420D01*
X136120200Y-105564080D02*
X136132460Y-105646330D01*
X135700660Y-106936530D02*
X135683900Y-106850600D01*
X135683900Y-106850600D02*
X135671200Y-106779410D01*
X135671200Y-106779410D02*
X135662300Y-106725430D01*
X135657150Y-106691250D02*
X135655410Y-106679320D01*
X135662300Y-106725430D02*
X135657150Y-106691250D01*
X135721660Y-107034680D02*
X135700660Y-106936530D01*
X135962210Y-107268890D02*
X135853660Y-107247030D01*
X136050810Y-107328680D02*
X135962210Y-107268890D01*
X135853660Y-107247030D02*
X135776940Y-107257820D01*
X135746990Y-107142640D02*
X135721660Y-107034680D01*
X135776940Y-107257820D02*
X135746990Y-107142640D01*
X139110060Y-108328460D02*
X139210480Y-108283110D01*
X138737450Y-108365790D02*
X138771460Y-108366110D01*
X139295600Y-108221470D02*
X139371670Y-108144650D01*
X139210480Y-108283110D02*
X139295600Y-108221470D01*
X138988160Y-108356510D02*
X139110060Y-108328460D01*
X138771460Y-108366110D02*
X138838520Y-108366110D01*
X138838520Y-108366110D02*
X138988160Y-108356510D01*
X138412360Y-108358460D02*
X138396090Y-108282720D01*
X138244990Y-108123050D02*
X138244990Y-107879290D01*
X138544310Y-108345980D02*
X138544310Y-108345980D01*
X138467320Y-108353420D02*
X138412360Y-108358460D01*
X138535130Y-108346900D02*
X138508880Y-108349510D01*
X138544310Y-108345980D02*
X138535130Y-108346900D01*
X138508880Y-108349510D02*
X138467320Y-108353420D01*
X139371670Y-108144650D02*
X139444910Y-108053670D01*
X139444910Y-108053670D02*
X139521520Y-107949720D01*
X136758990Y-108384230D02*
X136763540Y-108344410D01*
X136861310Y-108375820D02*
X136865810Y-108325860D01*
X136763540Y-108344410D02*
X136760070Y-108309470D01*
X136763540Y-108344410D02*
X136763540Y-108344410D01*
X137104030Y-108395190D02*
X136861310Y-108375820D01*
X136800540Y-107879290D02*
X137200560Y-107879290D01*
X136865810Y-108325860D02*
X136852790Y-108241330D01*
X137855770Y-108394920D02*
X137612020Y-108402300D01*
X137867710Y-108296830D02*
X137855390Y-108378970D01*
X137612020Y-108402300D02*
X137357840Y-108403220D01*
X137357840Y-108403220D02*
X137104030Y-108395190D01*
X137855390Y-108378970D02*
X137855770Y-108394920D01*
X136467210Y-108074440D02*
X136419910Y-108103140D01*
X136689430Y-108066470D02*
X136689430Y-107990400D01*
X136816380Y-108167280D02*
X136760610Y-108107600D01*
X136467210Y-107879290D02*
X136467210Y-108074440D01*
X136689430Y-107990400D02*
X136800540Y-107879290D01*
X136419910Y-108103140D02*
X136379320Y-108140360D01*
X136760610Y-108107600D02*
X136689430Y-108066470D01*
X136420880Y-108309470D02*
X136417350Y-108344410D01*
X136417350Y-108344410D02*
X136421530Y-108381900D01*
X136446970Y-108247620D02*
X136431020Y-108277030D01*
X136431020Y-108277030D02*
X136420880Y-108309470D01*
X136468130Y-108222010D02*
X136446970Y-108247620D01*
X136346770Y-108184850D02*
X136323430Y-108235580D01*
X136322090Y-108234870D02*
X136217860Y-108154790D01*
X136379320Y-108140360D02*
X136346770Y-108184850D01*
X136217860Y-108154790D02*
X136123890Y-108049160D01*
X136323430Y-108235580D02*
X136322090Y-108234870D01*
X135965140Y-107781750D02*
X136032910Y-107739710D01*
X136039790Y-107923030D02*
X135965140Y-107781750D01*
X136123890Y-108049160D02*
X136039790Y-107923030D01*
X136657960Y-108185010D02*
X136625520Y-108174920D01*
X136555700Y-108174920D02*
X136523200Y-108185010D01*
X136523200Y-108185010D02*
X136493790Y-108200910D01*
X136493790Y-108200910D02*
X136468130Y-108222010D01*
X136590590Y-108171440D02*
X136555700Y-108174920D01*
X136625520Y-108174920D02*
X136590590Y-108171440D01*
X136852790Y-108241330D02*
X136816380Y-108167280D01*
X136687360Y-108200910D02*
X136657960Y-108185010D01*
X136734090Y-108247620D02*
X136712980Y-108222010D01*
X136749980Y-108277030D02*
X136734090Y-108247620D01*
X136712980Y-108222010D02*
X136687360Y-108200910D01*
X136760070Y-108309470D02*
X136749980Y-108277030D01*
X136540450Y-109361330D02*
X136575340Y-109364860D01*
X136575340Y-109364860D02*
X136610230Y-109361330D01*
X136478540Y-109335230D02*
X136507950Y-109351190D01*
X136342480Y-109910820D02*
X136107450Y-109825100D01*
X136507950Y-109351190D02*
X136540450Y-109361330D01*
X136725240Y-108452970D02*
X136745850Y-108420750D01*
X136421530Y-108381900D02*
X136433290Y-108416570D01*
X136433290Y-108416570D02*
X136451790Y-108447480D01*
X136698230Y-108479830D02*
X136725240Y-108452970D01*
X136451790Y-108447480D02*
X136476000Y-108473910D01*
X136745850Y-108420750D02*
X136758990Y-108384230D01*
X137955230Y-109292760D02*
X137965310Y-109325260D01*
X136642730Y-109351190D02*
X136672070Y-109335230D01*
X136610230Y-109361330D02*
X136642730Y-109351190D01*
X137951700Y-109257930D02*
X137955230Y-109292760D01*
X136734680Y-109259010D02*
X136744770Y-109226510D01*
X136748240Y-109191640D02*
X136734840Y-109124730D01*
X136672070Y-109335230D02*
X136697680Y-109314080D01*
X136718780Y-109288420D02*
X136734680Y-109259010D01*
X136744770Y-109226510D02*
X136748240Y-109191640D01*
X136697680Y-109314080D02*
X136718780Y-109288420D01*
X136445610Y-109077000D02*
X136422280Y-109110470D01*
X136734840Y-109124730D02*
X136698230Y-109070110D01*
X136422280Y-109110470D02*
X136407360Y-109149100D01*
X136476000Y-109049920D02*
X136445610Y-109077000D01*
X136698230Y-109070110D02*
X136698230Y-108479830D01*
X136476000Y-108473910D02*
X136476000Y-109049920D01*
X136452890Y-109314080D02*
X136478540Y-109335230D01*
X136431730Y-109288420D02*
X136452890Y-109314080D01*
X136415720Y-109259010D02*
X136431730Y-109288420D01*
X136402040Y-109191640D02*
X136405570Y-109226510D01*
X136405570Y-109226510D02*
X136415720Y-109259010D01*
X136407360Y-109149100D02*
X136402040Y-109191640D01*
X138299610Y-108343280D02*
X138283720Y-108313860D01*
X138309710Y-108375760D02*
X138299610Y-108343280D01*
X138283720Y-108313860D02*
X138262610Y-108288210D01*
X138309340Y-108161900D02*
X138244990Y-108123050D01*
X138396090Y-108282720D02*
X138360660Y-108216150D01*
X138360660Y-108216150D02*
X138309340Y-108161900D01*
X138313180Y-108410710D02*
X138313180Y-108410710D01*
X138274930Y-108519000D02*
X138295500Y-108486870D01*
X138295500Y-108486870D02*
X138308630Y-108450470D01*
X138308630Y-108450470D02*
X138313180Y-108410710D01*
X138313180Y-108410710D02*
X138309710Y-108375760D01*
X137996610Y-108313860D02*
X137980670Y-108343280D01*
X137970520Y-108375760D02*
X137966990Y-108410710D01*
X137966990Y-108410710D02*
X137982950Y-108482710D01*
X137980670Y-108343280D02*
X137970520Y-108375760D01*
X138262610Y-108288210D02*
X138237020Y-108267040D01*
X138237020Y-108267040D02*
X138207660Y-108251040D01*
X138140280Y-108237420D02*
X138105390Y-108240890D01*
X138175160Y-108240890D02*
X138140280Y-108237420D01*
X138207660Y-108251040D02*
X138175160Y-108240890D01*
X138105390Y-108240890D02*
X138072890Y-108251040D01*
X138043430Y-108267040D02*
X138017770Y-108288210D01*
X137902160Y-108224400D02*
X137867710Y-108296830D01*
X138022770Y-107990400D02*
X138022770Y-108123430D01*
X138022770Y-108123430D02*
X138022770Y-108123430D01*
X138072890Y-108251040D02*
X138043430Y-108267040D01*
X137955060Y-108165370D02*
X137902160Y-108224400D01*
X138022770Y-108123430D02*
X137955060Y-108165370D01*
X138017770Y-108288210D02*
X137996610Y-108313860D01*
X139406230Y-109589960D02*
X139195500Y-109717720D01*
X139195500Y-109717720D02*
X138971930Y-109825100D01*
X138971930Y-109825100D02*
X138736910Y-109910820D01*
X138002310Y-109380220D02*
X138027920Y-109401320D01*
X138027920Y-109401320D02*
X138057320Y-109417220D01*
X137981210Y-109354610D02*
X138002310Y-109380220D01*
X138247160Y-109380220D02*
X138268310Y-109354610D01*
X138159590Y-109427300D02*
X138192090Y-109417220D01*
X138057320Y-109417220D02*
X138089770Y-109427300D01*
X138025700Y-109115890D02*
X137995310Y-109143030D01*
X137982950Y-108482710D02*
X138025700Y-108539890D01*
X138025700Y-108539890D02*
X138025700Y-109115890D01*
X137995310Y-109143030D02*
X137971930Y-109176610D01*
X138247920Y-109136080D02*
X138247920Y-108545800D01*
X138247920Y-108545800D02*
X138274930Y-108519000D01*
X138284490Y-109190870D02*
X138247920Y-109136080D01*
X138268310Y-109354610D02*
X138284270Y-109325260D01*
X137965310Y-109325260D02*
X137981210Y-109354610D01*
X138294410Y-109292760D02*
X138297880Y-109257930D01*
X138297880Y-109257930D02*
X138284490Y-109190870D01*
X138284270Y-109325260D02*
X138294410Y-109292760D01*
X137957000Y-109215350D02*
X137951700Y-109257930D01*
X137971930Y-109176610D02*
X137957000Y-109215350D01*
X138192090Y-109417220D02*
X138221490Y-109401320D01*
X138221490Y-109401320D02*
X138247160Y-109380220D01*
X138089770Y-109427300D02*
X138124660Y-109430830D01*
X138124660Y-109430830D02*
X138159590Y-109427300D01*
D11*
X136750001Y-139452381D02*
X136130953Y-139452381D01*
X136464287Y-139833333D01*
X136321429Y-139833333D01*
X136226191Y-139880952D01*
X136178572Y-139928571D01*
X136130953Y-140023810D01*
X136130953Y-140261905D01*
X136178572Y-140357143D01*
X136226191Y-140404762D01*
X136321429Y-140452381D01*
X136607144Y-140452381D01*
X136702382Y-140404762D01*
X136750001Y-140357143D01*
X135702382Y-140357143D02*
X135654763Y-140404762D01*
X135702382Y-140452381D01*
X135750001Y-140404762D01*
X135702382Y-140357143D01*
X135702382Y-140452381D01*
X135321430Y-139452381D02*
X134702382Y-139452381D01*
X135035716Y-139833333D01*
X134892858Y-139833333D01*
X134797620Y-139880952D01*
X134750001Y-139928571D01*
X134702382Y-140023810D01*
X134702382Y-140261905D01*
X134750001Y-140357143D01*
X134797620Y-140404762D01*
X134892858Y-140452381D01*
X135178573Y-140452381D01*
X135273811Y-140404762D01*
X135321430Y-140357143D01*
X134369049Y-139785714D02*
X134130954Y-140452381D01*
X133892858Y-139785714D01*
X132797620Y-140404762D02*
X132702382Y-140452381D01*
X132511906Y-140452381D01*
X132416667Y-140404762D01*
X132369048Y-140309524D01*
X132369048Y-140261905D01*
X132416667Y-140166667D01*
X132511906Y-140119048D01*
X132654763Y-140119048D01*
X132750001Y-140071429D01*
X132797620Y-139976190D01*
X132797620Y-139928571D01*
X132750001Y-139833333D01*
X132654763Y-139785714D01*
X132511906Y-139785714D01*
X132416667Y-139833333D01*
X131559524Y-140404762D02*
X131654762Y-140452381D01*
X131845239Y-140452381D01*
X131940477Y-140404762D01*
X131988096Y-140309524D01*
X131988096Y-139928571D01*
X131940477Y-139833333D01*
X131845239Y-139785714D01*
X131654762Y-139785714D01*
X131559524Y-139833333D01*
X131511905Y-139928571D01*
X131511905Y-140023810D01*
X131988096Y-140119048D01*
X131083334Y-140452381D02*
X131083334Y-139785714D01*
X131083334Y-139976190D02*
X131035715Y-139880952D01*
X130988096Y-139833333D01*
X130892858Y-139785714D01*
X130797619Y-139785714D01*
X130464286Y-140452381D02*
X130464286Y-139785714D01*
X130464286Y-139452381D02*
X130511905Y-139500000D01*
X130464286Y-139547619D01*
X130416667Y-139500000D01*
X130464286Y-139452381D01*
X130464286Y-139547619D01*
X129559524Y-140452381D02*
X129559524Y-139928571D01*
X129607143Y-139833333D01*
X129702381Y-139785714D01*
X129892858Y-139785714D01*
X129988096Y-139833333D01*
X129559524Y-140404762D02*
X129654762Y-140452381D01*
X129892858Y-140452381D01*
X129988096Y-140404762D01*
X130035715Y-140309524D01*
X130035715Y-140214286D01*
X129988096Y-140119048D01*
X129892858Y-140071429D01*
X129654762Y-140071429D01*
X129559524Y-140023810D01*
X128940477Y-140452381D02*
X129035715Y-140404762D01*
X129083334Y-140309524D01*
X129083334Y-139452381D01*
X127369047Y-139785714D02*
X127369047Y-140452381D01*
X127797619Y-139785714D02*
X127797619Y-140309524D01*
X127750000Y-140404762D01*
X127654762Y-140452381D01*
X127511904Y-140452381D01*
X127416666Y-140404762D01*
X127369047Y-140357143D01*
X126940476Y-140404762D02*
X126845238Y-140452381D01*
X126654762Y-140452381D01*
X126559523Y-140404762D01*
X126511904Y-140309524D01*
X126511904Y-140261905D01*
X126559523Y-140166667D01*
X126654762Y-140119048D01*
X126797619Y-140119048D01*
X126892857Y-140071429D01*
X126940476Y-139976190D01*
X126940476Y-139928571D01*
X126892857Y-139833333D01*
X126797619Y-139785714D01*
X126654762Y-139785714D01*
X126559523Y-139833333D01*
X126083333Y-140452381D02*
X126083333Y-139452381D01*
X126083333Y-139833333D02*
X125988095Y-139785714D01*
X125797618Y-139785714D01*
X125702380Y-139833333D01*
X125654761Y-139880952D01*
X125607142Y-139976190D01*
X125607142Y-140261905D01*
X125654761Y-140357143D01*
X125702380Y-140404762D01*
X125797618Y-140452381D01*
X125988095Y-140452381D01*
X126083333Y-140404762D01*
X123988094Y-140404762D02*
X124083332Y-140452381D01*
X124273809Y-140452381D01*
X124369047Y-140404762D01*
X124416666Y-140357143D01*
X124464285Y-140261905D01*
X124464285Y-139976190D01*
X124416666Y-139880952D01*
X124369047Y-139833333D01*
X124273809Y-139785714D01*
X124083332Y-139785714D01*
X123988094Y-139833333D01*
X123130951Y-140452381D02*
X123130951Y-139928571D01*
X123178570Y-139833333D01*
X123273808Y-139785714D01*
X123464285Y-139785714D01*
X123559523Y-139833333D01*
X123130951Y-140404762D02*
X123226189Y-140452381D01*
X123464285Y-140452381D01*
X123559523Y-140404762D01*
X123607142Y-140309524D01*
X123607142Y-140214286D01*
X123559523Y-140119048D01*
X123464285Y-140071429D01*
X123226189Y-140071429D01*
X123130951Y-140023810D01*
X122654761Y-140452381D02*
X122654761Y-139452381D01*
X122654761Y-139833333D02*
X122559523Y-139785714D01*
X122369046Y-139785714D01*
X122273808Y-139833333D01*
X122226189Y-139880952D01*
X122178570Y-139976190D01*
X122178570Y-140261905D01*
X122226189Y-140357143D01*
X122273808Y-140404762D01*
X122369046Y-140452381D01*
X122559523Y-140452381D01*
X122654761Y-140404762D01*
X121607142Y-140452381D02*
X121702380Y-140404762D01*
X121749999Y-140309524D01*
X121749999Y-139452381D01*
X120845236Y-140404762D02*
X120940474Y-140452381D01*
X121130951Y-140452381D01*
X121226189Y-140404762D01*
X121273808Y-140309524D01*
X121273808Y-139928571D01*
X121226189Y-139833333D01*
X121130951Y-139785714D01*
X120940474Y-139785714D01*
X120845236Y-139833333D01*
X120797617Y-139928571D01*
X120797617Y-140023810D01*
X121273808Y-140119048D01*
X133705000Y-123915000D02*
X133705000Y-102415000D01*
X134705000Y-123915000D02*
X133705000Y-123915000D01*
X141205000Y-123915000D02*
X134705000Y-123915000D01*
X141205000Y-102415000D02*
X141205000Y-123915000D01*
X133705000Y-102415000D02*
X141205000Y-102415000D01*
D10*
X139680270Y-107736780D02*
X139654660Y-107715610D01*
X140095850Y-104275290D02*
X140223610Y-104486010D01*
X139865590Y-105928290D02*
X139777040Y-105942870D01*
X140416700Y-104944610D02*
X140479530Y-105189940D01*
X140330980Y-108466040D02*
X140223610Y-108689620D01*
X139580660Y-105861500D02*
X139521140Y-105773230D01*
X139617540Y-107525830D02*
X139633490Y-107496430D01*
X139899450Y-107470820D02*
X139920600Y-107496430D01*
X139777040Y-107420150D02*
X139811930Y-107423620D01*
X139873840Y-107736780D02*
X139844430Y-107752720D01*
X140095850Y-108900350D02*
X139948980Y-109097010D01*
X139799240Y-105833010D02*
X139799240Y-105833010D01*
X139607450Y-107558330D02*
X139617540Y-107525830D01*
X139896030Y-105803390D02*
X139866630Y-105819400D01*
X139846490Y-107336280D02*
X139876230Y-107174920D01*
X138237230Y-110012220D02*
X137975130Y-110025400D01*
X139968890Y-105694780D02*
X139958790Y-105727220D01*
X139811930Y-107423620D02*
X139844430Y-107433710D01*
X139948980Y-109097010D02*
X139784210Y-109278330D01*
X139607610Y-107833830D02*
X139554180Y-107790260D01*
X140479530Y-105189940D02*
X140518100Y-105444290D01*
X139406230Y-103585675D02*
X139602890Y-103732539D01*
X140518100Y-107731350D02*
X140479530Y-107985680D01*
X139676850Y-105537440D02*
X139702500Y-105516330D01*
X139784210Y-109278330D02*
X139602890Y-109443100D01*
X139886420Y-107007440D02*
X139886420Y-106168570D01*
X139950110Y-107593220D02*
X139946640Y-107628100D01*
X139777040Y-107766330D02*
X139777040Y-107766330D01*
X139633490Y-107690000D02*
X139617540Y-107660600D01*
X139709670Y-107433710D02*
X139742170Y-107423620D01*
X139876230Y-107174920D02*
X139886420Y-107007440D01*
X139873840Y-107449660D02*
X139899450Y-107470820D01*
X139676850Y-105782290D02*
X139655740Y-105756620D01*
X139834130Y-105829480D02*
X139799240Y-105833010D01*
X139866630Y-105819400D02*
X139834130Y-105829480D01*
X139958790Y-105592510D02*
X139968890Y-105625010D01*
X139948980Y-104078621D02*
X140095850Y-104275290D01*
X139742170Y-107762820D02*
X139709670Y-107752720D01*
X139764350Y-105829480D02*
X139731910Y-105819400D01*
X139633490Y-107496430D02*
X139654660Y-107470820D01*
X139629640Y-105694780D02*
X139626110Y-105659890D01*
X139602890Y-103732539D02*
X139784210Y-103897307D01*
X139958790Y-105727220D02*
X139942790Y-105756620D01*
X139844430Y-107752720D02*
X139811930Y-107762820D01*
X137975130Y-110025400D02*
X137104200Y-110025400D01*
X139709670Y-107752720D02*
X139680270Y-107736780D01*
X139811930Y-107762820D02*
X139777040Y-107766330D01*
X139920600Y-107496430D02*
X139936560Y-107525830D01*
X139972360Y-105659890D02*
X139968890Y-105694780D01*
X139777040Y-107766330D02*
X139742170Y-107762820D01*
X139899450Y-107715610D02*
X139873840Y-107736780D01*
X139558410Y-107401970D02*
X139646680Y-107342460D01*
X139658610Y-105413690D02*
X139573000Y-105283000D01*
X139844430Y-107433710D02*
X139873840Y-107449660D01*
X139946640Y-107628100D02*
X139936560Y-107660600D01*
X139543660Y-105514390D02*
X139594000Y-105456070D01*
X139942790Y-105756620D02*
X139921680Y-105782290D01*
X139936560Y-107660600D02*
X139920600Y-107690000D01*
X139617540Y-107660600D02*
X139607450Y-107628100D01*
X139936560Y-107525830D02*
X139946640Y-107558330D01*
X139896030Y-105516330D02*
X139921680Y-105537440D01*
X140531230Y-105706390D02*
X140531230Y-105706390D01*
X139920600Y-107690000D02*
X139899450Y-107715610D01*
X139742170Y-107423620D02*
X139777040Y-107420150D01*
X140479530Y-107985680D02*
X140416700Y-108231030D01*
X139866630Y-105500330D02*
X139896030Y-105516330D01*
X140223610Y-104486010D02*
X140330980Y-104709600D01*
X139784210Y-103897307D02*
X139948980Y-104078621D01*
X139639740Y-105592510D02*
X139655740Y-105563110D01*
X139603930Y-107593220D02*
X139607450Y-107558330D01*
X139921680Y-105537440D02*
X139942790Y-105563110D01*
X139921680Y-105782290D02*
X139896030Y-105803390D01*
X139799240Y-105486780D02*
X139834130Y-105490250D01*
X139602890Y-109443100D02*
X139406230Y-109589960D01*
X136842160Y-110012220D02*
X136587810Y-109973640D01*
X139654660Y-107715610D02*
X139633490Y-107690000D01*
X139607450Y-107628100D02*
X139603930Y-107593220D01*
X139668920Y-105921010D02*
X139580660Y-105861500D01*
X139654660Y-107470820D02*
X139680270Y-107449660D01*
X139629640Y-105625010D02*
X139639740Y-105592510D01*
X139754810Y-107320650D02*
X139846490Y-107336280D01*
X139554180Y-107790260D02*
X139512950Y-107734930D01*
X139680270Y-107449660D02*
X139709670Y-107433710D01*
X138736910Y-109910820D02*
X138491570Y-109973640D01*
X140416700Y-108231030D02*
X140330980Y-108466040D01*
X139510930Y-105585190D02*
X139543660Y-105514390D01*
X137104200Y-110025400D02*
X136842160Y-110012220D01*
X136587810Y-109973640D02*
X136342480Y-109910820D01*
X139498890Y-107490250D02*
X139558410Y-107401970D01*
X140531230Y-105706390D02*
X140531230Y-107469300D01*
X139799240Y-105833010D02*
X139764350Y-105829480D01*
X139655740Y-105563110D02*
X139676850Y-105537440D01*
X139777040Y-105942870D02*
X139668920Y-105921010D01*
X139702500Y-105516330D02*
X139731910Y-105500330D01*
X138491570Y-109973640D02*
X138237230Y-110012220D01*
X139968890Y-105625010D02*
X139972360Y-105659890D01*
X139764350Y-105490250D02*
X139799240Y-105486780D01*
X140518100Y-105444290D02*
X140531230Y-105706390D01*
X139886420Y-106168570D02*
X139865590Y-105928290D01*
X139626110Y-105659890D02*
X139629640Y-105625010D01*
X139731910Y-105819400D02*
X139702500Y-105803390D01*
X140223610Y-108689620D02*
X140095850Y-108900350D01*
X139942790Y-105563110D02*
X139958790Y-105592510D01*
X139639740Y-105727220D02*
X139629640Y-105694780D01*
X139731910Y-105500330D02*
X139764350Y-105490250D01*
X139946640Y-107558330D02*
X139950110Y-107593220D01*
X139702500Y-105803390D02*
X139676850Y-105782290D01*
X139886420Y-106168570D02*
X139886420Y-106168570D01*
X139834130Y-105490250D02*
X139866630Y-105500330D01*
X139521520Y-107949720D02*
X139607610Y-107833830D01*
X140330980Y-104709600D02*
X140416700Y-104944610D01*
X139646680Y-107342460D02*
X139754810Y-107320650D01*
X139594000Y-105456070D02*
X139658610Y-105413690D01*
X140531230Y-107469300D02*
X140518100Y-107731350D01*
X139655740Y-105756620D02*
X139639740Y-105727220D01*
X139573000Y-105283000D02*
X139494450Y-105165430D01*
D11*
X138863238Y-122380952D02*
X138815619Y-122476190D01*
X138815619Y-122666667D01*
X138863238Y-122761905D01*
X138958476Y-122809524D01*
X139339429Y-122809524D01*
X139434667Y-122761905D01*
X139482286Y-122666667D01*
X139482286Y-122476190D01*
X139434667Y-122380952D01*
X139339429Y-122333333D01*
X139244190Y-122333333D01*
X139148952Y-122809524D01*
X138863238Y-121952381D02*
X138815619Y-121857143D01*
X138815619Y-121666667D01*
X138863238Y-121571428D01*
X138958476Y-121523809D01*
X139006095Y-121523809D01*
X139101333Y-121571428D01*
X139148952Y-121666667D01*
X139148952Y-121809524D01*
X139196571Y-121904762D01*
X139291810Y-121952381D01*
X139339429Y-121952381D01*
X139434667Y-121904762D01*
X139482286Y-121809524D01*
X139482286Y-121666667D01*
X139434667Y-121571428D01*
X139482286Y-121095238D02*
X138482286Y-121095238D01*
X139434667Y-121095238D02*
X139482286Y-121000000D01*
X139482286Y-120809523D01*
X139434667Y-120714285D01*
X139387048Y-120666666D01*
X139291810Y-120619047D01*
X139006095Y-120619047D01*
X138910857Y-120666666D01*
X138863238Y-120714285D01*
X138815619Y-120809523D01*
X138815619Y-121000000D01*
X138863238Y-121095238D01*
X139387048Y-120047619D02*
X139434667Y-120142857D01*
X139482286Y-120190476D01*
X139577524Y-120238095D01*
X139625143Y-120238095D01*
X139720381Y-120190476D01*
X139768000Y-120142857D01*
X139815619Y-120047619D01*
X139815619Y-119857142D01*
X139768000Y-119761904D01*
X139720381Y-119714285D01*
X139625143Y-119666666D01*
X139577524Y-119666666D01*
X139482286Y-119714285D01*
X139434667Y-119761904D01*
X139387048Y-119857142D01*
X139387048Y-120047619D01*
X139339429Y-120142857D01*
X139291810Y-120190476D01*
X139196571Y-120238095D01*
X139006095Y-120238095D01*
X138910857Y-120190476D01*
X138863238Y-120142857D01*
X138815619Y-120047619D01*
X138815619Y-119857142D01*
X138863238Y-119761904D01*
X138910857Y-119714285D01*
X139006095Y-119666666D01*
X139196571Y-119666666D01*
X139291810Y-119714285D01*
X139339429Y-119761904D01*
X139387048Y-119857142D01*
X139720381Y-119285714D02*
X139768000Y-119238095D01*
X139815619Y-119142857D01*
X139815619Y-118904761D01*
X139768000Y-118809523D01*
X139720381Y-118761904D01*
X139625143Y-118714285D01*
X139529905Y-118714285D01*
X139387048Y-118761904D01*
X138815619Y-119333333D01*
X138815619Y-118714285D01*
X139815619Y-117857142D02*
X139815619Y-118047619D01*
X139768000Y-118142857D01*
X139720381Y-118190476D01*
X139577524Y-118285714D01*
X139387048Y-118333333D01*
X139006095Y-118333333D01*
X138910857Y-118285714D01*
X138863238Y-118238095D01*
X138815619Y-118142857D01*
X138815619Y-117952380D01*
X138863238Y-117857142D01*
X138910857Y-117809523D01*
X139006095Y-117761904D01*
X139244190Y-117761904D01*
X139339429Y-117809523D01*
X139387048Y-117857142D01*
X139434667Y-117952380D01*
X139434667Y-118142857D01*
X139387048Y-118238095D01*
X139339429Y-118285714D01*
X139244190Y-118333333D01*
X139815619Y-116904761D02*
X139815619Y-117095238D01*
X139768000Y-117190476D01*
X139720381Y-117238095D01*
X139577524Y-117333333D01*
X139387048Y-117380952D01*
X139006095Y-117380952D01*
X138910857Y-117333333D01*
X138863238Y-117285714D01*
X138815619Y-117190476D01*
X138815619Y-116999999D01*
X138863238Y-116904761D01*
X138910857Y-116857142D01*
X139006095Y-116809523D01*
X139244190Y-116809523D01*
X139339429Y-116857142D01*
X139387048Y-116904761D01*
X139434667Y-116999999D01*
X139434667Y-117190476D01*
X139387048Y-117285714D01*
X139339429Y-117333333D01*
X139244190Y-117380952D01*
X139196571Y-116380952D02*
X139196571Y-115619047D01*
X138815619Y-114619047D02*
X138815619Y-115190476D01*
X138815619Y-114904762D02*
X139815619Y-114904762D01*
X139672762Y-115000000D01*
X139577524Y-115095238D01*
X139529905Y-115190476D01*
X139720381Y-114238095D02*
X139768000Y-114190476D01*
X139815619Y-114095238D01*
X139815619Y-113857142D01*
X139768000Y-113761904D01*
X139720381Y-113714285D01*
X139625143Y-113666666D01*
X139529905Y-113666666D01*
X139387048Y-113714285D01*
X138815619Y-114285714D01*
X138815619Y-113666666D01*
X139482286Y-112571428D02*
X138815619Y-112333333D01*
X139482286Y-112095237D01*
X139815619Y-111809523D02*
X139815619Y-111190475D01*
X139434667Y-111523809D01*
X139434667Y-111380951D01*
X139387048Y-111285713D01*
X139339429Y-111238094D01*
X139244190Y-111190475D01*
X139006095Y-111190475D01*
X138910857Y-111238094D01*
X138863238Y-111285713D01*
X138815619Y-111380951D01*
X138815619Y-111666666D01*
X138863238Y-111761904D01*
X138910857Y-111809523D01*
X137215619Y-122761905D02*
X138215619Y-122761905D01*
X137834667Y-122761905D02*
X137882286Y-122666667D01*
X137882286Y-122476190D01*
X137834667Y-122380952D01*
X137787048Y-122333333D01*
X137691810Y-122285714D01*
X137406095Y-122285714D01*
X137310857Y-122333333D01*
X137263238Y-122380952D01*
X137215619Y-122476190D01*
X137215619Y-122666667D01*
X137263238Y-122761905D01*
X137215619Y-121857143D02*
X137882286Y-121857143D01*
X137691810Y-121857143D02*
X137787048Y-121809524D01*
X137834667Y-121761905D01*
X137882286Y-121666667D01*
X137882286Y-121571428D01*
X137263238Y-120857142D02*
X137215619Y-120952380D01*
X137215619Y-121142857D01*
X137263238Y-121238095D01*
X137358476Y-121285714D01*
X137739429Y-121285714D01*
X137834667Y-121238095D01*
X137882286Y-121142857D01*
X137882286Y-120952380D01*
X137834667Y-120857142D01*
X137739429Y-120809523D01*
X137644190Y-120809523D01*
X137548952Y-121285714D01*
X137215619Y-119952380D02*
X137739429Y-119952380D01*
X137834667Y-119999999D01*
X137882286Y-120095237D01*
X137882286Y-120285714D01*
X137834667Y-120380952D01*
X137263238Y-119952380D02*
X137215619Y-120047618D01*
X137215619Y-120285714D01*
X137263238Y-120380952D01*
X137358476Y-120428571D01*
X137453714Y-120428571D01*
X137548952Y-120380952D01*
X137596571Y-120285714D01*
X137596571Y-120047618D01*
X137644190Y-119952380D01*
X137215619Y-119476190D02*
X138215619Y-119476190D01*
X137596571Y-119380952D02*
X137215619Y-119095237D01*
X137882286Y-119095237D02*
X137501333Y-119476190D01*
X137215619Y-118523809D02*
X137263238Y-118619047D01*
X137310857Y-118666666D01*
X137406095Y-118714285D01*
X137691810Y-118714285D01*
X137787048Y-118666666D01*
X137834667Y-118619047D01*
X137882286Y-118523809D01*
X137882286Y-118380951D01*
X137834667Y-118285713D01*
X137787048Y-118238094D01*
X137691810Y-118190475D01*
X137406095Y-118190475D01*
X137310857Y-118238094D01*
X137263238Y-118285713D01*
X137215619Y-118380951D01*
X137215619Y-118523809D01*
X137882286Y-117333332D02*
X137215619Y-117333332D01*
X137882286Y-117761904D02*
X137358476Y-117761904D01*
X137263238Y-117714285D01*
X137215619Y-117619047D01*
X137215619Y-117476189D01*
X137263238Y-117380951D01*
X137310857Y-117333332D01*
X137882286Y-116999999D02*
X137882286Y-116619047D01*
X138215619Y-116857142D02*
X137358476Y-116857142D01*
X137263238Y-116809523D01*
X137215619Y-116714285D01*
X137215619Y-116619047D01*
X137215619Y-115523808D02*
X138215619Y-115523808D01*
X137834667Y-115523808D02*
X137882286Y-115428570D01*
X137882286Y-115238093D01*
X137834667Y-115142855D01*
X137787048Y-115095236D01*
X137691810Y-115047617D01*
X137406095Y-115047617D01*
X137310857Y-115095236D01*
X137263238Y-115142855D01*
X137215619Y-115238093D01*
X137215619Y-115428570D01*
X137263238Y-115523808D01*
X137215619Y-114476189D02*
X137263238Y-114571427D01*
X137310857Y-114619046D01*
X137406095Y-114666665D01*
X137691810Y-114666665D01*
X137787048Y-114619046D01*
X137834667Y-114571427D01*
X137882286Y-114476189D01*
X137882286Y-114333331D01*
X137834667Y-114238093D01*
X137787048Y-114190474D01*
X137691810Y-114142855D01*
X137406095Y-114142855D01*
X137310857Y-114190474D01*
X137263238Y-114238093D01*
X137215619Y-114333331D01*
X137215619Y-114476189D01*
X137215619Y-113285712D02*
X137739429Y-113285712D01*
X137834667Y-113333331D01*
X137882286Y-113428569D01*
X137882286Y-113619046D01*
X137834667Y-113714284D01*
X137263238Y-113285712D02*
X137215619Y-113380950D01*
X137215619Y-113619046D01*
X137263238Y-113714284D01*
X137358476Y-113761903D01*
X137453714Y-113761903D01*
X137548952Y-113714284D01*
X137596571Y-113619046D01*
X137596571Y-113380950D01*
X137644190Y-113285712D01*
X137215619Y-112809522D02*
X137882286Y-112809522D01*
X137691810Y-112809522D02*
X137787048Y-112761903D01*
X137834667Y-112714284D01*
X137882286Y-112619046D01*
X137882286Y-112523807D01*
X137215619Y-111761902D02*
X138215619Y-111761902D01*
X137263238Y-111761902D02*
X137215619Y-111857140D01*
X137215619Y-112047617D01*
X137263238Y-112142855D01*
X137310857Y-112190474D01*
X137406095Y-112238093D01*
X137691810Y-112238093D01*
X137787048Y-112190474D01*
X137834667Y-112142855D01*
X137882286Y-112047617D01*
X137882286Y-111857140D01*
X137834667Y-111761902D01*
X135615619Y-122761905D02*
X136615619Y-122761905D01*
X135901333Y-122428571D01*
X136615619Y-122095238D01*
X135615619Y-122095238D01*
X135615619Y-121190476D02*
X136139429Y-121190476D01*
X136234667Y-121238095D01*
X136282286Y-121333333D01*
X136282286Y-121523810D01*
X136234667Y-121619048D01*
X135663238Y-121190476D02*
X135615619Y-121285714D01*
X135615619Y-121523810D01*
X135663238Y-121619048D01*
X135758476Y-121666667D01*
X135853714Y-121666667D01*
X135948952Y-121619048D01*
X135996571Y-121523810D01*
X135996571Y-121285714D01*
X136044190Y-121190476D01*
X136282286Y-120857143D02*
X136282286Y-120476191D01*
X136615619Y-120714286D02*
X135758476Y-120714286D01*
X135663238Y-120666667D01*
X135615619Y-120571429D01*
X135615619Y-120476191D01*
X136282286Y-120285714D02*
X136282286Y-119904762D01*
X136615619Y-120142857D02*
X135758476Y-120142857D01*
X135663238Y-120095238D01*
X135615619Y-120000000D01*
X135615619Y-119904762D01*
X136615619Y-118952380D02*
X135615619Y-118619047D01*
X136615619Y-118285713D01*
X135663238Y-117571427D02*
X135615619Y-117666665D01*
X135615619Y-117857142D01*
X135663238Y-117952380D01*
X135758476Y-117999999D01*
X136139429Y-117999999D01*
X136234667Y-117952380D01*
X136282286Y-117857142D01*
X136282286Y-117666665D01*
X136234667Y-117571427D01*
X136139429Y-117523808D01*
X136044190Y-117523808D01*
X135948952Y-117999999D01*
X136282286Y-117095237D02*
X135615619Y-117095237D01*
X136187048Y-117095237D02*
X136234667Y-117047618D01*
X136282286Y-116952380D01*
X136282286Y-116809522D01*
X136234667Y-116714284D01*
X136139429Y-116666665D01*
X135615619Y-116666665D01*
X136282286Y-116190475D02*
X135615619Y-116190475D01*
X136187048Y-116190475D02*
X136234667Y-116142856D01*
X136282286Y-116047618D01*
X136282286Y-115904760D01*
X136234667Y-115809522D01*
X136139429Y-115761903D01*
X135615619Y-115761903D01*
X136520381Y-114571427D02*
X136568000Y-114523808D01*
X136615619Y-114428570D01*
X136615619Y-114190474D01*
X136568000Y-114095236D01*
X136520381Y-114047617D01*
X136425143Y-113999998D01*
X136329905Y-113999998D01*
X136187048Y-114047617D01*
X135615619Y-114619046D01*
X135615619Y-113999998D01*
X136615619Y-113380951D02*
X136615619Y-113285712D01*
X136568000Y-113190474D01*
X136520381Y-113142855D01*
X136425143Y-113095236D01*
X136234667Y-113047617D01*
X135996571Y-113047617D01*
X135806095Y-113095236D01*
X135710857Y-113142855D01*
X135663238Y-113190474D01*
X135615619Y-113285712D01*
X135615619Y-113380951D01*
X135663238Y-113476189D01*
X135710857Y-113523808D01*
X135806095Y-113571427D01*
X135996571Y-113619046D01*
X136234667Y-113619046D01*
X136425143Y-113571427D01*
X136520381Y-113523808D01*
X136568000Y-113476189D01*
X136615619Y-113380951D01*
X135615619Y-112095236D02*
X135615619Y-112666665D01*
X135615619Y-112380951D02*
X136615619Y-112380951D01*
X136472762Y-112476189D01*
X136377524Y-112571427D01*
X136329905Y-112666665D01*
X136615619Y-111238093D02*
X136615619Y-111428570D01*
X136568000Y-111523808D01*
X136520381Y-111571427D01*
X136377524Y-111666665D01*
X136187048Y-111714284D01*
X135806095Y-111714284D01*
X135710857Y-111666665D01*
X135663238Y-111619046D01*
X135615619Y-111523808D01*
X135615619Y-111333331D01*
X135663238Y-111238093D01*
X135710857Y-111190474D01*
X135806095Y-111142855D01*
X136044190Y-111142855D01*
X136139429Y-111190474D01*
X136187048Y-111238093D01*
X136234667Y-111333331D01*
X136234667Y-111523808D01*
X136187048Y-111619046D01*
X136139429Y-111666665D01*
X136044190Y-111714284D01*
D12*
X113665000Y-106680000D02*
X113665000Y-139700000D01*
X113665000Y-139700000D02*
X111125000Y-139700000D01*
X111125000Y-139700000D02*
X111125000Y-106680000D01*
X110845000Y-103860000D02*
X110845000Y-105410000D01*
X111125000Y-106680000D02*
X113665000Y-106680000D01*
X113945000Y-105410000D02*
X113945000Y-103860000D01*
X113945000Y-103860000D02*
X110845000Y-103860000D01*
X113006095Y-103322381D02*
X113006095Y-102322381D01*
X112625142Y-102322381D01*
X112529904Y-102370000D01*
X112482285Y-102417619D01*
X112434666Y-102512857D01*
X112434666Y-102655714D01*
X112482285Y-102750952D01*
X112529904Y-102798571D01*
X112625142Y-102846190D01*
X113006095Y-102846190D01*
X112053714Y-102417619D02*
X112006095Y-102370000D01*
X111910857Y-102322381D01*
X111672761Y-102322381D01*
X111577523Y-102370000D01*
X111529904Y-102417619D01*
X111482285Y-102512857D01*
X111482285Y-102608095D01*
X111529904Y-102750952D01*
X112101333Y-103322381D01*
X111482285Y-103322381D01*
M02*
