G04 #@! TF.FileFunction,Copper,L1,Top,Signal*
%FSLAX46Y46*%
G04 Gerber Fmt 4.6, Leading zero omitted, Abs format (unit mm)*
G04 Created by KiCad (PCBNEW (2015-06-25 BZR 5821)-product) date Tue 19 Apr 2016 11:43:48 CEST*
%MOMM*%
G01*
G04 APERTURE LIST*
%ADD10C,0.100000*%
%ADD11R,1.597660X1.800860*%
%ADD12R,1.727200X2.032000*%
%ADD13O,1.727200X2.032000*%
%ADD14R,2.032000X1.727200*%
%ADD15O,2.032000X1.727200*%
%ADD16R,1.501140X2.999740*%
%ADD17R,1.600000X2.000000*%
%ADD18R,1.700000X0.900000*%
%ADD19R,2.032000X3.657600*%
%ADD20R,2.032000X1.016000*%
%ADD21O,1.524000X3.000000*%
%ADD22R,0.900000X1.700000*%
%ADD23R,1.600000X2.180000*%
%ADD24C,1.500000*%
%ADD25C,0.600000*%
%ADD26C,0.500000*%
%ADD27C,0.250000*%
%ADD28C,0.254000*%
G04 APERTURE END LIST*
D10*
D11*
X137010140Y-107188000D03*
X139849860Y-107188000D03*
D12*
X135359000Y-137850000D03*
D13*
X132819000Y-137850000D03*
X130279000Y-137850000D03*
X127739000Y-137850000D03*
X125199000Y-137850000D03*
X122659000Y-137850000D03*
D14*
X112395000Y-105410000D03*
D15*
X112395000Y-107950000D03*
X112395000Y-110490000D03*
X112395000Y-113030000D03*
X112395000Y-115570000D03*
X112395000Y-118110000D03*
X112395000Y-120650000D03*
X112395000Y-123190000D03*
X112395000Y-125730000D03*
X112395000Y-128270000D03*
X112395000Y-130810000D03*
X112395000Y-133350000D03*
X112395000Y-135890000D03*
X112395000Y-138430000D03*
D16*
X117094000Y-104460040D03*
X117094000Y-108458000D03*
X130810000Y-104173020D03*
X130810000Y-108170980D03*
D17*
X134112000Y-108172000D03*
X134112000Y-104172000D03*
X118618000Y-137382000D03*
X118618000Y-133382000D03*
D18*
X122859000Y-135050000D03*
X122859000Y-132150000D03*
D19*
X126873000Y-106299000D03*
D20*
X120269000Y-106299000D03*
X120269000Y-108585000D03*
X120269000Y-104013000D03*
D21*
X118714000Y-112522000D03*
X120714000Y-112522000D03*
X122714000Y-112522000D03*
X124714000Y-112522000D03*
X126714000Y-112522000D03*
X128714000Y-112522000D03*
X130714000Y-112522000D03*
X132714000Y-112522000D03*
X118714000Y-128522000D03*
X120714000Y-128522000D03*
X122714000Y-128522000D03*
X124714000Y-128522000D03*
X126714000Y-128522000D03*
X128714000Y-128522000D03*
X130714000Y-128522000D03*
X132714000Y-128522000D03*
D22*
X139880000Y-104648000D03*
X136980000Y-104648000D03*
D23*
X139194320Y-131466000D03*
X139189680Y-137266000D03*
D18*
X128859000Y-135050000D03*
X128859000Y-132150000D03*
X131859000Y-135050000D03*
X131859000Y-132150000D03*
X125859000Y-132150000D03*
X125859000Y-135050000D03*
D24*
X117359000Y-114600000D03*
D25*
X116859000Y-137350000D03*
X128905000Y-126111000D03*
X136779000Y-131445000D03*
X123571000Y-125349000D03*
X118359000Y-131350000D03*
X121018011Y-131600000D03*
X131699000Y-115189000D03*
X129859000Y-130350000D03*
X129109000Y-131100000D03*
X124390696Y-123513306D03*
X123571000Y-124079000D03*
X121793000Y-126111000D03*
X119327895Y-126457122D03*
X132521259Y-124437741D03*
X125859000Y-116600000D03*
D26*
X125859000Y-135050000D02*
X125459000Y-135050000D01*
X125459000Y-135050000D02*
X124325010Y-136183990D01*
X124325010Y-136183990D02*
X121991639Y-136183990D01*
X121991639Y-136183990D02*
X120345831Y-137829798D01*
X122032043Y-139516010D02*
X120345831Y-137829798D01*
X120345831Y-137829798D02*
X120068001Y-137551968D01*
X112395000Y-105410000D02*
X112242600Y-105410000D01*
X112242600Y-105410000D02*
X110278980Y-107373620D01*
X110278980Y-107373620D02*
X110278980Y-138606947D01*
X111615643Y-139943610D02*
X119026392Y-139943610D01*
X110278980Y-138606947D02*
X111615643Y-139943610D01*
X119026392Y-139943610D02*
X120345831Y-138624171D01*
X120345831Y-138624171D02*
X120345831Y-137829798D01*
X139189680Y-137266000D02*
X139189680Y-138856000D01*
X139189680Y-138856000D02*
X138529670Y-139516010D01*
X138529670Y-139516010D02*
X122032043Y-139516010D01*
X120068001Y-130614001D02*
X118714000Y-129260000D01*
X120068001Y-137551968D02*
X120068001Y-130614001D01*
X118714000Y-129260000D02*
X118714000Y-128522000D01*
X135359000Y-137850000D02*
X138605680Y-137850000D01*
X138605680Y-137850000D02*
X139189680Y-137266000D01*
X134112000Y-104172000D02*
X136504000Y-104172000D01*
X136504000Y-104172000D02*
X136980000Y-104648000D01*
X134112000Y-104172000D02*
X130811020Y-104172000D01*
X130811020Y-104172000D02*
X130810000Y-104173020D01*
X127529000Y-103005000D02*
X128697020Y-104173020D01*
X128697020Y-104173020D02*
X130810000Y-104173020D01*
X127529000Y-103005000D02*
X121785000Y-103005000D01*
X121785000Y-103005000D02*
X120777000Y-104013000D01*
X120777000Y-104013000D02*
X120269000Y-104013000D01*
X120269000Y-104013000D02*
X117541040Y-104013000D01*
X117541040Y-104013000D02*
X117094000Y-104460040D01*
X117094000Y-104460040D02*
X113344960Y-104460040D01*
X113344960Y-104460040D02*
X112395000Y-105410000D01*
X112395000Y-107950000D02*
X116586000Y-107950000D01*
X116586000Y-107950000D02*
X117094000Y-108458000D01*
X112903000Y-108458000D02*
X112395000Y-107950000D01*
X120269000Y-108585000D02*
X117221000Y-108585000D01*
X117221000Y-108585000D02*
X117094000Y-108458000D01*
X122859000Y-135050000D02*
X123259000Y-135050000D01*
X123259000Y-135050000D02*
X124359001Y-133949999D01*
X124359001Y-133949999D02*
X127358999Y-133949999D01*
X127358999Y-133949999D02*
X128459000Y-135050000D01*
X128459000Y-135050000D02*
X128859000Y-135050000D01*
X131859000Y-135050000D02*
X128859000Y-135050000D01*
X128859000Y-135050000D02*
X128859000Y-136430000D01*
X128859000Y-136430000D02*
X130279000Y-137850000D01*
X118714000Y-112522000D02*
X118714000Y-113245000D01*
X118714000Y-113245000D02*
X117359000Y-114600000D01*
X130810000Y-108170980D02*
X129559430Y-108170980D01*
X129559430Y-108170980D02*
X128117409Y-109613001D01*
X128117409Y-109613001D02*
X121935001Y-109613001D01*
X134112000Y-108172000D02*
X136026140Y-108172000D01*
X136026140Y-108172000D02*
X137010140Y-107188000D01*
X130810000Y-108170980D02*
X134110980Y-108170980D01*
X134110980Y-108170980D02*
X134112000Y-108172000D01*
X112395000Y-110490000D02*
X113911000Y-110490000D01*
X113911000Y-110490000D02*
X115943000Y-112522000D01*
X115943000Y-112522000D02*
X117452000Y-112522000D01*
X117452000Y-112522000D02*
X118714000Y-112522000D01*
X112547400Y-110490000D02*
X112395000Y-110490000D01*
X120269000Y-106299000D02*
X121785000Y-106299000D01*
X121785000Y-106299000D02*
X121935001Y-106449001D01*
X120126010Y-110371990D02*
X118714000Y-111784000D01*
X118714000Y-111784000D02*
X118714000Y-112522000D01*
X121935001Y-106449001D02*
X121935001Y-109613001D01*
X121935001Y-109613001D02*
X121176012Y-110371990D01*
X121176012Y-110371990D02*
X120126010Y-110371990D01*
D27*
X116859000Y-137350000D02*
X118586000Y-137350000D01*
X118586000Y-137350000D02*
X118618000Y-137382000D01*
X122945995Y-122508999D02*
X123270995Y-122183999D01*
X123270995Y-122183999D02*
X124977999Y-122183999D01*
X122945995Y-124560993D02*
X122945995Y-122508999D01*
X124977999Y-122183999D02*
X128605001Y-125811001D01*
X124714000Y-126328998D02*
X122945995Y-124560993D01*
X128605001Y-125811001D02*
X128905000Y-126111000D01*
X139194320Y-131466000D02*
X138248588Y-131466000D01*
X138248588Y-131466000D02*
X138144320Y-131466000D01*
X136779000Y-131445000D02*
X138227588Y-131445000D01*
X138227588Y-131445000D02*
X138248588Y-131466000D01*
X123571000Y-125349000D02*
X123870999Y-125648999D01*
X123870999Y-125648999D02*
X124034001Y-125648999D01*
X124034001Y-125648999D02*
X124714000Y-126328998D01*
X124714000Y-126328998D02*
X124714000Y-126772000D01*
X124714000Y-126772000D02*
X124714000Y-128522000D01*
X115536049Y-130300049D02*
X117226014Y-131990014D01*
X117226014Y-131990014D02*
X118618000Y-133382000D01*
X118359000Y-131350000D02*
X117866028Y-131350000D01*
X117866028Y-131350000D02*
X117226014Y-131990014D01*
X122859000Y-132150000D02*
X121568011Y-132150000D01*
X121568011Y-132150000D02*
X121018011Y-131600000D01*
X131699000Y-115189000D02*
X132714000Y-114174000D01*
X132714000Y-114174000D02*
X132714000Y-112522000D01*
D26*
X112903000Y-112522000D02*
X112395000Y-113030000D01*
D27*
X132714000Y-112522000D02*
X132714000Y-112797264D01*
X123084597Y-121733989D02*
X119754237Y-125064349D01*
X123777275Y-121733989D02*
X123084597Y-121733989D01*
X115536049Y-125064349D02*
X115536049Y-130300049D01*
X119754237Y-125064349D02*
X115536049Y-125064349D01*
X132714000Y-112797264D02*
X123777275Y-121733989D01*
X130283264Y-130350000D02*
X129859000Y-130350000D01*
X130636000Y-130350000D02*
X130283264Y-130350000D01*
X130714000Y-130272000D02*
X130636000Y-130350000D01*
X130714000Y-128522000D02*
X130714000Y-130272000D01*
X129533264Y-131100000D02*
X129109000Y-131100000D01*
X130533264Y-131100000D02*
X129533264Y-131100000D01*
X130783264Y-130850000D02*
X130533264Y-131100000D01*
X131658999Y-130300001D02*
X131109000Y-130850000D01*
X131109000Y-130850000D02*
X130783264Y-130850000D01*
X132714000Y-128522000D02*
X132714000Y-129260000D01*
X132714000Y-129260000D02*
X131124000Y-130850000D01*
X131124000Y-130850000D02*
X130783264Y-130850000D01*
X132714000Y-128522000D02*
X132714000Y-128872998D01*
X124443306Y-123513306D02*
X124390696Y-123513306D01*
X128714000Y-127784000D02*
X124443306Y-123513306D01*
X128714000Y-128522000D02*
X128714000Y-127784000D01*
X124021000Y-124079000D02*
X123995264Y-124079000D01*
X126714000Y-126772000D02*
X124021000Y-124079000D01*
X123995264Y-124079000D02*
X123571000Y-124079000D01*
X126714000Y-128522000D02*
X126714000Y-126772000D01*
X128459000Y-132150000D02*
X126656010Y-130347010D01*
X123801010Y-130347010D02*
X122714000Y-129260000D01*
X128859000Y-132150000D02*
X128459000Y-132150000D01*
X126656010Y-130347010D02*
X123801010Y-130347010D01*
X122714000Y-129260000D02*
X122714000Y-128522000D01*
X122714000Y-128522000D02*
X122714000Y-126772000D01*
X122053000Y-126111000D02*
X121793000Y-126111000D01*
X122714000Y-126772000D02*
X122053000Y-126111000D01*
X125859000Y-132150000D02*
X124759000Y-132150000D01*
X124759000Y-132150000D02*
X122956010Y-130347010D01*
X122956010Y-130347010D02*
X121801010Y-130347010D01*
X121801010Y-130347010D02*
X120714000Y-129260000D01*
X120714000Y-129260000D02*
X120714000Y-128522000D01*
X120399122Y-126457122D02*
X119327895Y-126457122D01*
X120714000Y-128522000D02*
X120714000Y-126772000D01*
X120714000Y-126772000D02*
X120399122Y-126457122D01*
X112242600Y-128270000D02*
X112395000Y-128270000D01*
X120714000Y-113260000D02*
X113736010Y-120237990D01*
X111053990Y-127081390D02*
X112242600Y-128270000D01*
X113736010Y-123682338D02*
X112876958Y-124541390D01*
X111053990Y-125237662D02*
X111053990Y-127081390D01*
X112876958Y-124541390D02*
X111750262Y-124541390D01*
X120714000Y-112522000D02*
X120714000Y-113260000D01*
X113736010Y-120237990D02*
X113736010Y-123682338D01*
X111750262Y-124541390D02*
X111053990Y-125237662D01*
X122714000Y-112522000D02*
X122714000Y-115340758D01*
X122714000Y-115340758D02*
X113736008Y-124318750D01*
X113736008Y-124318750D02*
X113736008Y-129621392D01*
X113736008Y-129621392D02*
X112547400Y-130810000D01*
X112547400Y-130810000D02*
X112395000Y-130810000D01*
X124714000Y-113260000D02*
X123702000Y-114272000D01*
X114186018Y-131711382D02*
X112547400Y-133350000D01*
X123702000Y-114272000D02*
X123702000Y-114989168D01*
X123702000Y-114989168D02*
X114186018Y-124505150D01*
X114186018Y-124505150D02*
X114186018Y-131711382D01*
X112547400Y-133350000D02*
X112395000Y-133350000D01*
X124714000Y-112522000D02*
X124714000Y-113260000D01*
X114636028Y-124691550D02*
X114636028Y-133801372D01*
X116266636Y-123060942D02*
X114636028Y-124691550D01*
X116913057Y-123060942D02*
X116266636Y-123060942D01*
X126714000Y-112522000D02*
X126714000Y-113260000D01*
X126714000Y-113260000D02*
X116913057Y-123060942D01*
X112547400Y-135890000D02*
X112395000Y-135890000D01*
X114636028Y-133801372D02*
X112547400Y-135890000D01*
X129702000Y-114501002D02*
X126723001Y-117480001D01*
X129702000Y-114272000D02*
X129702000Y-114501002D01*
X112547400Y-138430000D02*
X112395000Y-138430000D01*
X115086038Y-135891362D02*
X112547400Y-138430000D01*
X119546057Y-124427943D02*
X115536045Y-124427943D01*
X126723001Y-117480001D02*
X126493999Y-117480001D01*
X130714000Y-113260000D02*
X129702000Y-114272000D01*
X115086038Y-124877950D02*
X115086038Y-135891362D01*
X115536045Y-124427943D02*
X115086038Y-124877950D01*
X130714000Y-112522000D02*
X130714000Y-113260000D01*
X126493999Y-117480001D02*
X119546057Y-124427943D01*
X139880000Y-104648000D02*
X139880000Y-107157860D01*
X139880000Y-107157860D02*
X139849860Y-107188000D01*
X132521259Y-124437741D02*
X132521259Y-126053995D01*
X133801010Y-130607990D02*
X132259000Y-132150000D01*
X132521259Y-126053995D02*
X133801010Y-127333746D01*
X133801010Y-127333746D02*
X133801010Y-130607990D01*
X132259000Y-132150000D02*
X131859000Y-132150000D01*
X128714000Y-112522000D02*
X128714000Y-113260000D01*
X128714000Y-113260000D02*
X125859000Y-116115000D01*
X125859000Y-116115000D02*
X125859000Y-116600000D01*
D26*
X131244000Y-132588000D02*
X132194000Y-132588000D01*
X128714000Y-112522000D02*
X128714000Y-113602000D01*
X128714000Y-112522000D02*
X128714000Y-111784000D01*
D28*
G36*
X110787334Y-127889536D02*
X110711655Y-128270000D01*
X110825729Y-128843489D01*
X111150585Y-129329670D01*
X111465366Y-129540000D01*
X111150585Y-129750330D01*
X110825729Y-130236511D01*
X110711655Y-130810000D01*
X110825729Y-131383489D01*
X111150585Y-131869670D01*
X111465366Y-132080000D01*
X111150585Y-132290330D01*
X110825729Y-132776511D01*
X110711655Y-133350000D01*
X110825729Y-133923489D01*
X111150585Y-134409670D01*
X111465366Y-134620000D01*
X111150585Y-134830330D01*
X110825729Y-135316511D01*
X110711655Y-135890000D01*
X110825729Y-136463489D01*
X111150585Y-136949670D01*
X111465366Y-137160000D01*
X111150585Y-137370330D01*
X110825729Y-137856511D01*
X110711655Y-138430000D01*
X110825729Y-139003489D01*
X111150585Y-139489670D01*
X111636766Y-139814526D01*
X112210255Y-139928600D01*
X112579745Y-139928600D01*
X113153234Y-139814526D01*
X113639415Y-139489670D01*
X113964271Y-139003489D01*
X114078345Y-138430000D01*
X114002666Y-138049536D01*
X115623439Y-136428763D01*
X115788186Y-136182202D01*
X115846038Y-135891362D01*
X115846038Y-135734560D01*
X117818000Y-135734560D01*
X117575877Y-135781537D01*
X117363073Y-135921327D01*
X117220623Y-136132360D01*
X117170560Y-136382000D01*
X117170560Y-136466968D01*
X117045799Y-136415162D01*
X116673833Y-136414838D01*
X116330057Y-136556883D01*
X116066808Y-136819673D01*
X115924162Y-137163201D01*
X115923838Y-137535167D01*
X116065883Y-137878943D01*
X116328673Y-138142192D01*
X116672201Y-138284838D01*
X117044167Y-138285162D01*
X117170560Y-138232938D01*
X117170560Y-138382000D01*
X117217537Y-138624123D01*
X117357327Y-138836927D01*
X117568360Y-138979377D01*
X117818000Y-139029440D01*
X119418000Y-139029440D01*
X119660123Y-138982463D01*
X119872927Y-138842673D01*
X120015377Y-138631640D01*
X120065440Y-138382000D01*
X120065440Y-136382000D01*
X120018463Y-136139877D01*
X119878673Y-135927073D01*
X119667640Y-135784623D01*
X119418000Y-135734560D01*
X117818000Y-135734560D01*
X115846038Y-135734560D01*
X115846038Y-131684840D01*
X117170560Y-133009362D01*
X117170560Y-134382000D01*
X117217537Y-134624123D01*
X117357327Y-134836927D01*
X117568360Y-134979377D01*
X117818000Y-135029440D01*
X119418000Y-135029440D01*
X119660123Y-134982463D01*
X119872927Y-134842673D01*
X120015377Y-134631640D01*
X120065440Y-134382000D01*
X120065440Y-132382000D01*
X120018463Y-132139877D01*
X119878673Y-131927073D01*
X119667640Y-131784623D01*
X119418000Y-131734560D01*
X119211720Y-131734560D01*
X119293838Y-131536799D01*
X119294162Y-131164833D01*
X119152117Y-130821057D01*
X118889327Y-130557808D01*
X118841002Y-130537742D01*
X118841002Y-130491721D01*
X119057070Y-130614220D01*
X119131277Y-130599260D01*
X119612026Y-130337630D01*
X119692059Y-130238601D01*
X119726172Y-130289655D01*
X120179391Y-130592487D01*
X120714000Y-130698827D01*
X120784545Y-130684795D01*
X120489068Y-130806883D01*
X120225819Y-131069673D01*
X120083173Y-131413201D01*
X120082849Y-131785167D01*
X120224894Y-132128943D01*
X120487684Y-132392192D01*
X120831212Y-132534838D01*
X120878088Y-132534879D01*
X121030610Y-132687401D01*
X121277171Y-132852148D01*
X121325425Y-132861746D01*
X121435857Y-132883713D01*
X121548327Y-133054927D01*
X121759360Y-133197377D01*
X122009000Y-133247440D01*
X123709000Y-133247440D01*
X123905025Y-133209407D01*
X123733211Y-133324209D01*
X123733209Y-133324212D01*
X123104860Y-133952560D01*
X122009000Y-133952560D01*
X121766877Y-133999537D01*
X121554073Y-134139327D01*
X121411623Y-134350360D01*
X121361560Y-134600000D01*
X121361560Y-135500000D01*
X121408537Y-135742123D01*
X121548327Y-135954927D01*
X121759360Y-136097377D01*
X122009000Y-136147440D01*
X123709000Y-136147440D01*
X123951123Y-136100463D01*
X124163927Y-135960673D01*
X124306377Y-135749640D01*
X124356440Y-135500000D01*
X124356440Y-135204140D01*
X124383578Y-135177002D01*
X124532748Y-135177002D01*
X124374000Y-135335750D01*
X124374000Y-135626309D01*
X124470673Y-135859698D01*
X124649301Y-136038327D01*
X124882690Y-136135000D01*
X125573250Y-136135000D01*
X125732000Y-135976250D01*
X125732000Y-135177000D01*
X125712000Y-135177000D01*
X125712000Y-134923000D01*
X125732000Y-134923000D01*
X125732000Y-134903000D01*
X125986000Y-134903000D01*
X125986000Y-134923000D01*
X126006000Y-134923000D01*
X126006000Y-135177000D01*
X125986000Y-135177000D01*
X125986000Y-135976250D01*
X126144750Y-136135000D01*
X126835310Y-136135000D01*
X127068699Y-136038327D01*
X127247327Y-135859698D01*
X127344000Y-135626309D01*
X127344000Y-135335750D01*
X127185252Y-135177002D01*
X127334423Y-135177002D01*
X127361560Y-135204139D01*
X127361560Y-135500000D01*
X127408537Y-135742123D01*
X127548327Y-135954927D01*
X127759360Y-136097377D01*
X127974000Y-136140421D01*
X127974000Y-136213399D01*
X127739000Y-136166655D01*
X127165511Y-136280729D01*
X126679330Y-136605585D01*
X126469000Y-136920366D01*
X126258670Y-136605585D01*
X125772489Y-136280729D01*
X125199000Y-136166655D01*
X124625511Y-136280729D01*
X124139330Y-136605585D01*
X123929000Y-136920366D01*
X123718670Y-136605585D01*
X123232489Y-136280729D01*
X122659000Y-136166655D01*
X122085511Y-136280729D01*
X121599330Y-136605585D01*
X121274474Y-137091766D01*
X121160400Y-137665255D01*
X121160400Y-138034745D01*
X121274474Y-138608234D01*
X121599330Y-139094415D01*
X122085511Y-139419271D01*
X122659000Y-139533345D01*
X123232489Y-139419271D01*
X123718670Y-139094415D01*
X123929000Y-138779634D01*
X124139330Y-139094415D01*
X124625511Y-139419271D01*
X125199000Y-139533345D01*
X125772489Y-139419271D01*
X126258670Y-139094415D01*
X126469000Y-138779634D01*
X126679330Y-139094415D01*
X127165511Y-139419271D01*
X127739000Y-139533345D01*
X128312489Y-139419271D01*
X128798670Y-139094415D01*
X129009000Y-138779634D01*
X129219330Y-139094415D01*
X129705511Y-139419271D01*
X130279000Y-139533345D01*
X130852489Y-139419271D01*
X131338670Y-139094415D01*
X131549000Y-138779634D01*
X131759330Y-139094415D01*
X132245511Y-139419271D01*
X132819000Y-139533345D01*
X133392489Y-139419271D01*
X133878670Y-139094415D01*
X133893500Y-139072220D01*
X133957073Y-139225698D01*
X134135701Y-139404327D01*
X134369090Y-139501000D01*
X135073250Y-139501000D01*
X135232000Y-139342250D01*
X135232000Y-137977000D01*
X135486000Y-137977000D01*
X135486000Y-139342250D01*
X135644750Y-139501000D01*
X136348910Y-139501000D01*
X136582299Y-139404327D01*
X136760927Y-139225698D01*
X136857600Y-138992309D01*
X136857600Y-138482309D01*
X137754680Y-138482309D01*
X137851353Y-138715698D01*
X138029981Y-138894327D01*
X138263370Y-138991000D01*
X138903930Y-138991000D01*
X139062680Y-138832250D01*
X139062680Y-137393000D01*
X139316680Y-137393000D01*
X139062680Y-137393000D01*
X139062680Y-137393000D01*
X139316680Y-137393000D01*
X139316680Y-138832250D01*
X139475430Y-138991000D01*
X140115990Y-138991000D01*
X140349379Y-138894327D01*
X140528007Y-138715698D01*
X140624680Y-138482309D01*
X140624680Y-137551750D01*
X140465930Y-137393000D01*
X139316680Y-137393000D01*
X139062680Y-137393000D01*
X139062680Y-137393000D01*
X137913430Y-137393000D01*
X136857600Y-137393000D01*
X136857600Y-136707691D01*
X136760927Y-136474302D01*
X136582299Y-136295673D01*
X136348910Y-136199000D01*
X135644750Y-136199000D01*
X135486000Y-136357750D01*
X135486000Y-137723000D01*
X136698850Y-137723000D01*
X136857600Y-137564250D01*
X136857600Y-137393000D01*
X137913430Y-137393000D01*
X136857600Y-137393000D01*
X136857600Y-137393000D01*
X137913430Y-137393000D01*
X137754680Y-137551750D01*
X137754680Y-138482309D01*
X136857600Y-138482309D01*
X136857600Y-138135750D01*
X136698850Y-137977000D01*
X135486000Y-137977000D01*
X135232000Y-137977000D01*
X135232000Y-137977000D01*
X135212000Y-137977000D01*
X135212000Y-137723000D01*
X135232000Y-137723000D01*
X135232000Y-136357750D01*
X135073250Y-136199000D01*
X134369090Y-136199000D01*
X134135701Y-136295673D01*
X133957073Y-136474302D01*
X133893500Y-136627780D01*
X133878670Y-136605585D01*
X133392489Y-136280729D01*
X132819000Y-136166655D01*
X132245511Y-136280729D01*
X131759330Y-136605585D01*
X131549000Y-136920366D01*
X131338670Y-136605585D01*
X130852489Y-136280729D01*
X130279000Y-136166655D01*
X129918869Y-136238289D01*
X129808680Y-136128100D01*
X129951123Y-136100463D01*
X130163927Y-135960673D01*
X130181257Y-135935000D01*
X130535237Y-135935000D01*
X130548327Y-135954927D01*
X130759360Y-136097377D01*
X131009000Y-136147440D01*
X132709000Y-136147440D01*
X132951123Y-136100463D01*
X133163927Y-135960673D01*
X133306377Y-135749640D01*
X133348217Y-135541000D01*
X138263370Y-135541000D01*
X138029981Y-135637673D01*
X137851353Y-135816302D01*
X137754680Y-136049691D01*
X137754680Y-136980250D01*
X137913430Y-137139000D01*
X139062680Y-137139000D01*
X139062680Y-135699750D01*
X138903930Y-135541000D01*
X139475430Y-135541000D01*
X139316680Y-135699750D01*
X139316680Y-137139000D01*
X140465930Y-137139000D01*
X140624680Y-136980250D01*
X140624680Y-136049691D01*
X140528007Y-135816302D01*
X140349379Y-135637673D01*
X140115990Y-135541000D01*
X139475430Y-135541000D01*
X138903930Y-135541000D01*
X138903930Y-135541000D01*
X138263370Y-135541000D01*
X133348217Y-135541000D01*
X133356440Y-135500000D01*
X133356440Y-134600000D01*
X133309463Y-134357877D01*
X133169673Y-134145073D01*
X132958640Y-134002623D01*
X132709000Y-133952560D01*
X131009000Y-133952560D01*
X130766877Y-133999537D01*
X130554073Y-134139327D01*
X130536743Y-134165000D01*
X130182763Y-134165000D01*
X130169673Y-134145073D01*
X129958640Y-134002623D01*
X129709000Y-133952560D01*
X128613139Y-133952560D01*
X127984789Y-133324209D01*
X127810241Y-133207581D01*
X128009000Y-133247440D01*
X129709000Y-133247440D01*
X129951123Y-133200463D01*
X130163927Y-133060673D01*
X130306377Y-132849640D01*
X130356440Y-132600000D01*
X130356440Y-131860000D01*
X130361560Y-131860000D01*
X130361560Y-132575130D01*
X130359000Y-132588000D01*
X130368423Y-132635370D01*
X130408537Y-132842123D01*
X130409988Y-132844332D01*
X130426367Y-132926675D01*
X130618210Y-133213790D01*
X130905325Y-133405633D01*
X131244000Y-133473000D01*
X132194000Y-133473000D01*
X132532675Y-133405633D01*
X132794156Y-133230918D01*
X132951123Y-133200463D01*
X133163927Y-133060673D01*
X133306377Y-132849640D01*
X133356440Y-132600000D01*
X133356440Y-132127362D01*
X134338411Y-131145391D01*
X134503158Y-130898830D01*
X134521447Y-130806883D01*
X134561010Y-130607990D01*
X134561010Y-129728560D01*
X138394320Y-129728560D01*
X138152197Y-129775537D01*
X137939393Y-129915327D01*
X137796943Y-130126360D01*
X137746880Y-130376000D01*
X137746880Y-130685000D01*
X137341463Y-130685000D01*
X137309327Y-130652808D01*
X136965799Y-130510162D01*
X136593833Y-130509838D01*
X136250057Y-130651883D01*
X135986808Y-130914673D01*
X135844162Y-131258201D01*
X135843838Y-131630167D01*
X135985883Y-131973943D01*
X136248673Y-132237192D01*
X136592201Y-132379838D01*
X136964167Y-132380162D01*
X137307943Y-132238117D01*
X137341118Y-132205000D01*
X137746880Y-132205000D01*
X137746880Y-132556000D01*
X137793857Y-132798123D01*
X137933647Y-133010927D01*
X138144680Y-133153377D01*
X138394320Y-133203440D01*
X139994320Y-133203440D01*
X140236443Y-133156463D01*
X140449247Y-133016673D01*
X140591697Y-132805640D01*
X140641760Y-132556000D01*
X140641760Y-130376000D01*
X140594783Y-130133877D01*
X140454993Y-129921073D01*
X140243960Y-129778623D01*
X139994320Y-129728560D01*
X138394320Y-129728560D01*
X134561010Y-129728560D01*
X134561010Y-129540000D01*
X141562091Y-129540000D01*
X141564818Y-140285000D01*
X110540000Y-140285000D01*
X110540000Y-127642202D01*
X110787334Y-127889536D01*
X110787334Y-127889536D01*
G37*
X110787334Y-127889536D02*
X110711655Y-128270000D01*
X110825729Y-128843489D01*
X111150585Y-129329670D01*
X111465366Y-129540000D01*
X111150585Y-129750330D01*
X110825729Y-130236511D01*
X110711655Y-130810000D01*
X110825729Y-131383489D01*
X111150585Y-131869670D01*
X111465366Y-132080000D01*
X111150585Y-132290330D01*
X110825729Y-132776511D01*
X110711655Y-133350000D01*
X110825729Y-133923489D01*
X111150585Y-134409670D01*
X111465366Y-134620000D01*
X111150585Y-134830330D01*
X110825729Y-135316511D01*
X110711655Y-135890000D01*
X110825729Y-136463489D01*
X111150585Y-136949670D01*
X111465366Y-137160000D01*
X111150585Y-137370330D01*
X110825729Y-137856511D01*
X110711655Y-138430000D01*
X110825729Y-139003489D01*
X111150585Y-139489670D01*
X111636766Y-139814526D01*
X112210255Y-139928600D01*
X112579745Y-139928600D01*
X113153234Y-139814526D01*
X113639415Y-139489670D01*
X113964271Y-139003489D01*
X114078345Y-138430000D01*
X114002666Y-138049536D01*
X115623439Y-136428763D01*
X115788186Y-136182202D01*
X115846038Y-135891362D01*
X115846038Y-135734560D01*
X117818000Y-135734560D01*
X117575877Y-135781537D01*
X117363073Y-135921327D01*
X117220623Y-136132360D01*
X117170560Y-136382000D01*
X117170560Y-136466968D01*
X117045799Y-136415162D01*
X116673833Y-136414838D01*
X116330057Y-136556883D01*
X116066808Y-136819673D01*
X115924162Y-137163201D01*
X115923838Y-137535167D01*
X116065883Y-137878943D01*
X116328673Y-138142192D01*
X116672201Y-138284838D01*
X117044167Y-138285162D01*
X117170560Y-138232938D01*
X117170560Y-138382000D01*
X117217537Y-138624123D01*
X117357327Y-138836927D01*
X117568360Y-138979377D01*
X117818000Y-139029440D01*
X119418000Y-139029440D01*
X119660123Y-138982463D01*
X119872927Y-138842673D01*
X120015377Y-138631640D01*
X120065440Y-138382000D01*
X120065440Y-136382000D01*
X120018463Y-136139877D01*
X119878673Y-135927073D01*
X119667640Y-135784623D01*
X119418000Y-135734560D01*
X117818000Y-135734560D01*
X115846038Y-135734560D01*
X115846038Y-131684840D01*
X117170560Y-133009362D01*
X117170560Y-134382000D01*
X117217537Y-134624123D01*
X117357327Y-134836927D01*
X117568360Y-134979377D01*
X117818000Y-135029440D01*
X119418000Y-135029440D01*
X119660123Y-134982463D01*
X119872927Y-134842673D01*
X120015377Y-134631640D01*
X120065440Y-134382000D01*
X120065440Y-132382000D01*
X120018463Y-132139877D01*
X119878673Y-131927073D01*
X119667640Y-131784623D01*
X119418000Y-131734560D01*
X119211720Y-131734560D01*
X119293838Y-131536799D01*
X119294162Y-131164833D01*
X119152117Y-130821057D01*
X118889327Y-130557808D01*
X118841002Y-130537742D01*
X118841002Y-130491721D01*
X119057070Y-130614220D01*
X119131277Y-130599260D01*
X119612026Y-130337630D01*
X119692059Y-130238601D01*
X119726172Y-130289655D01*
X120179391Y-130592487D01*
X120714000Y-130698827D01*
X120784545Y-130684795D01*
X120489068Y-130806883D01*
X120225819Y-131069673D01*
X120083173Y-131413201D01*
X120082849Y-131785167D01*
X120224894Y-132128943D01*
X120487684Y-132392192D01*
X120831212Y-132534838D01*
X120878088Y-132534879D01*
X121030610Y-132687401D01*
X121277171Y-132852148D01*
X121325425Y-132861746D01*
X121435857Y-132883713D01*
X121548327Y-133054927D01*
X121759360Y-133197377D01*
X122009000Y-133247440D01*
X123709000Y-133247440D01*
X123905025Y-133209407D01*
X123733211Y-133324209D01*
X123733209Y-133324212D01*
X123104860Y-133952560D01*
X122009000Y-133952560D01*
X121766877Y-133999537D01*
X121554073Y-134139327D01*
X121411623Y-134350360D01*
X121361560Y-134600000D01*
X121361560Y-135500000D01*
X121408537Y-135742123D01*
X121548327Y-135954927D01*
X121759360Y-136097377D01*
X122009000Y-136147440D01*
X123709000Y-136147440D01*
X123951123Y-136100463D01*
X124163927Y-135960673D01*
X124306377Y-135749640D01*
X124356440Y-135500000D01*
X124356440Y-135204140D01*
X124383578Y-135177002D01*
X124532748Y-135177002D01*
X124374000Y-135335750D01*
X124374000Y-135626309D01*
X124470673Y-135859698D01*
X124649301Y-136038327D01*
X124882690Y-136135000D01*
X125573250Y-136135000D01*
X125732000Y-135976250D01*
X125732000Y-135177000D01*
X125712000Y-135177000D01*
X125712000Y-134923000D01*
X125732000Y-134923000D01*
X125732000Y-134903000D01*
X125986000Y-134903000D01*
X125986000Y-134923000D01*
X126006000Y-134923000D01*
X126006000Y-135177000D01*
X125986000Y-135177000D01*
X125986000Y-135976250D01*
X126144750Y-136135000D01*
X126835310Y-136135000D01*
X127068699Y-136038327D01*
X127247327Y-135859698D01*
X127344000Y-135626309D01*
X127344000Y-135335750D01*
X127185252Y-135177002D01*
X127334423Y-135177002D01*
X127361560Y-135204139D01*
X127361560Y-135500000D01*
X127408537Y-135742123D01*
X127548327Y-135954927D01*
X127759360Y-136097377D01*
X127974000Y-136140421D01*
X127974000Y-136213399D01*
X127739000Y-136166655D01*
X127165511Y-136280729D01*
X126679330Y-136605585D01*
X126469000Y-136920366D01*
X126258670Y-136605585D01*
X125772489Y-136280729D01*
X125199000Y-136166655D01*
X124625511Y-136280729D01*
X124139330Y-136605585D01*
X123929000Y-136920366D01*
X123718670Y-136605585D01*
X123232489Y-136280729D01*
X122659000Y-136166655D01*
X122085511Y-136280729D01*
X121599330Y-136605585D01*
X121274474Y-137091766D01*
X121160400Y-137665255D01*
X121160400Y-138034745D01*
X121274474Y-138608234D01*
X121599330Y-139094415D01*
X122085511Y-139419271D01*
X122659000Y-139533345D01*
X123232489Y-139419271D01*
X123718670Y-139094415D01*
X123929000Y-138779634D01*
X124139330Y-139094415D01*
X124625511Y-139419271D01*
X125199000Y-139533345D01*
X125772489Y-139419271D01*
X126258670Y-139094415D01*
X126469000Y-138779634D01*
X126679330Y-139094415D01*
X127165511Y-139419271D01*
X127739000Y-139533345D01*
X128312489Y-139419271D01*
X128798670Y-139094415D01*
X129009000Y-138779634D01*
X129219330Y-139094415D01*
X129705511Y-139419271D01*
X130279000Y-139533345D01*
X130852489Y-139419271D01*
X131338670Y-139094415D01*
X131549000Y-138779634D01*
X131759330Y-139094415D01*
X132245511Y-139419271D01*
X132819000Y-139533345D01*
X133392489Y-139419271D01*
X133878670Y-139094415D01*
X133893500Y-139072220D01*
X133957073Y-139225698D01*
X134135701Y-139404327D01*
X134369090Y-139501000D01*
X135073250Y-139501000D01*
X135232000Y-139342250D01*
X135232000Y-137977000D01*
X135486000Y-137977000D01*
X135486000Y-139342250D01*
X135644750Y-139501000D01*
X136348910Y-139501000D01*
X136582299Y-139404327D01*
X136760927Y-139225698D01*
X136857600Y-138992309D01*
X136857600Y-138482309D01*
X137754680Y-138482309D01*
X137851353Y-138715698D01*
X138029981Y-138894327D01*
X138263370Y-138991000D01*
X138903930Y-138991000D01*
X139062680Y-138832250D01*
X139062680Y-137393000D01*
X139316680Y-137393000D01*
X139062680Y-137393000D01*
X139062680Y-137393000D01*
X139316680Y-137393000D01*
X139316680Y-138832250D01*
X139475430Y-138991000D01*
X140115990Y-138991000D01*
X140349379Y-138894327D01*
X140528007Y-138715698D01*
X140624680Y-138482309D01*
X140624680Y-137551750D01*
X140465930Y-137393000D01*
X139316680Y-137393000D01*
X139062680Y-137393000D01*
X139062680Y-137393000D01*
X137913430Y-137393000D01*
X136857600Y-137393000D01*
X136857600Y-136707691D01*
X136760927Y-136474302D01*
X136582299Y-136295673D01*
X136348910Y-136199000D01*
X135644750Y-136199000D01*
X135486000Y-136357750D01*
X135486000Y-137723000D01*
X136698850Y-137723000D01*
X136857600Y-137564250D01*
X136857600Y-137393000D01*
X137913430Y-137393000D01*
X136857600Y-137393000D01*
X136857600Y-137393000D01*
X137913430Y-137393000D01*
X137754680Y-137551750D01*
X137754680Y-138482309D01*
X136857600Y-138482309D01*
X136857600Y-138135750D01*
X136698850Y-137977000D01*
X135486000Y-137977000D01*
X135232000Y-137977000D01*
X135232000Y-137977000D01*
X135212000Y-137977000D01*
X135212000Y-137723000D01*
X135232000Y-137723000D01*
X135232000Y-136357750D01*
X135073250Y-136199000D01*
X134369090Y-136199000D01*
X134135701Y-136295673D01*
X133957073Y-136474302D01*
X133893500Y-136627780D01*
X133878670Y-136605585D01*
X133392489Y-136280729D01*
X132819000Y-136166655D01*
X132245511Y-136280729D01*
X131759330Y-136605585D01*
X131549000Y-136920366D01*
X131338670Y-136605585D01*
X130852489Y-136280729D01*
X130279000Y-136166655D01*
X129918869Y-136238289D01*
X129808680Y-136128100D01*
X129951123Y-136100463D01*
X130163927Y-135960673D01*
X130181257Y-135935000D01*
X130535237Y-135935000D01*
X130548327Y-135954927D01*
X130759360Y-136097377D01*
X131009000Y-136147440D01*
X132709000Y-136147440D01*
X132951123Y-136100463D01*
X133163927Y-135960673D01*
X133306377Y-135749640D01*
X133348217Y-135541000D01*
X138263370Y-135541000D01*
X138029981Y-135637673D01*
X137851353Y-135816302D01*
X137754680Y-136049691D01*
X137754680Y-136980250D01*
X137913430Y-137139000D01*
X139062680Y-137139000D01*
X139062680Y-135699750D01*
X138903930Y-135541000D01*
X139475430Y-135541000D01*
X139316680Y-135699750D01*
X139316680Y-137139000D01*
X140465930Y-137139000D01*
X140624680Y-136980250D01*
X140624680Y-136049691D01*
X140528007Y-135816302D01*
X140349379Y-135637673D01*
X140115990Y-135541000D01*
X139475430Y-135541000D01*
X138903930Y-135541000D01*
X138903930Y-135541000D01*
X138263370Y-135541000D01*
X133348217Y-135541000D01*
X133356440Y-135500000D01*
X133356440Y-134600000D01*
X133309463Y-134357877D01*
X133169673Y-134145073D01*
X132958640Y-134002623D01*
X132709000Y-133952560D01*
X131009000Y-133952560D01*
X130766877Y-133999537D01*
X130554073Y-134139327D01*
X130536743Y-134165000D01*
X130182763Y-134165000D01*
X130169673Y-134145073D01*
X129958640Y-134002623D01*
X129709000Y-133952560D01*
X128613139Y-133952560D01*
X127984789Y-133324209D01*
X127810241Y-133207581D01*
X128009000Y-133247440D01*
X129709000Y-133247440D01*
X129951123Y-133200463D01*
X130163927Y-133060673D01*
X130306377Y-132849640D01*
X130356440Y-132600000D01*
X130356440Y-131860000D01*
X130361560Y-131860000D01*
X130361560Y-132575130D01*
X130359000Y-132588000D01*
X130368423Y-132635370D01*
X130408537Y-132842123D01*
X130409988Y-132844332D01*
X130426367Y-132926675D01*
X130618210Y-133213790D01*
X130905325Y-133405633D01*
X131244000Y-133473000D01*
X132194000Y-133473000D01*
X132532675Y-133405633D01*
X132794156Y-133230918D01*
X132951123Y-133200463D01*
X133163927Y-133060673D01*
X133306377Y-132849640D01*
X133356440Y-132600000D01*
X133356440Y-132127362D01*
X134338411Y-131145391D01*
X134503158Y-130898830D01*
X134521447Y-130806883D01*
X134561010Y-130607990D01*
X134561010Y-129728560D01*
X138394320Y-129728560D01*
X138152197Y-129775537D01*
X137939393Y-129915327D01*
X137796943Y-130126360D01*
X137746880Y-130376000D01*
X137746880Y-130685000D01*
X137341463Y-130685000D01*
X137309327Y-130652808D01*
X136965799Y-130510162D01*
X136593833Y-130509838D01*
X136250057Y-130651883D01*
X135986808Y-130914673D01*
X135844162Y-131258201D01*
X135843838Y-131630167D01*
X135985883Y-131973943D01*
X136248673Y-132237192D01*
X136592201Y-132379838D01*
X136964167Y-132380162D01*
X137307943Y-132238117D01*
X137341118Y-132205000D01*
X137746880Y-132205000D01*
X137746880Y-132556000D01*
X137793857Y-132798123D01*
X137933647Y-133010927D01*
X138144680Y-133153377D01*
X138394320Y-133203440D01*
X139994320Y-133203440D01*
X140236443Y-133156463D01*
X140449247Y-133016673D01*
X140591697Y-132805640D01*
X140641760Y-132556000D01*
X140641760Y-130376000D01*
X140594783Y-130133877D01*
X140454993Y-129921073D01*
X140243960Y-129778623D01*
X139994320Y-129728560D01*
X138394320Y-129728560D01*
X134561010Y-129728560D01*
X134561010Y-129540000D01*
X141562091Y-129540000D01*
X141564818Y-140285000D01*
X110540000Y-140285000D01*
X110540000Y-127642202D01*
X110787334Y-127889536D01*
G36*
X118535703Y-125926795D02*
X118393057Y-126270323D01*
X118392907Y-126442240D01*
X118370930Y-126429780D01*
X118296723Y-126444740D01*
X117815974Y-126706370D01*
X117471941Y-127132059D01*
X117317000Y-127657000D01*
X117317000Y-128395000D01*
X118587000Y-128395000D01*
X118587000Y-128375000D01*
X118841000Y-128375000D01*
X118841000Y-128395000D01*
X118861000Y-128395000D01*
X118861000Y-128649000D01*
X118841000Y-128649000D01*
X118841000Y-128669000D01*
X118587000Y-128669000D01*
X118587000Y-128649000D01*
X117317000Y-128649000D01*
X117317000Y-129387000D01*
X117471941Y-129911941D01*
X117815974Y-130337630D01*
X118051060Y-130465567D01*
X117830057Y-130556883D01*
X117779675Y-130607177D01*
X117625477Y-130637849D01*
X117575188Y-130647852D01*
X117328627Y-130812599D01*
X117226014Y-130915212D01*
X116296049Y-129985247D01*
X116296049Y-125824349D01*
X118638328Y-125824349D01*
X118535703Y-125926795D01*
X118535703Y-125926795D01*
G37*
X118535703Y-125926795D02*
X118393057Y-126270323D01*
X118392907Y-126442240D01*
X118370930Y-126429780D01*
X118296723Y-126444740D01*
X117815974Y-126706370D01*
X117471941Y-127132059D01*
X117317000Y-127657000D01*
X117317000Y-128395000D01*
X118587000Y-128395000D01*
X118587000Y-128375000D01*
X118841000Y-128375000D01*
X118841000Y-128395000D01*
X118861000Y-128395000D01*
X118861000Y-128649000D01*
X118841000Y-128649000D01*
X118841000Y-128669000D01*
X118587000Y-128669000D01*
X118587000Y-128649000D01*
X117317000Y-128649000D01*
X117317000Y-129387000D01*
X117471941Y-129911941D01*
X117815974Y-130337630D01*
X118051060Y-130465567D01*
X117830057Y-130556883D01*
X117779675Y-130607177D01*
X117625477Y-130637849D01*
X117575188Y-130647852D01*
X117328627Y-130812599D01*
X117226014Y-130915212D01*
X116296049Y-129985247D01*
X116296049Y-125824349D01*
X118638328Y-125824349D01*
X118535703Y-125926795D01*
G36*
X129521103Y-102313452D02*
X129424430Y-102546841D01*
X129424430Y-103887270D01*
X129583180Y-104046020D01*
X130683000Y-104046020D01*
X130683000Y-104026020D01*
X130937000Y-104026020D01*
X130937000Y-104046020D01*
X132036820Y-104046020D01*
X132195570Y-103887270D01*
X132195570Y-102546841D01*
X132191494Y-102537000D01*
X133185690Y-102537000D01*
X132952301Y-102633673D01*
X132773673Y-102812302D01*
X132677000Y-103045691D01*
X132677000Y-103886250D01*
X132835750Y-104045000D01*
X133985000Y-104045000D01*
X133985000Y-102695750D01*
X133826250Y-102537000D01*
X133185690Y-102537000D01*
X132191494Y-102537000D01*
X132098897Y-102313452D01*
X132070445Y-102285000D01*
X141555174Y-102285000D01*
X141557256Y-110490000D01*
X133731000Y-110490000D01*
X133682399Y-110499667D01*
X133641197Y-110527197D01*
X133613667Y-110568399D01*
X133604000Y-110617000D01*
X133604000Y-110688978D01*
X133248609Y-110451513D01*
X132714000Y-110345173D01*
X132179391Y-110451513D01*
X131726172Y-110754345D01*
X131714000Y-110772562D01*
X131701828Y-110754345D01*
X131248609Y-110451513D01*
X130714000Y-110345173D01*
X130179391Y-110451513D01*
X129726172Y-110754345D01*
X129714000Y-110772562D01*
X129701828Y-110754345D01*
X129248609Y-110451513D01*
X128714000Y-110345173D01*
X128528876Y-110381996D01*
X128743199Y-110238791D01*
X129411990Y-109570000D01*
X129411990Y-109670850D01*
X129458967Y-109912973D01*
X129598757Y-110125777D01*
X129809790Y-110268227D01*
X130059430Y-110318290D01*
X131560570Y-110318290D01*
X131802693Y-110271313D01*
X132015497Y-110131523D01*
X132157947Y-109920490D01*
X132208010Y-109670850D01*
X132208010Y-109055980D01*
X132664560Y-109055980D01*
X132664560Y-109172000D01*
X132711537Y-109414123D01*
X132851327Y-109626927D01*
X133062360Y-109769377D01*
X133312000Y-109819440D01*
X134912000Y-109819440D01*
X135154123Y-109772463D01*
X135366927Y-109632673D01*
X135509377Y-109421640D01*
X135559440Y-109172000D01*
X135559440Y-109057000D01*
X136026135Y-109057000D01*
X136026140Y-109057001D01*
X136308624Y-109000810D01*
X136364815Y-108989633D01*
X136651930Y-108797790D01*
X136713850Y-108735870D01*
X137808970Y-108735870D01*
X138051093Y-108688893D01*
X138263897Y-108549103D01*
X138406347Y-108338070D01*
X138429564Y-108222300D01*
X138450567Y-108330553D01*
X138590357Y-108543357D01*
X138801390Y-108685807D01*
X139051030Y-108735870D01*
X140648690Y-108735870D01*
X140890813Y-108688893D01*
X141103617Y-108549103D01*
X141246067Y-108338070D01*
X141296130Y-108088430D01*
X141296130Y-106287570D01*
X141249153Y-106045447D01*
X141109363Y-105832643D01*
X140934061Y-105714312D01*
X140977440Y-105498000D01*
X140977440Y-103798000D01*
X140930463Y-103555877D01*
X140790673Y-103343073D01*
X140579640Y-103200623D01*
X140330000Y-103150560D01*
X139430000Y-103150560D01*
X139187877Y-103197537D01*
X138975073Y-103337327D01*
X138832623Y-103548360D01*
X138782560Y-103798000D01*
X138782560Y-105498000D01*
X138818876Y-105685173D01*
X138808907Y-105687107D01*
X138596103Y-105826897D01*
X138453653Y-106037930D01*
X138430436Y-106153700D01*
X138409433Y-106045447D01*
X138269643Y-105832643D01*
X138058610Y-105690193D01*
X138039313Y-105686323D01*
X138065000Y-105624310D01*
X138065000Y-104933750D01*
X137906250Y-104775000D01*
X137107000Y-104775000D01*
X137107000Y-104795000D01*
X136853000Y-104795000D01*
X136853000Y-104775000D01*
X136053750Y-104775000D01*
X135895000Y-104933750D01*
X135895000Y-105624310D01*
X135931316Y-105711984D01*
X135756383Y-105826897D01*
X135613933Y-106037930D01*
X135563870Y-106287570D01*
X135563870Y-107287000D01*
X135559440Y-107287000D01*
X135559440Y-107172000D01*
X135512463Y-106929877D01*
X135372673Y-106717073D01*
X135161640Y-106574623D01*
X134912000Y-106524560D01*
X133312000Y-106524560D01*
X133069877Y-106571537D01*
X132857073Y-106711327D01*
X132714623Y-106922360D01*
X132664560Y-107172000D01*
X132664560Y-107285980D01*
X132208010Y-107285980D01*
X132208010Y-106671110D01*
X132161033Y-106428987D01*
X132021243Y-106216183D01*
X131957996Y-106173490D01*
X132098897Y-106032588D01*
X132195570Y-105799199D01*
X132195570Y-104458770D01*
X132036820Y-104300020D01*
X130937000Y-104300020D01*
X130937000Y-104320020D01*
X130683000Y-104320020D01*
X130683000Y-104300020D01*
X129583180Y-104300020D01*
X129424430Y-104458770D01*
X129424430Y-105799199D01*
X129521103Y-106032588D01*
X129661506Y-106172992D01*
X129604503Y-106210437D01*
X129462053Y-106421470D01*
X129411990Y-106671110D01*
X129411990Y-107315307D01*
X129318013Y-107334001D01*
X129220755Y-107353347D01*
X128933640Y-107545190D01*
X128933638Y-107545193D01*
X128536440Y-107942391D01*
X128536440Y-104470200D01*
X128503224Y-104299000D01*
X132835750Y-104299000D01*
X132677000Y-104457750D01*
X132677000Y-105298309D01*
X132773673Y-105531698D01*
X132952301Y-105710327D01*
X133185690Y-105807000D01*
X133826250Y-105807000D01*
X133985000Y-105648250D01*
X133985000Y-104299000D01*
X134239000Y-104299000D01*
X133985000Y-104299000D01*
X133985000Y-104299000D01*
X134239000Y-104299000D01*
X134239000Y-105648250D01*
X134397750Y-105807000D01*
X135038310Y-105807000D01*
X135271699Y-105710327D01*
X135450327Y-105531698D01*
X135547000Y-105298309D01*
X135547000Y-104457750D01*
X135451500Y-104362250D01*
X135895000Y-104362250D01*
X136053750Y-104521000D01*
X136853000Y-104521000D01*
X136853000Y-103321750D01*
X136694250Y-103163000D01*
X137265750Y-103163000D01*
X137107000Y-103321750D01*
X137107000Y-104521000D01*
X137906250Y-104521000D01*
X138065000Y-104362250D01*
X138065000Y-103671690D01*
X137968327Y-103438301D01*
X137789698Y-103259673D01*
X137556309Y-103163000D01*
X137265750Y-103163000D01*
X136694250Y-103163000D01*
X136694250Y-103163000D01*
X136403691Y-103163000D01*
X135547000Y-103163000D01*
X135547000Y-103045691D01*
X135450327Y-102812302D01*
X135271699Y-102633673D01*
X135038310Y-102537000D01*
X134397750Y-102537000D01*
X134239000Y-102695750D01*
X134239000Y-104045000D01*
X135388250Y-104045000D01*
X135547000Y-103886250D01*
X135547000Y-103163000D01*
X136403691Y-103163000D01*
X135547000Y-103163000D01*
X135547000Y-103163000D01*
X136403691Y-103163000D01*
X136170302Y-103259673D01*
X135991673Y-103438301D01*
X135895000Y-103671690D01*
X135895000Y-104362250D01*
X135451500Y-104362250D01*
X135388250Y-104299000D01*
X134239000Y-104299000D01*
X133985000Y-104299000D01*
X133985000Y-104299000D01*
X132835750Y-104299000D01*
X128503224Y-104299000D01*
X128489463Y-104228077D01*
X128349673Y-104015273D01*
X128138640Y-103872823D01*
X127889000Y-103822760D01*
X125857000Y-103822760D01*
X125614877Y-103869737D01*
X125402073Y-104009527D01*
X125259623Y-104220560D01*
X125209560Y-104470200D01*
X125209560Y-108127800D01*
X125256537Y-108369923D01*
X125396327Y-108582727D01*
X125607360Y-108725177D01*
X125621442Y-108728001D01*
X122820001Y-108728001D01*
X122820001Y-106449001D01*
X122752634Y-106110326D01*
X122560791Y-105823211D01*
X122560788Y-105823209D01*
X122410790Y-105673210D01*
X122123675Y-105481367D01*
X122067484Y-105470190D01*
X121798645Y-105416713D01*
X121745673Y-105336073D01*
X121534640Y-105193623D01*
X121347032Y-105156000D01*
X121411310Y-105156000D01*
X121644699Y-105059327D01*
X121823327Y-104880698D01*
X121920000Y-104647309D01*
X121920000Y-104298750D01*
X121761250Y-104140000D01*
X120396000Y-104140000D01*
X120396000Y-104160000D01*
X120142000Y-104160000D01*
X120142000Y-104140000D01*
X118776750Y-104140000D01*
X118618000Y-104298750D01*
X118618000Y-104647309D01*
X118714673Y-104880698D01*
X118893301Y-105059327D01*
X119126690Y-105156000D01*
X119188883Y-105156000D01*
X119010877Y-105190537D01*
X118798073Y-105330327D01*
X118655623Y-105541360D01*
X118605560Y-105791000D01*
X118605560Y-106807000D01*
X118652537Y-107049123D01*
X118792327Y-107261927D01*
X119003360Y-107404377D01*
X119189943Y-107441794D01*
X119010877Y-107476537D01*
X118798073Y-107616327D01*
X118741593Y-107700000D01*
X118492010Y-107700000D01*
X118492010Y-106958130D01*
X118445033Y-106716007D01*
X118305243Y-106503203D01*
X118241996Y-106460510D01*
X118382897Y-106319608D01*
X118479570Y-106086219D01*
X118479570Y-104745790D01*
X118320820Y-104587040D01*
X117221000Y-104587040D01*
X117221000Y-104607040D01*
X116967000Y-104607040D01*
X116967000Y-104587040D01*
X115867180Y-104587040D01*
X115708430Y-104745790D01*
X115708430Y-106086219D01*
X115805103Y-106319608D01*
X115945506Y-106460012D01*
X115888503Y-106497457D01*
X115746053Y-106708490D01*
X115695990Y-106958130D01*
X115695990Y-107065000D01*
X113756126Y-107065000D01*
X113639415Y-106890330D01*
X113617220Y-106875500D01*
X113770698Y-106811927D01*
X113949327Y-106633299D01*
X114046000Y-106399910D01*
X114046000Y-105695750D01*
X113887250Y-105537000D01*
X112522000Y-105537000D01*
X112522000Y-105557000D01*
X112268000Y-105557000D01*
X112268000Y-105537000D01*
X110902750Y-105537000D01*
X110744000Y-105695750D01*
X110744000Y-106399910D01*
X110840673Y-106633299D01*
X111019302Y-106811927D01*
X111172780Y-106875500D01*
X111150585Y-106890330D01*
X110825729Y-107376511D01*
X110711655Y-107950000D01*
X110825729Y-108523489D01*
X111150585Y-109009670D01*
X111465366Y-109220000D01*
X111150585Y-109430330D01*
X110825729Y-109916511D01*
X110711655Y-110490000D01*
X110825729Y-111063489D01*
X111150585Y-111549670D01*
X111465366Y-111760000D01*
X111150585Y-111970330D01*
X110825729Y-112456511D01*
X110711655Y-113030000D01*
X110825729Y-113603489D01*
X111150585Y-114089670D01*
X111465366Y-114300000D01*
X111150585Y-114510330D01*
X110825729Y-114996511D01*
X110711655Y-115570000D01*
X110825729Y-116143489D01*
X111150585Y-116629670D01*
X111465366Y-116840000D01*
X111150585Y-117050330D01*
X110825729Y-117536511D01*
X110711655Y-118110000D01*
X110825729Y-118683489D01*
X111150585Y-119169670D01*
X111465366Y-119380000D01*
X111150585Y-119590330D01*
X110825729Y-120076511D01*
X110711655Y-120650000D01*
X110825729Y-121223489D01*
X111150585Y-121709670D01*
X111465366Y-121920000D01*
X111150585Y-122130330D01*
X110825729Y-122616511D01*
X110711655Y-123190000D01*
X110825729Y-123763489D01*
X111077123Y-124139727D01*
X110540000Y-124676850D01*
X110540000Y-103911400D01*
X111252691Y-103911400D01*
X111019302Y-104008073D01*
X110840673Y-104186701D01*
X110744000Y-104420090D01*
X110744000Y-105124250D01*
X110902750Y-105283000D01*
X112268000Y-105283000D01*
X112268000Y-104070150D01*
X112109250Y-103911400D01*
X112680750Y-103911400D01*
X112109250Y-103911400D01*
X112109250Y-103911400D01*
X112680750Y-103911400D01*
X112522000Y-104070150D01*
X112522000Y-105283000D01*
X113887250Y-105283000D01*
X114046000Y-105124250D01*
X114046000Y-104420090D01*
X113949327Y-104186701D01*
X113770698Y-104008073D01*
X113537309Y-103911400D01*
X112680750Y-103911400D01*
X112109250Y-103911400D01*
X112109250Y-103911400D01*
X111252691Y-103911400D01*
X110540000Y-103911400D01*
X110540000Y-102325170D01*
X116217120Y-102325170D01*
X115983731Y-102421843D01*
X115805103Y-102600472D01*
X115708430Y-102833861D01*
X115708430Y-104174290D01*
X115867180Y-104333040D01*
X116967000Y-104333040D01*
X116967000Y-102483920D01*
X116808250Y-102325170D01*
X117379750Y-102325170D01*
X117221000Y-102483920D01*
X117221000Y-104333040D01*
X118320820Y-104333040D01*
X118479570Y-104174290D01*
X118479570Y-102870000D01*
X119126690Y-102870000D01*
X118893301Y-102966673D01*
X118714673Y-103145302D01*
X118618000Y-103378691D01*
X118618000Y-103727250D01*
X118776750Y-103886000D01*
X120142000Y-103886000D01*
X120142000Y-103028750D01*
X119983250Y-102870000D01*
X120554750Y-102870000D01*
X119983250Y-102870000D01*
X119983250Y-102870000D01*
X120554750Y-102870000D01*
X120396000Y-103028750D01*
X120396000Y-103886000D01*
X121761250Y-103886000D01*
X121920000Y-103727250D01*
X121920000Y-103378691D01*
X121823327Y-103145302D01*
X121644699Y-102966673D01*
X121411310Y-102870000D01*
X120554750Y-102870000D01*
X119983250Y-102870000D01*
X119983250Y-102870000D01*
X119126690Y-102870000D01*
X118479570Y-102870000D01*
X118479570Y-102833861D01*
X118382897Y-102600472D01*
X118204269Y-102421843D01*
X117970880Y-102325170D01*
X117379750Y-102325170D01*
X116808250Y-102325170D01*
X116808250Y-102325170D01*
X116217120Y-102325170D01*
X110540000Y-102325170D01*
X110540000Y-102285000D01*
X129549555Y-102285000D01*
X129521103Y-102313452D01*
X129521103Y-102313452D01*
G37*
X129521103Y-102313452D02*
X129424430Y-102546841D01*
X129424430Y-103887270D01*
X129583180Y-104046020D01*
X130683000Y-104046020D01*
X130683000Y-104026020D01*
X130937000Y-104026020D01*
X130937000Y-104046020D01*
X132036820Y-104046020D01*
X132195570Y-103887270D01*
X132195570Y-102546841D01*
X132191494Y-102537000D01*
X133185690Y-102537000D01*
X132952301Y-102633673D01*
X132773673Y-102812302D01*
X132677000Y-103045691D01*
X132677000Y-103886250D01*
X132835750Y-104045000D01*
X133985000Y-104045000D01*
X133985000Y-102695750D01*
X133826250Y-102537000D01*
X133185690Y-102537000D01*
X132191494Y-102537000D01*
X132098897Y-102313452D01*
X132070445Y-102285000D01*
X141555174Y-102285000D01*
X141557256Y-110490000D01*
X133731000Y-110490000D01*
X133682399Y-110499667D01*
X133641197Y-110527197D01*
X133613667Y-110568399D01*
X133604000Y-110617000D01*
X133604000Y-110688978D01*
X133248609Y-110451513D01*
X132714000Y-110345173D01*
X132179391Y-110451513D01*
X131726172Y-110754345D01*
X131714000Y-110772562D01*
X131701828Y-110754345D01*
X131248609Y-110451513D01*
X130714000Y-110345173D01*
X130179391Y-110451513D01*
X129726172Y-110754345D01*
X129714000Y-110772562D01*
X129701828Y-110754345D01*
X129248609Y-110451513D01*
X128714000Y-110345173D01*
X128528876Y-110381996D01*
X128743199Y-110238791D01*
X129411990Y-109570000D01*
X129411990Y-109670850D01*
X129458967Y-109912973D01*
X129598757Y-110125777D01*
X129809790Y-110268227D01*
X130059430Y-110318290D01*
X131560570Y-110318290D01*
X131802693Y-110271313D01*
X132015497Y-110131523D01*
X132157947Y-109920490D01*
X132208010Y-109670850D01*
X132208010Y-109055980D01*
X132664560Y-109055980D01*
X132664560Y-109172000D01*
X132711537Y-109414123D01*
X132851327Y-109626927D01*
X133062360Y-109769377D01*
X133312000Y-109819440D01*
X134912000Y-109819440D01*
X135154123Y-109772463D01*
X135366927Y-109632673D01*
X135509377Y-109421640D01*
X135559440Y-109172000D01*
X135559440Y-109057000D01*
X136026135Y-109057000D01*
X136026140Y-109057001D01*
X136308624Y-109000810D01*
X136364815Y-108989633D01*
X136651930Y-108797790D01*
X136713850Y-108735870D01*
X137808970Y-108735870D01*
X138051093Y-108688893D01*
X138263897Y-108549103D01*
X138406347Y-108338070D01*
X138429564Y-108222300D01*
X138450567Y-108330553D01*
X138590357Y-108543357D01*
X138801390Y-108685807D01*
X139051030Y-108735870D01*
X140648690Y-108735870D01*
X140890813Y-108688893D01*
X141103617Y-108549103D01*
X141246067Y-108338070D01*
X141296130Y-108088430D01*
X141296130Y-106287570D01*
X141249153Y-106045447D01*
X141109363Y-105832643D01*
X140934061Y-105714312D01*
X140977440Y-105498000D01*
X140977440Y-103798000D01*
X140930463Y-103555877D01*
X140790673Y-103343073D01*
X140579640Y-103200623D01*
X140330000Y-103150560D01*
X139430000Y-103150560D01*
X139187877Y-103197537D01*
X138975073Y-103337327D01*
X138832623Y-103548360D01*
X138782560Y-103798000D01*
X138782560Y-105498000D01*
X138818876Y-105685173D01*
X138808907Y-105687107D01*
X138596103Y-105826897D01*
X138453653Y-106037930D01*
X138430436Y-106153700D01*
X138409433Y-106045447D01*
X138269643Y-105832643D01*
X138058610Y-105690193D01*
X138039313Y-105686323D01*
X138065000Y-105624310D01*
X138065000Y-104933750D01*
X137906250Y-104775000D01*
X137107000Y-104775000D01*
X137107000Y-104795000D01*
X136853000Y-104795000D01*
X136853000Y-104775000D01*
X136053750Y-104775000D01*
X135895000Y-104933750D01*
X135895000Y-105624310D01*
X135931316Y-105711984D01*
X135756383Y-105826897D01*
X135613933Y-106037930D01*
X135563870Y-106287570D01*
X135563870Y-107287000D01*
X135559440Y-107287000D01*
X135559440Y-107172000D01*
X135512463Y-106929877D01*
X135372673Y-106717073D01*
X135161640Y-106574623D01*
X134912000Y-106524560D01*
X133312000Y-106524560D01*
X133069877Y-106571537D01*
X132857073Y-106711327D01*
X132714623Y-106922360D01*
X132664560Y-107172000D01*
X132664560Y-107285980D01*
X132208010Y-107285980D01*
X132208010Y-106671110D01*
X132161033Y-106428987D01*
X132021243Y-106216183D01*
X131957996Y-106173490D01*
X132098897Y-106032588D01*
X132195570Y-105799199D01*
X132195570Y-104458770D01*
X132036820Y-104300020D01*
X130937000Y-104300020D01*
X130937000Y-104320020D01*
X130683000Y-104320020D01*
X130683000Y-104300020D01*
X129583180Y-104300020D01*
X129424430Y-104458770D01*
X129424430Y-105799199D01*
X129521103Y-106032588D01*
X129661506Y-106172992D01*
X129604503Y-106210437D01*
X129462053Y-106421470D01*
X129411990Y-106671110D01*
X129411990Y-107315307D01*
X129318013Y-107334001D01*
X129220755Y-107353347D01*
X128933640Y-107545190D01*
X128933638Y-107545193D01*
X128536440Y-107942391D01*
X128536440Y-104470200D01*
X128503224Y-104299000D01*
X132835750Y-104299000D01*
X132677000Y-104457750D01*
X132677000Y-105298309D01*
X132773673Y-105531698D01*
X132952301Y-105710327D01*
X133185690Y-105807000D01*
X133826250Y-105807000D01*
X133985000Y-105648250D01*
X133985000Y-104299000D01*
X134239000Y-104299000D01*
X133985000Y-104299000D01*
X133985000Y-104299000D01*
X134239000Y-104299000D01*
X134239000Y-105648250D01*
X134397750Y-105807000D01*
X135038310Y-105807000D01*
X135271699Y-105710327D01*
X135450327Y-105531698D01*
X135547000Y-105298309D01*
X135547000Y-104457750D01*
X135451500Y-104362250D01*
X135895000Y-104362250D01*
X136053750Y-104521000D01*
X136853000Y-104521000D01*
X136853000Y-103321750D01*
X136694250Y-103163000D01*
X137265750Y-103163000D01*
X137107000Y-103321750D01*
X137107000Y-104521000D01*
X137906250Y-104521000D01*
X138065000Y-104362250D01*
X138065000Y-103671690D01*
X137968327Y-103438301D01*
X137789698Y-103259673D01*
X137556309Y-103163000D01*
X137265750Y-103163000D01*
X136694250Y-103163000D01*
X136694250Y-103163000D01*
X136403691Y-103163000D01*
X135547000Y-103163000D01*
X135547000Y-103045691D01*
X135450327Y-102812302D01*
X135271699Y-102633673D01*
X135038310Y-102537000D01*
X134397750Y-102537000D01*
X134239000Y-102695750D01*
X134239000Y-104045000D01*
X135388250Y-104045000D01*
X135547000Y-103886250D01*
X135547000Y-103163000D01*
X136403691Y-103163000D01*
X135547000Y-103163000D01*
X135547000Y-103163000D01*
X136403691Y-103163000D01*
X136170302Y-103259673D01*
X135991673Y-103438301D01*
X135895000Y-103671690D01*
X135895000Y-104362250D01*
X135451500Y-104362250D01*
X135388250Y-104299000D01*
X134239000Y-104299000D01*
X133985000Y-104299000D01*
X133985000Y-104299000D01*
X132835750Y-104299000D01*
X128503224Y-104299000D01*
X128489463Y-104228077D01*
X128349673Y-104015273D01*
X128138640Y-103872823D01*
X127889000Y-103822760D01*
X125857000Y-103822760D01*
X125614877Y-103869737D01*
X125402073Y-104009527D01*
X125259623Y-104220560D01*
X125209560Y-104470200D01*
X125209560Y-108127800D01*
X125256537Y-108369923D01*
X125396327Y-108582727D01*
X125607360Y-108725177D01*
X125621442Y-108728001D01*
X122820001Y-108728001D01*
X122820001Y-106449001D01*
X122752634Y-106110326D01*
X122560791Y-105823211D01*
X122560788Y-105823209D01*
X122410790Y-105673210D01*
X122123675Y-105481367D01*
X122067484Y-105470190D01*
X121798645Y-105416713D01*
X121745673Y-105336073D01*
X121534640Y-105193623D01*
X121347032Y-105156000D01*
X121411310Y-105156000D01*
X121644699Y-105059327D01*
X121823327Y-104880698D01*
X121920000Y-104647309D01*
X121920000Y-104298750D01*
X121761250Y-104140000D01*
X120396000Y-104140000D01*
X120396000Y-104160000D01*
X120142000Y-104160000D01*
X120142000Y-104140000D01*
X118776750Y-104140000D01*
X118618000Y-104298750D01*
X118618000Y-104647309D01*
X118714673Y-104880698D01*
X118893301Y-105059327D01*
X119126690Y-105156000D01*
X119188883Y-105156000D01*
X119010877Y-105190537D01*
X118798073Y-105330327D01*
X118655623Y-105541360D01*
X118605560Y-105791000D01*
X118605560Y-106807000D01*
X118652537Y-107049123D01*
X118792327Y-107261927D01*
X119003360Y-107404377D01*
X119189943Y-107441794D01*
X119010877Y-107476537D01*
X118798073Y-107616327D01*
X118741593Y-107700000D01*
X118492010Y-107700000D01*
X118492010Y-106958130D01*
X118445033Y-106716007D01*
X118305243Y-106503203D01*
X118241996Y-106460510D01*
X118382897Y-106319608D01*
X118479570Y-106086219D01*
X118479570Y-104745790D01*
X118320820Y-104587040D01*
X117221000Y-104587040D01*
X117221000Y-104607040D01*
X116967000Y-104607040D01*
X116967000Y-104587040D01*
X115867180Y-104587040D01*
X115708430Y-104745790D01*
X115708430Y-106086219D01*
X115805103Y-106319608D01*
X115945506Y-106460012D01*
X115888503Y-106497457D01*
X115746053Y-106708490D01*
X115695990Y-106958130D01*
X115695990Y-107065000D01*
X113756126Y-107065000D01*
X113639415Y-106890330D01*
X113617220Y-106875500D01*
X113770698Y-106811927D01*
X113949327Y-106633299D01*
X114046000Y-106399910D01*
X114046000Y-105695750D01*
X113887250Y-105537000D01*
X112522000Y-105537000D01*
X112522000Y-105557000D01*
X112268000Y-105557000D01*
X112268000Y-105537000D01*
X110902750Y-105537000D01*
X110744000Y-105695750D01*
X110744000Y-106399910D01*
X110840673Y-106633299D01*
X111019302Y-106811927D01*
X111172780Y-106875500D01*
X111150585Y-106890330D01*
X110825729Y-107376511D01*
X110711655Y-107950000D01*
X110825729Y-108523489D01*
X111150585Y-109009670D01*
X111465366Y-109220000D01*
X111150585Y-109430330D01*
X110825729Y-109916511D01*
X110711655Y-110490000D01*
X110825729Y-111063489D01*
X111150585Y-111549670D01*
X111465366Y-111760000D01*
X111150585Y-111970330D01*
X110825729Y-112456511D01*
X110711655Y-113030000D01*
X110825729Y-113603489D01*
X111150585Y-114089670D01*
X111465366Y-114300000D01*
X111150585Y-114510330D01*
X110825729Y-114996511D01*
X110711655Y-115570000D01*
X110825729Y-116143489D01*
X111150585Y-116629670D01*
X111465366Y-116840000D01*
X111150585Y-117050330D01*
X110825729Y-117536511D01*
X110711655Y-118110000D01*
X110825729Y-118683489D01*
X111150585Y-119169670D01*
X111465366Y-119380000D01*
X111150585Y-119590330D01*
X110825729Y-120076511D01*
X110711655Y-120650000D01*
X110825729Y-121223489D01*
X111150585Y-121709670D01*
X111465366Y-121920000D01*
X111150585Y-122130330D01*
X110825729Y-122616511D01*
X110711655Y-123190000D01*
X110825729Y-123763489D01*
X111077123Y-124139727D01*
X110540000Y-124676850D01*
X110540000Y-103911400D01*
X111252691Y-103911400D01*
X111019302Y-104008073D01*
X110840673Y-104186701D01*
X110744000Y-104420090D01*
X110744000Y-105124250D01*
X110902750Y-105283000D01*
X112268000Y-105283000D01*
X112268000Y-104070150D01*
X112109250Y-103911400D01*
X112680750Y-103911400D01*
X112109250Y-103911400D01*
X112109250Y-103911400D01*
X112680750Y-103911400D01*
X112522000Y-104070150D01*
X112522000Y-105283000D01*
X113887250Y-105283000D01*
X114046000Y-105124250D01*
X114046000Y-104420090D01*
X113949327Y-104186701D01*
X113770698Y-104008073D01*
X113537309Y-103911400D01*
X112680750Y-103911400D01*
X112109250Y-103911400D01*
X112109250Y-103911400D01*
X111252691Y-103911400D01*
X110540000Y-103911400D01*
X110540000Y-102325170D01*
X116217120Y-102325170D01*
X115983731Y-102421843D01*
X115805103Y-102600472D01*
X115708430Y-102833861D01*
X115708430Y-104174290D01*
X115867180Y-104333040D01*
X116967000Y-104333040D01*
X116967000Y-102483920D01*
X116808250Y-102325170D01*
X117379750Y-102325170D01*
X117221000Y-102483920D01*
X117221000Y-104333040D01*
X118320820Y-104333040D01*
X118479570Y-104174290D01*
X118479570Y-102870000D01*
X119126690Y-102870000D01*
X118893301Y-102966673D01*
X118714673Y-103145302D01*
X118618000Y-103378691D01*
X118618000Y-103727250D01*
X118776750Y-103886000D01*
X120142000Y-103886000D01*
X120142000Y-103028750D01*
X119983250Y-102870000D01*
X120554750Y-102870000D01*
X119983250Y-102870000D01*
X119983250Y-102870000D01*
X120554750Y-102870000D01*
X120396000Y-103028750D01*
X120396000Y-103886000D01*
X121761250Y-103886000D01*
X121920000Y-103727250D01*
X121920000Y-103378691D01*
X121823327Y-103145302D01*
X121644699Y-102966673D01*
X121411310Y-102870000D01*
X120554750Y-102870000D01*
X119983250Y-102870000D01*
X119983250Y-102870000D01*
X119126690Y-102870000D01*
X118479570Y-102870000D01*
X118479570Y-102833861D01*
X118382897Y-102600472D01*
X118204269Y-102421843D01*
X117970880Y-102325170D01*
X117379750Y-102325170D01*
X116808250Y-102325170D01*
X116808250Y-102325170D01*
X116217120Y-102325170D01*
X110540000Y-102325170D01*
X110540000Y-102285000D01*
X129549555Y-102285000D01*
X129521103Y-102313452D01*
M02*
